<svg width="1034" height="682" version="1.0" xmlns="http://www.w3.org/2000/svg">
 <g transform="translate(169.1 -128.6)">
  <path class="ps00" d="m705.9 385.4 103.5-0.0123c32.44 0 44.68 21.92 44.68 40.82 0 32.2-29.03 37.97-29.03 37.97l37.62 60.02h-75.68l-16.26-39.87 0.0307 39.87h-137.6l-16.26-39.87 0.0307 39.87h-64.84v-138.8l103.5-0.0123c32.44 0 44.71 21.92 44.71 40.82 0 32.2-29.06 37.97-29.06 37.97l34.74 55.39zm-516.7 26.42v26.29h9.36c4.941 0 8.623-3.02 10.34-6.561 1.381-2.817 2.363-8.326-0.1227-13.46-2.977-6.226-8.777-6.208-10.16-6.276zm-65.98-26.43s94.33 0.0276 110.5 9e-3c30.78-0.0338 38.05 23.09 38.08 36.67 0.092 24.38-16.97 30.37-16.97 30.37s18.38 6.935 18.38 32.93c0 40.5-37.1 38.83-42.87 38.83h-107.1zm422.4 138.8v-31.88h-30.01v-25.3h29.71v-27.61h-29.71v-26.73h30.01v-27.28h-98.66v138.8zm-176 0h68.59v-138.8h-68.59v52.58h-22.25v-52.58h-70.15v138.8h70.15v-58.34h22.25zm-252.5 0v-31.88h-30.04v-25.3h29.74v-27.61h-29.74v-26.73h30.04v-27.28h-98.69v138.8zm-174.9-138.8h67.42v138.8h-67.42zm-6.721 138.8v-38.32h-30.01v-100.5h-69.57v138.8zm680.2-112.4v32.88h8.224c8.899 0 12.06-4.22 14.02-8.648 1.534-3.517 2.578-9.875 0-16.39-1.412-3.532-5.125-7.847-14.02-7.847zm153.9 0v32.88h8.224c8.899 0 12.06-4.22 14.02-8.648 1.534-3.517 2.578-9.875 0-16.39-1.412-3.532-5.125-7.847-14.02-7.847zm-580.3 56.08v28.42h9.452c4.941 0 10-3.265 11.88-7.095 1.473-3.044 2.455-8.976-0.1534-14.55-3.437-7.347-11.02-6.693-11.75-6.782l-9.421 3e-3" style="fill-rule:evenodd"/>
 </g>
</svg>
