<?xml version="1.0" encoding="UTF-8" standalone="no"?>
<svg
   xmlns:dc="http://purl.org/dc/elements/1.1/"
   xmlns:cc="http://creativecommons.org/ns#"
   xmlns:rdf="http://www.w3.org/1999/02/22-rdf-syntax-ns#"
   xmlns:svg="http://www.w3.org/2000/svg"
   xmlns="http://www.w3.org/2000/svg"
   xmlns:xlink="http://www.w3.org/1999/xlink"
   xmlns:sodipodi="http://sodipodi.sourceforge.net/DTD/sodipodi-0.dtd"
   xmlns:inkscape="http://www.inkscape.org/namespaces/inkscape"
   style="enable-background:new 0 0 512.003 512.003"
   version="1.1"
   viewBox="0 0 512 512"
   xml:space="preserve"
   id="svg1536"
   sodipodi:docname="cheap.svg"
   inkscape:version="0.92.4 (5da689c313, 2019-01-14)"><metadata
   id="metadata1540"><rdf:RDF><cc:Work
       rdf:about=""><dc:format>image/svg+xml</dc:format><dc:type
         rdf:resource="http://purl.org/dc/dcmitype/StillImage" /><dc:title></dc:title></cc:Work></rdf:RDF></metadata><sodipodi:namedview
   pagecolor="#ffffff"
   bordercolor="#666666"
   borderopacity="1"
   objecttolerance="10"
   gridtolerance="10"
   guidetolerance="10"
   inkscape:pageopacity="0"
   inkscape:pageshadow="2"
   inkscape:window-width="1920"
   inkscape:window-height="1017"
   id="namedview1538"
   showgrid="false"
   inkscape:zoom="0.4609375"
   inkscape:cx="-96.542373"
   inkscape:cy="256"
   inkscape:window-x="-8"
   inkscape:window-y="-8"
   inkscape:window-maximized="1"
   inkscape:current-layer="svg1536" /><defs
   id="defs1522"><linearGradient
     id="linearGradient875"><stop
       style="stop-color:#3a8ed5"
       offset="0"
       id="stop1513" /><stop
       style="stop-color:#3acfd5"
       offset="1"
       id="stop1515" /></linearGradient><linearGradient
     id="linearGradient877"
     x1="10.36"
     x2="501.6"
     y1="256"
     y2="256"
     gradientUnits="userSpaceOnUse"
     xlink:href="#linearGradient875" /><linearGradient
     id="linearGradient885"
     x1="143.8"
     x2="368.2"
     y1="256"
     y2="256"
     gradientUnits="userSpaceOnUse"
     xlink:href="#linearGradient875" /><linearGradient
     id="linearGradient893"
     x1="260.9"
     x2="369.2"
     y1="334.7"
     y2="334.7"
     gradientUnits="userSpaceOnUse"
     xlink:href="#linearGradient875" /><linearGradient
     id="linearGradient901"
     x1="142.8"
     x2="251.1"
     y1="177.3"
     y2="177.3"
     gradientUnits="userSpaceOnUse"
     xlink:href="#linearGradient875" /></defs>
<g
   style="fill:#7be4ff;fill-opacity:1"
   id="g1528">
	<g
   style="fill:#7be4ff;fill-opacity:1"
   id="g1526">
		<path
   d="m478 262.6c-2.06-4.215-2.06-9.049 0-13.26l19.1-39.06c10.63-21.75 2.208-47.68-19.18-59.02l-38.41-20.38c-4.144-2.198-6.985-6.11-7.796-10.73l-7.512-42.83c-4.183-23.85-26.24-39.87-50.21-36.48l-43.05 6.09c-4.647 0.656-9.242-0.838-12.61-4.099l-31.25-30.23c-17.4-16.83-44.66-16.84-62.06 0l-31.25 30.24c-3.372 3.262-7.967 4.753-12.61 4.099l-43.05-6.09c-23.98-3.393-46.02 12.63-50.21 36.48l-7.512 42.83c-0.811 4.62-3.652 8.531-7.795 10.73l-38.41 20.38c-21.39 11.35-29.81 37.27-19.18 59.02l19.1 39.06c2.06 4.215 2.06 9.049 0 13.26l-19.1 39.06c-10.63 21.75-2.208 47.68 19.18 59.02l38.41 20.38c4.144 2.198 6.985 6.11 7.796 10.73l7.512 42.83c3.808 21.71 22.42 36.93 43.82 36.93 2.107 0 4.245-0.148 6.394-0.452l43.05-6.09c4.643-0.659 9.241 0.838 12.61 4.099l31.25 30.23c8.702 8.418 19.86 12.63 31.03 12.62 11.16-1e-3 22.33-4.209 31.03-12.62l31.25-30.23c3.372-3.261 7.968-4.751 12.61-4.099l43.05 6.09c23.98 3.392 46.02-12.63 50.21-36.48l7.513-42.83c0.811-4.62 3.652-8.531 7.795-10.73l38.41-20.38c21.39-11.35 29.81-37.27 19.18-59.02l-19.1-39.06zm-13.92 72-38.41 20.38c-12.25 6.499-20.64 18.06-23.04 31.71l-7.512 42.83c-1.415 8.068-8.874 13.49-16.99 12.34l-43.05-6.09c-13.73-1.945-27.32 2.474-37.28 12.11l-31.25 30.23c-5.886 5.694-15.11 5.694-21 0l-31.25-30.23c-8.422-8.147-19.43-12.56-30.93-12.56-2.106 0-4.229 0.148-6.355 0.449l-43.05 6.09c-8.106 1.146-15.57-4.274-16.99-12.34l-7.513-42.83c-2.396-13.66-10.79-25.22-23.04-31.71l-38.41-20.38c-7.236-3.839-10.09-12.61-6.489-19.97l19.1-39.06c6.088-12.46 6.088-26.74 0-39.2l-19.1-39.06c-3.597-7.359-0.747-16.13 6.489-19.97l38.41-20.38c12.25-6.499 20.64-18.06 23.04-31.71l7.512-42.83c1.416-8.068 8.874-13.49 16.99-12.34l43.05 6.09c13.72 1.943 27.32-2.474 37.28-12.11l31.25-30.23c5.886-5.694 15.11-5.694 21 0l31.25 30.23c9.965 9.64 23.55 14.06 37.28 12.11l43.05-6.09c8.107-1.147 15.57 4.274 16.99 12.34l7.512 42.83c2.396 13.66 10.79 25.22 23.04 31.71l38.41 20.38c7.236 3.839 10.09 12.61 6.489 19.97l-19.1 39.06c-6.088 12.46-6.088 26.74 0 39.2l19.1 39.06c3.598 7.361 0.748 16.13-6.488 19.97z"
   style="fill:#7be4ff;fill-opacity:1"
   id="path1524" />
	</g>
</g>

	
		<path
   d="m363.9 148.1c-5.765-5.766-15.12-5.766-20.88 0l-194.9 194.9c-5.766 5.766-5.766 15.12 0 20.88 2.883 2.883 6.662 4.325 10.44 4.325s7.558-1.441 10.44-4.325l194.9-194.9c5.768-5.767 5.768-15.12 1e-3 -20.88z"
   style="fill:#ffffff;fill-opacity:1"
   id="path1530" />
	


	
		<path
   d="m196.9 123.1c-29.85 0-54.14 24.29-54.14 54.14s24.29 54.14 54.14 54.14 54.14-24.29 54.14-54.14-24.29-54.14-54.14-54.14zm0 78.75c-13.57 0-24.61-11.04-24.61-24.61 0-13.57 11.04-24.61 24.61-24.61s24.61 11.04 24.61 24.61c-1e-3 13.57-11.04 24.61-24.61 24.61z"
   style="fill:#ffffff;fill-opacity:1"
   id="path1532" />
	


	
		<path
   d="m315.1 280.6c-29.85 0-54.14 24.29-54.14 54.14s24.29 54.14 54.14 54.14 54.14-24.29 54.14-54.14-24.29-54.14-54.14-54.14zm0 78.75c-13.57 0-24.61-11.04-24.61-24.61s11.04-24.61 24.61-24.61c13.57 0 24.61 11.04 24.61 24.61s-11.04 24.61-24.61 24.61z"
   style="fill:#ffffff;fill-opacity:1"
   id="path1534" />
	
















</svg>