<svg style="enable-background:new 0 0 454.189 454.189" version="1.1" viewBox="0 0 454.2 454.2" xml:space="preserve" xmlns="http://www.w3.org/2000/svg">

	
		<path d="m308.6 16.22v169.8c0 7.511-5.104 13.84-12.04 15.68-1.335 0.357-2.737 0.546-4.18 0.546h-273.7c-8.961 0-16.22-7.262-16.22-16.22v-169.8c0-8.961 7.262-16.22 16.22-16.22h273.7c1.443 0 2.845 0.189 4.18 0.546 6.938 1.841 12.04 8.165 12.04 15.68z" style="fill:#fff;stroke-width:10;stroke:#00c7fb"/>
		<path d="m308.6 16.22v16.14h-306.1v-16.14c0-8.961 7.262-16.22 16.22-16.22h273.7c8.961 0 16.22 7.262 16.22 16.22z" style="fill:#00c7fb"/>
		<circle cx="24.71" cy="16.18" r="10.11" style="fill:#e34b87"/>
		<circle cx="51.68" cy="16.18" r="10.11" style="fill:#e34b87"/>
	
	
		<rect x="32.68" y="61.82" width="235" height="11" style="fill:#8d8d8d"/>
		<rect x="32.68" y="85.91" width="235" height="11" style="fill:#8d8d8d"/>
		<rect x="32.68" y="110" width="235" height="11" style="fill:#8d8d8d"/>
		<rect x="32.68" y="134.1" width="235" height="11" style="fill:#8d8d8d"/>
		<rect x="32.68" y="158.2" width="235" height="11" style="fill:#8d8d8d"/>
	
	<path d="m307.6 222.2-40.93 37.75c-18.44 17.01-46.85 17.01-65.29 0l-40.92-37.75c-11.06-10.2-16.84-24.89-15.72-39.89l2.38-49c0.25-3.29 0.67-6.53 1.28-9.7 2.84-15.07 9.53-28.71 18.98-39.91 4.2-4.99 8.95-9.49 14.15-13.41 14.64-11.07 32.85-17.59 52.5-17.59s37.86 6.53 52.5 17.59c2.35 1.77 4.61 3.66 6.77 5.66 2.61 2.43 5.08 5.01 7.38 7.74 9.45 11.2 16.14 24.84 18.98 39.92 0.61 3.17 1.03 6.41 1.28 9.7l2.37 49c1.13 15-4.661 29.69-15.71 39.89z" style="fill:#FCD18B"/>
	<path d="m263.8 209.7c0 3.104-0.476 6.099-1.357 8.906-3.79 12.13-15.11 20.92-28.47 20.92-13.38 0-24.69-8.797-28.47-20.92-0.881-2.808-1.357-5.802-1.357-8.906h59.66z" style="fill:#fff"/>
	<path d="m345.5 124.9h-13c0-54.31-44.18-98.5-98.49-98.5s-98.5 44.18-98.5 98.5h-13c0-61.48 50.02-111.5 111.5-111.5s111.5 50.02 111.5 111.5z" style="fill:#e34b87"/>
	<path d="m319.6 123.6c-2.84-15.08-9.53-28.72-18.98-39.92-2.3-2.73-4.77-5.31-7.38-7.74-1.045-0.969-2.118-1.907-3.209-2.824-0.219-0.184-0.446-0.357-0.667-0.538-0.894-0.736-1.798-1.459-2.72-2.159-0.059-0.045-0.115-0.094-0.174-0.138-2e-3 2e-3 -4e-3 4e-3 -7e-3 5e-3 -14.64-11.06-32.85-17.6-52.49-17.6-19.65 0-37.86 6.529-52.5 17.59l-2e-3 -2e-3c-0.022 0.017-0.042 0.035-0.064 0.051-1.208 0.915-2.391 1.86-3.549 2.835-0.112 0.094-0.225 0.188-0.337 0.282-1.108 0.943-2.191 1.915-3.251 2.911-0.127 0.12-0.256 0.237-0.383 0.357-1.066 1.015-2.104 2.058-3.117 3.125-0.093 0.098-0.188 0.193-0.28 0.291-1.088 1.156-2.145 2.342-3.169 3.557-9.45 11.2-16.14 24.84-18.98 39.91 12.76-3.477 24.13-10.32 33.12-19.5 13.34 13.62 31.94 22.08 52.51 22.08s39.16-8.459 52.5-22.08c8.994 9.181 20.36 16.03 33.13 19.5z" style="fill:#00c7fb"/>
	
		<circle cx="195" cy="164" r="10" style="fill:#00c7fb"/>
		<circle cx="273" cy="164" r="10" style="fill:#00c7fb"/>
	
	
		<polygon points="180.1 251 231.1 302 207.1 341 167.1 261" style="fill:#7be4ff"/>
		<polygon points="287.9 251 236.9 302 260.9 341 300.9 261" style="fill:#7be4ff"/>
	
	<polygon points="248.1 335 234 311 219.9 335 234 349.1" style="fill:#7be4ff"/>
	<polygon points="272.9 415.3 234 349.3 195.1 415.3 234 454.2" style="fill:#7be4ff"/>
	<path d="m185 225c0 1.8-0.73 3.42-1.9 4.6-1.18 1.17-2.8 1.9-4.6 1.9h-30.73c-14.42 0-26.11-11.69-26.11-26.11v-17.39h13v17.39c0 7.24 5.87 13.11 13.11 13.11h30.73c3.59 0 6.5 2.909 6.5 6.5z" style="fill:#e34b87"/>
	
		<path d="m137.5 113.9c-22.56 0-40.84 18.28-40.84 40.84s18.28 40.84 40.84 40.84" style="fill:#00c7fb"/>
		<path d="m330.5 113.9c22.56 0 40.84 18.28 40.84 40.84s-18.28 40.84-40.84 40.84" style="fill:#00c7fb"/>
	
	<path d="m185 225c0 1.8-0.73 3.42-1.9 4.6-1.18 1.17-2.8 1.9-4.6 1.9h-19v-13h19c3.59 0 6.5 2.909 6.5 6.5z" style="fill:#808080"/>
	
		<path d="m439.8 424.9h-120.2c-6.565 0-11.89-5.322-11.89-11.89v-155.2c0-6.565 5.322-11.89 11.89-11.89h120.2c6.565 0 11.89 5.322 11.89 11.89v155.2c-1e-3 6.564-5.323 11.89-11.89 11.89z" style="fill:#00c7fb"/>
		<rect x="322.7" y="260.9" width="114" height="149" style="fill:#fff"/>
		<path d="m393.2 237.9h-26.86c-4.182 0-7.572 3.39-7.572 7.572v25.43h42v-25.43c-1e-3 -4.182-3.392-7.572-7.573-7.572z" style="fill:#7be4ff"/>
		
			<rect x="336.7" y="285.9" width="86" height="11" style="fill:#8d8d8d"/>
			<rect x="336.7" y="309.9" width="86" height="11" style="fill:#8d8d8d"/>
			<rect x="336.7" y="334" width="86" height="11" style="fill:#8d8d8d"/>
			<rect x="336.7" y="358.1" width="86" height="11" style="fill:#8d8d8d"/>
			<rect x="336.7" y="382.2" width="43" height="11" style="fill-opacity:.01176;fill:#29abe2"/>
		
	
	<path d="m58.28 239.4c-30.37 0-54.99 24.62-54.99 54.99 0 17.06 7.768 32.3 19.96 42.38l-11.13 31.17 28.67-21.41-0.013-0.02c5.5 1.846 11.38 2.862 17.5 2.862 30.37 0 54.99-24.62 54.99-54.99s-24.62-54.99-54.99-54.99z" style="fill:#e34b87"/>
	
		<path d="m49.94 303.3c0-3.263 0.533-6.194 1.599-8.792 1.065-2.598 3.263-4.861 6.594-6.794 0.999-0.599 2.231-1.282 3.697-2.048 1.464-0.765 2.897-1.681 4.296-2.747 1.399-1.065 2.58-2.314 3.547-3.747 0.965-1.431 1.449-3.08 1.449-4.945 0-1.399-0.267-2.63-0.799-3.697-0.534-1.065-1.233-1.964-2.098-2.697-0.867-0.732-1.883-1.282-3.047-1.649-1.166-0.365-2.348-0.549-3.546-0.549-1.466 0-2.798 0.25-3.997 0.749s-2.282 1.133-3.247 1.898c-0.967 0.767-1.833 1.633-2.598 2.598-0.766 0.966-1.416 1.883-1.948 2.748l-8.692-5.995c0.865-2.064 2.014-3.896 3.447-5.495 1.431-1.599 3.063-2.947 4.895-4.046 1.831-1.099 3.812-1.931 5.945-2.497 2.131-0.565 4.329-0.849 6.594-0.849 2.531 0 5.029 0.367 7.494 1.099 2.463 0.734 4.678 1.898 6.644 3.497 1.964 1.599 3.562 3.647 4.795 6.144 1.232 2.498 1.848 5.479 1.848 8.942 0 2.132-0.249 4.013-0.749 5.645-0.499 1.633-1.217 3.114-2.148 4.446-0.933 1.333-2.033 2.532-3.297 3.597-1.266 1.066-2.698 2.098-4.296 3.097-1.333 0.799-2.665 1.566-3.997 2.298-1.333 0.734-2.548 1.549-3.647 2.448s-1.998 1.932-2.698 3.097c-0.699 1.166-1.049 2.582-1.049 4.246h-10.99v-2e-3zm0.2 23.28v-13.79h11.09v13.79h-11.09z" style="fill:#fff"/>
	
	
		<path d="m186.4 321.1 11.13-31.17-28.67 21.41 0.013 0.02c-5.5-1.846-11.38-2.862-17.5-2.862-30.37 0-54.99 24.62-54.99 54.99s24.62 54.99 54.99 54.99 54.99-24.62 54.99-54.99c1e-3 -17.06-7.767-32.3-19.96-42.38z" style="fill:#00c7fb"/>
		
			<path d="m145.5 371.7v-39.24h11.69v39.24h-11.69zm0 23.28v-13.17h11.69v13.17h-11.69z" style="fill:#fff"/>
		
	
















</svg>
