<svg width="32" height="23" version="1.1" viewBox="0 0 32 23" xml:space="preserve" xmlns="http://www.w3.org/2000/svg">
<g transform="matrix(.04545 -.04545 .04545 .04545 -12.99 .8787)" style="fill:#7be4ff">
	<g style="fill:#7be4ff">
		<path d="m398.9 510.9c24.19 24.75 48.63 29.77 70.32 8.644 21.68-21.13 14.68-48.83-6.44-70.51 0 0-202.8-200.9-220.5-219.6-7.31-7.7-23.96-11.16-34.71-0.5068-29.28 29.02-90.08 87.91-90.08 87.91l-43.7-43.7c-16.85-16.85-44.27-16.85-61.12 0-8.163 8.163-12.66 19.02-12.66 30.56v165c-1e-3 11.54 4.494 22.4 12.66 30.56 8.165 8.164 19.02 12.66 30.56 12.66h165c11.54 0 22.4-4.494 30.56-12.66 8.163-8.163 12.66-19.02 12.66-30.56s-4.495-22.4-12.66-30.56l-43.7-43.7s41.39-41.41 43.87-43.61c2.308-2.054 159.9 160 159.9 160zm14.61-14.24s-131.4-133.5-157.2-158.5c-14.71-14.24-16.83-14.58-29.48-2.023-11.07 10.99-53.38 51.13-53.38 51.13-3.983 3.984-3.983 10.44 0 14.42l50.91 50.91c4.31 4.309 6.684 10.04 6.684 16.13s-2.372 11.82-6.684 16.13c-4.309 4.31-10.04 6.684-16.13 6.684h-165c-6.094 1e-3 -11.82-2.372-16.13-6.684-4.311-4.309-6.685-10.04-6.684-16.14v-165c0-6.095 2.373-11.82 6.685-16.14 4.309-4.31 10.04-6.684 16.13-6.684 6.096 0 11.82 2.373 16.14 6.683l50.91 50.91c1.913 1.912 4.507 2.987 7.212 2.987s5.299-1.075 7.212-2.987c0 0 50.96-51.07 81.22-81.3 16.2-16.18 19.23-16.44 31.84-3.84 24.67 24.65 210.4 209.9 210.4 209.9 13.28 13.62 20.97 31.19 8.119 43.71-13.63 13.28-26.37 6.018-42.77-10.32z" style="fill:#7be4ff"/>
	</g>
</g>
<g transform="matrix(.04545 -.04545 .04545 .04545 -12.99 .8787)" style="fill:#7be4ff">
	<g style="fill:#7be4ff">
		<path d="m139.7 460.4h-2.851c-5.632 0-10.2 4.567-10.2 10.2s4.567 10.2 10.2 10.2h2.851c5.632 0 10.2-4.567 10.2-10.2 1e-3 -5.631-4.566-10.2-10.2-10.2z" style="fill:#7be4ff"/>
	</g>
</g>
<g transform="matrix(.04545 -.04545 .04545 .04545 -12.99 .8787)" style="fill:#7be4ff">
	<g style="fill:#7be4ff">
		<path d="m104.4 460.4h-59.5c-5.632 0-10.2 4.567-10.2 10.2s4.567 10.2 10.2 10.2h59.5c5.632 0 10.2-4.567 10.2-10.2 0-5.631-4.567-10.2-10.2-10.2z" style="fill:#7be4ff"/>
	</g>
</g>















</svg>
