<svg style="enable-background:new 0 0 512 512" version="1.1" viewBox="0 0 512 512" xml:space="preserve" xmlns="http://www.w3.org/2000/svg">
<g style="fill:#fff">
	<path d="m121 98.5h-76c-8.291 0-15-6.709-15-15s6.709-15 15-15h76c8.291 0 15 6.709 15 15s-6.709 15-15 15z" style="fill:#fff"/>
	<path d="m121 218.5h-76c-8.291 0-15-6.709-15-15s6.709-15 15-15h76c8.291 0 15 6.709 15 15s-6.709 15-15 15z" style="fill:#fff"/>
	<path d="m91 158.5h-76c-8.291 0-15-6.709-15-15s6.709-15 15-15h76c8.291 0 15 6.709 15 15s-6.709 15-15 15z" style="fill:#fff"/>
</g>
<g style="fill:#0078b4">
	<path d="m280.1 51.04c-11.92-7.925-27.74-6.357-37.85 3.75l-82.5 82.5c-11.72 11.72-11.72 30.7 0 42.42s30.7 11.72 42.42 0l65.11-65.11 46.59 33.56 63.72-29.62-97.5-67.5z" style="fill:#0078b4"/>
	<path d="m219.8 242.3-195 195c-11.72 11.72-11.72 30.7 0 42.42 11.72 11.72 30.7 11.72 42.42 0l173.8-173.8-21.21-63.63z" style="fill:#0078b4"/>
</g>
<g style="fill:#7be4ff">
	<path d="m482 203.5h-91v-60c0-11.79-7.134-22.96-18.54-27.68-11.48-4.748-24.4-1.812-32.68 6.482l-120 120c-11.72 11.72-11.72 30.7 0 42.42l68.79 68.79-83.79 83.79c-11.72 11.72-11.72 30.7 0 42.42 11.72 11.72 30.7 11.72 42.42 0l105-105c11.72-11.72 11.72-30.7 0-42.42l-68.79-68.79 47.58-47.58v17.58c0 16.57 13.43 30 30 30h121c16.57 0 30-13.43 30-30s-13.43-30-30-30z" style="fill:#7be4ff"/>
	<circle cx="436" cy="68.5" r="45" style="fill:#7be4ff"/>
</g>















</svg>
