<svg width="1400" height="1400" enable-background="new 0 0 1400 1400" version="1.1" viewBox="0 0 1400 1400" xml:space="preserve" xmlns="http://www.w3.org/2000/svg">
<g transform="matrix(1.126 0 0 1.126 -88.09 -88.09)">
	<rect width="1400" height="1400" style="fill:none"/>
	
		<path d="m1322 1250c0 40.2-32.6 72.9-72.9 72.9h-1099c-40.2 0-72.9-32.6-72.9-72.9v-1099c0-40.2 32.6-72.9 72.9-72.9h1099c40.2 0 72.9 32.6 72.9 72.9z" style="fill:#7be4ff"/>
		<polygon points="694 403.3 694 242.9 586.5 242.9 586.5 460.8 475.3 460.8 475.3 551.1 442.5 551.1 442.5 286.6 365.9 286.6 365.9 403.3 313.1 403.3 313.1 266.6 252.9 266.6 252.9 230.1 201.9 230.1 201.9 266.6 174.5 266.6 174.5 494.1 77.6 494.1 77.6 1105 1322 1105 1322 494.1 1211 494.1 1211 266.6 1183 266.6 1183 230.1 1132 230.1 1132 266.6 1072 266.6 1072 403.3 1019 403.3 1019 286.6 942.8 286.6 942.8 534.7 896.3 534.7 896.3 476.3 819.8 476.3 819.8 585.7 790.6 585.7 790.6 403.3" style="fill:#458cc1"/>
		
			
				<polygon points="970.7 401.6 756.4 346.3 542.1 401.6 542.1 431.4 755.5 378.8 970.7 434.8" style="fill:#699695"/>
				<polygon points="970.7 434.8 755.5 378.8 542.1 431.4 542.1 1049 970.7 1049" style="fill:#75aba9"/>
			
			<rect x="209.9" y="664.6" width="332.2" height="384" style="fill:#6c9c9a"/>
			
				<polygon points="1006 427.5 1006 394.3 756.4 329.7 504.6 394.7 504.6 427.7 504.6 427.9 756.4 362.9" style="fill:#ff8380"/>
			
			<rect x="970.7" y="469.3" width="237.3" height="22.1" style="fill:#ff8380"/>
			<rect x="194.7" y="642.5" width="347.4" height="22.1" style="fill:#ff8380"/>
			<rect x="230" y="697.4" width="142" height="64.3" style="fill:#fff"/>
			
				<rect x="230" y="795.5" width="291.9" height="240.7" style="fill:#fff"/>
				<rect x="230" y="1036" width="291.9" height="12.5" style="fill:#999"/>
			
			<rect x="372.7" y="795.5" width="6.6" height="240.7" style="fill:#e6e6e6"/>
			<rect x="230" y="831.1" width="291.8" height="3.9" style="fill:#e6e6e6"/>
			<rect x="230" y="872.5" width="291.8" height="3.9" style="fill:#e6e6e6"/>
			<rect x="230" y="913.8" width="291.8" height="3.9" style="fill:#e6e6e6"/>
			<rect x="230" y="955.2" width="291.8" height="3.9" style="fill:#e6e6e6"/>
			<rect x="230" y="996.5" width="291.8" height="3.9" style="fill:#e6e6e6"/>
			<rect x="230" y="795.5" width="291.8" height="12.1" style="fill:#e6e6e6"/>
			<rect x="510.4" y="795.5" width="11.4" height="240.7" style="fill:#e6e6e6"/>
			<rect x="379.9" y="697.4" width="142" height="64.3" style="fill:#fff"/>
			
				<polygon points="298 705.2 277.6 705.2 237.8 754 258.2 754" style="fill:#6d6e70"/>
				<polygon points="343.2 705.2 298 705.2 258.2 754 303.4 754" style="fill:#58595b"/>
				<polygon points="277.6 705.2 237.6 705.2 237.6 754 237.8 754" style="fill:#58595b"/>
				<polygon points="364.8 726 364.8 705.2 343.2 705.2 303.4 754 342 754" style="fill:#6d6e70"/>
				<polygon points="342 754 364.8 754 364.8 726" style="fill:#58595b"/>
			
			
				<polygon points="465.6 705.2 426.6 705.2 387.5 753.1 387.5 754 425.8 754" style="fill:#6d6e70"/>
				<polygon points="506.7 705.2 465.6 705.2 425.8 754 466.9 754" style="fill:#58595b"/>
				<polygon points="387.5 753.1 426.6 705.2 387.5 705.2" style="fill:#58595b"/>
				<polygon points="514.7 717.1 514.7 705.2 506.7 705.2 466.9 754 484.6 754" style="fill:#6d6e70"/>
				<polygon points="484.6 754 514.7 754 514.7 717.1" style="fill:#58595b"/>
			
			<polygon points="533.2 1049 542.1 1049 542.1 674.5 542.1 669.5 542.1 664.6 209.9 664.6 209.9 674.5 533.2 674.5" style="fill:#618c8b"/>
			<rect x="970.7" y="505.5" width="223.2" height="543.1" style="fill:#6c9c9a"/>
			<polygon points="970.7 505.5 970.7 1050 982.6 1050 982.6 505.5 1194 505.5 1194 491.4 982.6 491.4 970.7 491.4" style="fill:#618c8b"/>
			<rect x="582.5" y="441.1" width="211" height="175.3" style="fill:#fff"/>
			<rect x="717.5" y="656.4" width="211" height="175.3" style="fill:#fff"/>
			<rect x="582.5" y="656.4" width="87.9" height="175.3" style="fill:#fff"/>
			<rect x="840.6" y="441.1" width="87.9" height="175.3" style="fill:#fff"/>
			
				<polygon points="590.5 501.8 633.5 449.1 590.5 449.1" style="fill:#58595b"/>
				<polygon points="730.6 449.1 712.8 449.1 590.5 598.9 590.5 608.4 600.6 608.4" style="fill:#6d6e70"/>
				<polygon points="712.8 449.1 672.6 449.1 590.5 549.7 590.5 598.9" style="fill:#58595b"/>
				<polygon points="769.8 449.1 730.6 449.1 600.6 608.4 639.8 608.4" style="fill:#58595b"/>
				<polygon points="672.6 449.1 633.5 449.1 590.5 501.8 590.5 549.7" style="fill:#6d6e70"/>
				<polygon points="785.4 548.9 785.4 527.1 719.1 608.4 736.9 608.4" style="fill:#6d6e70"/>
				<polygon points="736.9 608.4 785.4 608.4 785.4 548.9" style="fill:#58595b"/>
				<polygon points="785.4 477.9 785.4 449.1 769.8 449.1 639.8 608.4 678.9 608.4" style="fill:#6d6e70"/>
				<polygon points="785.4 527.1 785.4 477.9 678.9 608.4 719.1 608.4" style="fill:#58595b"/>
			
			
				<polygon points="725.5 717.1 768.5 664.4 725.5 664.4" style="fill:#58595b"/>
				<polygon points="865.6 664.4 847.8 664.4 725.5 814.2 725.5 823.7 735.6 823.7" style="fill:#6d6e70"/>
				<polygon points="847.8 664.4 807.7 664.4 725.5 765 725.5 814.2" style="fill:#58595b"/>
				<polygon points="904.8 664.4 865.6 664.4 735.6 823.7 774.8 823.7" style="fill:#58595b"/>
				<polygon points="807.7 664.4 768.5 664.4 725.5 717.1 725.5 765" style="fill:#6d6e70"/>
				<polygon points="920.5 764.2 920.5 742.5 854.1 823.7 871.9 823.7" style="fill:#6d6e70"/>
				<polygon points="871.9 823.7 920.5 823.7 920.5 764.2" style="fill:#58595b"/>
				<polygon points="920.5 693.2 920.5 664.4 904.8 664.4 774.8 823.7 814 823.7" style="fill:#6d6e70"/>
				<polygon points="920.5 742.5 920.5 693.2 814 823.7 854.1 823.7" style="fill:#58595b"/>
			
			
				<rect x="1004" y="533.3" width="158.1" height="131.4" style="fill:#fff"/>
				
					<polygon points="1010 578.7 1042 539.3 1010 539.3" style="fill:#58595b"/>
					<polygon points="1114 539.3 1101 539.3 1010 651.5 1010 658.6 1017 658.6" style="fill:#6d6e70"/>
					<polygon points="1101 539.3 1071 539.3 1010 614.7 1010 651.5" style="fill:#58595b"/>
					<polygon points="1144 539.3 1114 539.3 1017 658.6 1046 658.6" style="fill:#58595b"/>
					<polygon points="1071 539.3 1042 539.3 1010 578.7 1010 614.7" style="fill:#6d6e70"/>
					<polygon points="1156 614.1 1156 597.8 1106 658.6 1119 658.6" style="fill:#6d6e70"/>
					<polygon points="1119 658.6 1156 658.6 1156 614.1" style="fill:#58595b"/>
					<polygon points="1156 560.9 1156 539.3 1144 539.3 1046 658.6 1076 658.6" style="fill:#6d6e70"/>
					<polygon points="1156 597.8 1156 560.9 1076 658.6 1106 658.6" style="fill:#58595b"/>
				
			
			
				<rect x="1004" y="700" width="158.1" height="131.4" style="fill:#fff"/>
				
					<polygon points="1010 745.5 1042 706 1010 706" style="fill:#58595b"/>
					<polygon points="1114 706 1101 706 1010 818.3 1010 825.3 1017 825.3" style="fill:#6d6e70"/>
					<polygon points="1101 706 1071 706 1010 781.4 1010 818.3" style="fill:#58595b"/>
					<polygon points="1144 706 1114 706 1017 825.3 1046 825.3" style="fill:#58595b"/>
					<polygon points="1071 706 1042 706 1010 745.5 1010 781.4" style="fill:#6d6e70"/>
					<polygon points="1156 780.8 1156 764.5 1106 825.3 1119 825.3" style="fill:#6d6e70"/>
					<polygon points="1119 825.3 1156 825.3 1156 780.8" style="fill:#58595b"/>
					<polygon points="1156 727.6 1156 706 1144 706 1046 825.3 1076 825.3" style="fill:#6d6e70"/>
					<polygon points="1156 764.5 1156 727.6 1076 825.3 1106 825.3" style="fill:#58595b"/>
				
			
			
				<rect x="1004" y="866.7" width="158.1" height="131.4" style="fill:#fff"/>
				
					<polygon points="1010 912.2 1042 872.8 1010 872.8" style="fill:#58595b"/>
					<polygon points="1114 872.8 1101 872.8 1010 985 1010 992.1 1017 992.1" style="fill:#6d6e70"/>
					<polygon points="1101 872.8 1071 872.8 1010 948.1 1010 985" style="fill:#58595b"/>
					<polygon points="1144 872.8 1114 872.8 1017 992.1 1046 992.1" style="fill:#58595b"/>
					<polygon points="1071 872.8 1042 872.8 1010 912.2 1010 948.1" style="fill:#6d6e70"/>
					<polygon points="1156 947.6 1156 931.2 1106 992.1 1119 992.1" style="fill:#6d6e70"/>
					<polygon points="1119 992.1 1156 992.1 1156 947.6" style="fill:#58595b"/>
					<polygon points="1156 894.4 1156 872.8 1144 872.8 1046 992.1 1076 992.1" style="fill:#6d6e70"/>
					<polygon points="1156 931.2 1156 894.4 1076 992.1 1106 992.1" style="fill:#58595b"/>
				
			
			
				<polygon points="662.3 687.4 662.3 664.4 641 664.4 590.5 726.2 590.5 775.4" style="fill:#58595b"/>
				<polygon points="641 664.4 601.8 664.4 590.5 678.3 590.5 726.2" style="fill:#6d6e70"/>
				<polygon points="662.3 709.2 662.3 687.4 590.5 775.4 590.5 797.2" style="fill:#6d6e70"/>
				<polygon points="590.5 678.3 601.8 664.4 590.5 664.4" style="fill:#58595b"/>
				<polygon points="647.3 823.7 662.3 805.2 662.3 757.3 608.1 823.7" style="fill:#6d6e70"/>
				<polygon points="662.3 757.3 662.3 709.2 590.5 797.2 590.5 823.7 608.1 823.7" style="fill:#58595b"/>
				<polygon points="662.3 805.2 647.3 823.7 662.3 823.7" style="fill:#58595b"/>
			
			
				<polygon points="920.4 472.1 920.4 449.1 899.1 449.1 848.6 510.9 848.6 560.1" style="fill:#58595b"/>
				<polygon points="899.1 449.1 859.9 449.1 848.6 463 848.6 510.9" style="fill:#6d6e70"/>
				<polygon points="920.4 493.9 920.4 472.1 848.6 560.1 848.6 581.9" style="fill:#6d6e70"/>
				<polygon points="848.6 463 859.9 449.1 848.6 449.1" style="fill:#58595b"/>
				<polygon points="905.4 608.4 920.4 589.9 920.4 542 866.2 608.4" style="fill:#6d6e70"/>
				<polygon points="920.4 542 920.4 493.9 848.6 581.9 848.6 608.4 866.2 608.4" style="fill:#58595b"/>
				<polygon points="920.4 589.9 905.4 608.4 920.4 608.4" style="fill:#58595b"/>
			
			<rect x="664.5" y="860.3" width="210.3" height="175.9" style="fill:#629190"/>
			<polygon points="672 868.4 672 1028 783.2 1028 783.2 1020 680 1020 680 868.4" style="fill:#61573b"/>
			<rect x="680" y="868.4" width="103.3" height="151.4" style="fill:#6b6041"/>
			<path d="m700 946.6c0 3.5-2.9 6.4-6.4 6.4s-6.4-2.9-6.4-6.4 2.9-6.4 6.4-6.4 6.4 2.8 6.4 6.4z" style="fill:#ffd8a6"/>
			<rect x="646.6" y="1036" width="246" height="12.5" style="fill:#999"/>
			<polygon points="845.1 1016 792.8 1036 874.8 1036 874.8 860.3 858 860.3" style="fill:#588281"/>
		
		
			<path d="m186.6 1161h1027c31.1 0 56.3-25.2 56.3-56.3h-1140c0 31.1 25.2 56.3 56.3 56.3z" style="fill:#c4ad8a"/>
			<path d="m1213 1049h-1027c-31.1 0-56.3 25.2-56.3 56.3h1139c0-31.1-25.2-56.3-56.3-56.3z" style="fill:#34ad76"/>
		
		<path d="m858.4 1218c0 11.3 9.2 20.5 20.5 20.5h298.7c11.3 0 20.5-9.2 20.5-20.5s-9.2-20.5-20.5-20.5h-298.7c-11.3-0.1-20.5 9.1-20.5 20.5z" style="fill:#c4ad8a"/>
		<path d="m635.2 1218c0 11.3 9.2 20.5 20.5 20.5h131.9c11.3 0 20.5-9.2 20.5-20.5s-9.2-20.5-20.5-20.5h-131.8c-11.4-0.1-20.6 9.1-20.6 20.5z" style="fill:#c4ad8a"/>
		
			
				<polygon points="1109 869.4 1084 966.3 1107 980.9 1171 980.9 1171 539.3 1080 869.4" style="fill:#398555"/>
				<polygon points="1171 539.3 1171 980.9 1235 980.9 1258 966.3 1233 869.4 1262 869.4" style="fill:#33754b"/>
			
			<rect x="1152" y="980.9" width="18.7" height="67.7" style="fill:#605426"/>
			<rect x="1171" y="980.9" width="18.7" height="67.7" style="fill:#4d431e"/>
		
		
			
				<polygon points="921.5 957.8 909 1007 920.5 1014 953 1014 953 790.5 907.1 957.8" style="fill:#398555"/>
				<polygon points="953 790.5 953 1014 985.4 1014 997 1007 984.5 957.8 998.9 957.8" style="fill:#33754b"/>
			
			<rect x="943.5" y="1014" width="9.5" height="34.3" style="fill:#605426"/>
			<rect x="953" y="1014" width="9.5" height="34.3" style="fill:#4d431e"/>
		
		
			
				<polygon points="539.7 941.4 524.9 999.4 538.6 1008 576.9 1008 576.9 744 522.7 941.4" style="fill:#398555"/>
				<polygon points="576.9 744 576.9 1008 615.2 1008 628.8 999.4 614.1 941.4 631 941.4" style="fill:#33754b"/>
			
			<rect x="565.7" y="1008" width="11.2" height="40.5" style="fill:#605426"/>
			<rect x="576.9" y="1008" width="11.2" height="40.5" style="fill:#4d431e"/>
		
		<path d="m1207 1022h-33.8c-0.4-9.3-8.1-16.7-17.5-16.7-0.9 0-1.7 0.1-2.5 0.3-8.5 1.2-15 8.5-15 17.3v0.1c-7.1 0.5-12.6 6.4-12.6 13.6 0 7.5 6.1 13.6 13.6 13.6h40.4 0.2 0.2 27.1c7.7 0 14-6.3 14-14-0.1-7.9-6.3-14.2-14.1-14.2z" style="fill:#398555"/>
		<path d="m584.9 1033h-20.8c-0.3-5.7-5-10.3-10.8-10.3-0.5 0-1 0.1-1.6 0.2-5.2 0.8-9.2 5.2-9.2 10.6-4.3 0.3-7.8 3.9-7.8 8.3 0 4.6 3.7 8.4 8.4 8.4h24.8 0.1 0.1 16.6c4.8 0 8.6-3.9 8.6-8.6 0.2-4.7-3.6-8.6-8.4-8.6z" style="fill:#398555"/>
		<path d="m995.6 1044c0-4.3-3.5-7.8-7.8-7.8h-54.8c-4.3 0-7.8 3.5-7.8 7.8s3.5 7.8 7.8 7.8h54.8c4.4-0.1 7.8-3.6 7.8-7.8z" style="fill:#398555"/>
	
</g>
</svg>
