<svg style="enable-background:new 0 0 511.996 511.996" version="1.1" viewBox="0 0 512 512" xml:space="preserve" xmlns="http://www.w3.org/2000/svg">
<path d="m114.3 512c-63.14-0.027-114.3-51.24-114.3-114.4 9e-3 -30.25 12.01-59.26 33.37-80.69l112-112c6.411-6.385 13.56-12 21.28-16.71 37.35-22.8 84.43-22.29 121.3 1.319 6.947 4.432 13.38 9.621 19.17 15.48 5.347 5.356 8.135 12.76 7.651 20.32-0.862 14.55-13.35 25.64-27.9 24.77-6.464-0.387-12.56-3.131-17.13-7.713-24.04-23.98-62.94-23.98-86.98 0l-112.4 111.7c-24.04 24.04-24.04 63.02 0 87.06 24.04 24.04 63.02 24.04 87.06 0l66.84-66.4c18.93 7.695 39.19 11.61 59.62 11.52h3.518l-92.34 92.25c-21.38 21.45-50.44 33.48-80.72 33.42z" style="fill:#00c7fb"/>
<path d="m283.9 342.4h-6.332c-3.887-0.176-7.765-0.554-11.61-1.143-3.254-0.528-6.508-1.231-9.762-2.023l-4.749-1.319c-1.759-0.528-3.43-1.055-5.013-1.671s-3.694-1.319-5.277-1.935l-5.189-2.199c-12.17-5.628-23.24-13.37-32.72-22.86-5.347-5.356-8.135-12.76-7.651-20.32 0.862-14.55 13.35-25.64 27.9-24.77 6.464 0.387 12.56 3.131 17.13 7.713 24.04 23.98 62.94 23.98 86.98 0l29.46-29.37 82.67-82.67c24.17-24.17 24.17-63.34 0-87.5s-63.34-24.17-87.5 0l-66.48 66.84c-18.9-7.713-39.13-11.66-59.54-11.61h-3.43l92.25-92.16c43.62-45.65 116-47.3 161.6-3.685s47.3 116 3.685 161.6c-1.196 1.258-2.427 2.489-3.685 3.685l-111.9 112c-14.55 14.6-32.78 24.99-52.76 30.08h-0.616l-4.925 0.967-2.814 0.528-5.54 0.791h-2.814l-5.716 0.528h-5.54l-0.089 0.528z"/>















</svg>
