<svg width="512pt" height="512pt" version="1.1" viewBox="-119 0 512 512" xmlns="http://www.w3.org/2000/svg">
 <path d="m37.52 45.93c-16.57 0-30 13.43-30 30 0 28.68-0.007812 112.2-0.01953 157.6l60-103.9 0.01953-53.7c0-16.57-13.43-30-30-30z" fill="#f7a16e" style="fill:#0078b4"/>
 <path d="m122.4 9.789c-15.31-6.336-32.86 0.9297-39.2 16.24l-64.73 156.3 113.4-87.41v-29.68l6.723-16.23c6.34-15.31-0.9297-32.86-16.24-39.2z" fill="#ffc98c" style="fill:#7be4ff"/>
 <path d="m135 19.67v-0.003907c-3.129-4.238-7.414-7.711-12.64-9.875-3.754-1.555-7.645-2.285-11.47-2.281v23.84c0 7.957-3.156 15.58-8.785 21.21-14.45 14.45-33.09 33.09-51.09 51.07l-32.59 78.67 113.4-87.41v-29.68l6.723-16.23c4.027-9.715 2.66-20.85-3.594-29.32z" fill="#f7a16e" style="fill:#0078b4"/>
 <path d="m30.95 166.2c32.11-32.1 91.2-91.18 111.5-111.5 11.72-11.72 30.71-11.71 42.43 0 11.71 11.71 11.71 30.71 0 42.43-21.65 21.65-93.1 93.08-113.7 113.7 44.77-44.77 117.1-44.95 162.1-0.5195 11.84 11.69 12.35 30.98 0.6562 42.81-11.71 11.85-30.8 11.89-42.56 0.1328-21.5-21.5-56.29-21.5-77.78 0-21.5 21.5-21.5 56.29 0 77.78 21.5 21.5 56.29 21.5 77.78 0 7.609-7.605 12.78-17.16 14.95-27.62 3.371-16.22 19.25-26.64 35.48-23.27 16.22 3.371 26.64 19.25 23.27 35.48-4.562 21.94-15.38 41.94-31.27 57.84-12.14 12.14-26.52 21.24-42.21 26.89-23.59 8.508-39.11 31.16-39.11 56.24v47.88h-144.9v-281.8c0-21.22 8.434-41.58 23.45-56.58z" fill="#ffc98c" style="fill:#7be4ff"/>
 <g fill="#f7a16e" style="fill:#0078b4">
  <path d="m71.11 210.9c10.94 10.93 27.73 13.52 41.4 6.281 31.96-16.94 72.64-12.12 99.64 14.55 0.2852 0.2812 0.2305 0.6602 0.2305 0.6602 0.01172-0.06641 0.08984-0.2031 0.1602-0.2773l21.34 21.08c11.69-11.83 11.18-31.12-0.6562-42.81-44.99-44.43-117.3-44.25-162.1 0.5195z" style="fill:#0078b4"/>
  <path d="m241.8 280.2-6.105 29.38c-3.367 16.2-11.36 30.98-23.11 42.73-8.969 8.969-19.46 15.66-31.18 19.89-35.25 12.71-58.93 46.65-58.93 84.46v47.88h30v-47.88c0-25.08 15.51-47.73 39.1-56.24 15.69-5.66 30.07-14.75 42.21-26.9 15.9-15.89 26.71-35.9 31.27-57.84 3.371-16.22-7.043-32.11-23.27-35.48z" style="fill:#0078b4"/>
  <path d="m184.9 54.71c-5.859-5.859-13.54-8.785-21.21-8.785v17.57c0 7.957-3.16 15.59-8.785 21.21-20.68 20.67-58.19 58.18-83.73 83.71-11.72 11.71-11.72 30.71-0.007813 42.43 20.64-20.63 92.09-92.06 113.7-113.7 11.71-11.71 11.71-30.71 0-42.43z" style="fill:#0078b4"/>
 </g>
 <path d="m243.3 272.8c-20.29-4.215-40.13 8.789-44.34 29.09-1.875 9.023-6.34 17.27-12.91 23.84-18.52 18.52-48.65 18.52-67.18 0-18.52-18.52-18.52-48.66 0-67.18 18.58-18.58 48.59-18.59 67.18 0 14.71 14.7 38.56 14.65 53.2-0.1641 14.59-14.77 14.11-38.78-0.7227-53.43-23.09-22.8-53.64-35.35-86.06-35.35h-0.3711c-11.67 0.03516-23.08 1.691-33.99 4.867 27.36-27.36 58.92-58.91 72.08-72.07 14.62-14.62 14.62-38.41 0-53.04-14.62-14.62-38.41-14.62-53.03 0-17.11 17.11-61.84 61.83-94.7 94.67l47.71-115.2c3.48-8.438 11.65-13.89 20.8-13.9 7.781 0 15.68 4.117 19.86 11.95 1.918 3.629 6.422 5.074 10.14 3.109 3.727-1.977 5.016-6.551 3.109-10.14-6.363-12.03-19.04-19.92-33.11-19.92h-0.01953c-15.06 0-28.78 9.027-34.64 23.16l-61.27 147.9c0.007813-37.22 0.01172-80.07 0.01172-95.16 0-14.38 13.36-25.09 27.41-21.96 4.043 0.9023 8.051-1.648 8.949-5.691s-1.648-8.051-5.691-8.949c-23.47-5.215-45.66 12.72-45.66 36.61 0 29.48-0.01953 418.6-0.01953 428.6 0 4.141 3.355 7.5 7.5 7.5s7.5-3.359 7.5-7.5v-271-10.79c0.01953-19.38 7.637-37.61 21.24-51.21 32.12-32.1 91.21-91.18 111.5-111.5 8.773-8.77 23.05-8.77 31.82 0 8.77 8.773 8.77 23.05 0 31.82-21.65 21.65-93.1 93.08-113.7 113.7-2.93 2.93-2.934 7.68-0.003906 10.61 2.926 2.926 7.676 2.93 10.61 0 41.66-41.66 109.6-41.87 151.5-0.4883 8.949 8.84 9.332 23.36 0.5938 32.21-8.77 8.871-23.09 8.934-31.92 0.09766-24.37-24.37-64.02-24.37-88.39 0-24.37 24.37-24.37 64.02 0 88.39 24.42 24.41 63.95 24.45 88.39 0 8.645-8.645 14.52-19.5 16.99-31.4 2.531-12.18 14.43-19.98 26.61-17.45 12.15 2.523 19.98 14.46 17.45 26.61-4.262 20.51-14.37 39.2-29.23 54.07-11.33 11.33-24.6 19.79-39.46 25.14-26.35 9.504-44.06 34.94-44.06 63.3v47.88c0 4.145 3.359 7.5 7.5 7.5 4.145 0 7.5-3.355 7.5-7.5v-47.88c0-22.05 13.72-41.82 34.15-49.18 16.95-6.113 32.07-15.75 44.97-28.65 16.93-16.93 28.45-38.24 33.31-61.62 4.207-20.25-8.84-40.14-29.09-44.35z" style="fill:#fff"/>
</svg>
