<svg style="enable-background:new 0 0 512 512" version="1.1" viewBox="0 0 512 512" xml:space="preserve" xmlns="http://www.w3.org/2000/svg" xmlns:xlink="http://www.w3.org/1999/xlink"><defs><radialGradient id="radialGradient837" cx="252.2" cy="257.5" r="256" gradientTransform="matrix(1.473 .002972 -.002996 1.485 -118.6 -125.8)" gradientUnits="userSpaceOnUse"><stop style="stop-color:#7be4ff" offset="0"/><stop style="stop-color:#7be4ff;stop-opacity:0" offset="1"/></radialGradient></defs>
<circle cx="256" cy="256" r="256" style="fill:url(#radialGradient837)"/>
<g transform="translate(-.767 -20.71)">
	<rect x="113.4" y="376.1" width="285.1" height="8"/>
	<rect x="157.3" y="400.1" width="197.4" height="8"/>
</g>

	<path d="m157.2 168.2h-44.14v-20.14h68.58v12.04l-41.32 138.2h-24.7l41.58-130.1z"/>
	<path d="m193.2 191.1c0-6.56 0.592-12.23 1.8-17.01s2.784-8.792 4.752-12.05c1.96-3.248 4.232-5.872 6.816-7.864s5.232-3.528 7.952-4.616c2.728-1.08 5.456-1.8 8.176-2.152s5.224-0.528 7.512-0.528c2.168 0 4.584 0.168 7.248 0.488 2.672 0.32 5.368 1 8.096 2.024s5.36 2.52 7.904 4.488c2.552 1.96 4.808 4.584 6.776 7.864 1.96 3.28 3.544 7.328 4.752 12.14 1.192 4.808 1.8 10.54 1.8 17.22v63.48c0 6.56-0.6 12.23-1.8 17.01-1.2 4.784-2.808 8.832-4.8 12.18s-4.272 6.056-6.848 8.136c-2.584 2.08-5.216 3.696-7.912 4.832s-5.384 1.912-8.048 2.328c-2.664 0.408-5.056 0.616-7.168 0.616-2.344 0-4.888-0.208-7.648-0.616-2.76-0.416-5.504-1.184-8.264-2.328-2.752-1.144-5.408-2.744-7.952-4.792-2.544-2.056-4.792-4.752-6.728-8.096-1.936-3.336-3.488-7.416-4.656-12.22-1.176-4.808-1.76-10.5-1.76-17.06v-63.48zm23.3 73.06c0 6.208 1.128 10.72 3.384 13.54s5.696 4.216 10.33 4.216c4.512 0 7.88-1.408 10.11-4.216 2.224-2.824 3.344-7.328 3.344-13.54v-81.33c0-6.56-1.12-11.34-3.344-14.34-2.224-2.984-5.592-4.48-10.11-4.48-4.632 0-8.072 1.496-10.33 4.48-2.256 2.992-3.384 7.776-3.384 14.34v81.33z"/>
	<path d="m308.2 212.9c-2.544 0-5.112-0.36-7.68-1.072-2.576-0.72-4.896-2.12-6.984-4.192-2.08-2.08-3.768-5.032-5.064-8.856s-1.944-8.84-1.944-15.06v-7.176c0-4.072 0.312-7.592 0.936-10.57 0.624-2.968 1.488-5.504 2.584-7.616 1.096-2.104 2.36-3.8 3.792-5.096s2.952-2.304 4.56-3.024c1.608-0.712 3.256-1.2 4.928-1.48 1.68-0.264 3.328-0.4 4.936-0.4 1.512 0 3.112 0.128 4.76 0.368 1.656 0.24 3.28 0.728 4.864 1.448 1.584 0.712 3.104 1.712 4.528 2.984s2.68 2.96 3.76 5.064c1.072 2.104 1.92 4.656 2.544 7.648 0.624 3 0.936 6.552 0.936 10.67v7.176c0 6.136-0.688 11.1-2.08 14.93-1.384 3.832-3.144 6.792-5.264 8.888s-4.456 3.52-6.976 4.256c-2.52 0.744-4.904 1.112-7.136 1.112zm0.128-10.66c2.824 0 4.792-1.216 5.904-3.664 1.12-2.44 1.68-6.224 1.68-11.37v-13.02c0-5.184-0.56-9.008-1.68-11.47s-3.088-3.696-5.904-3.696c-2.952 0-5.024 1.232-6.2 3.696-1.184 2.464-1.784 6.28-1.784 11.47v13.02c0 5.144 0.592 8.928 1.784 11.37 1.176 2.448 3.248 3.664 6.2 3.664zm40.54-52.47h12.14l-30.8 115.9h-12.21l30.86-115.9zm0.128 80.52c0-6.136 0.68-11.04 2.048-14.74 1.368-3.688 3.112-6.528 5.232-8.512 2.128-1.992 4.464-3.312 7.008-3.96 2.552-0.648 5.016-0.976 7.384-0.976 1.52 0 3.112 0.128 4.768 0.376 1.656 0.24 3.272 0.728 4.864 1.44 1.584 0.72 3.096 1.712 4.528 2.984 1.432 1.28 2.68 2.968 3.752 5.072 1.08 2.104 1.928 4.656 2.552 7.648 0.624 3 0.936 6.552 0.936 10.67v7.176c0 4.12-0.328 7.696-0.968 10.74-0.656 3.04-1.52 5.632-2.616 7.784-1.104 2.152-2.36 3.912-3.8 5.304-1.432 1.384-2.936 2.488-4.52 3.288-1.592 0.808-3.208 1.352-4.864 1.64s-3.216 0.44-4.696 0.44c-1.704 0-3.416-0.152-5.136-0.44-1.728-0.288-3.384-0.816-4.968-1.576s-3.088-1.832-4.496-3.216c-1.416-1.392-2.632-3.16-3.656-5.304-1.032-2.144-1.848-4.752-2.456-7.816s-0.904-6.68-0.904-10.83v-7.192h8e-3zm13.76 10.66c0 5.152 0.592 8.936 1.776 11.38s3.256 3.656 6.208 3.656c2.824 0 4.784-1.216 5.904-3.656s1.672-6.224 1.672-11.38v-13.02c0-5.184-0.552-9.016-1.672-11.48-1.128-2.456-3.088-3.688-5.904-3.688-2.952 0-5.024 1.232-6.208 3.688-1.176 2.464-1.776 6.288-1.776 11.48v13.02z"/>
















<circle cx="255.8" cy="255.4" r="249.6" style="fill:none;stroke-width:13;stroke:#000"/></svg>
