<svg width="348.1px" height="348.1px" style="enable-background:new 0 0 348.077 348.077" version="1.1" viewBox="0 0 348.1 348.1" xml:space="preserve" xmlns="http://www.w3.org/2000/svg">

	
		
			<path d="m340.3 275.1-53.76-53.76c-10.71-10.66-28.44-10.34-39.52 0.744l-27.08 27.08c-1.711-0.943-3.482-1.928-5.344-2.973-17.1-9.476-40.51-22.46-65.14-47.11-24.7-24.7-37.7-48.14-47.21-65.26-1.003-1.813-1.964-3.561-2.913-5.221l18.18-18.15 8.936-8.947c11.1-11.1 11.4-28.83 0.721-39.52l-53.76-53.77c-10.68-10.68-28.42-10.36-39.52 0.744l-15.15 15.24 0.414 0.411c-5.08 6.482-9.325 13.96-12.48 22.02-2.912 7.674-4.725 15-5.554 22.34-7.098 58.84 19.79 112.6 92.77 185.6 100.9 100.9 182.2 93.25 185.7 92.88 7.638-0.913 14.96-2.738 22.4-5.627 7.992-3.122 15.46-7.361 21.94-12.43l0.331 0.294 15.35-15.03c11.07-11.1 11.39-28.83 0.716-39.54z" style="fill:#7be4ff"/>
		
	
















</svg>
