<svg width="512" height="512" style="enable-background:new 0 0 512 512" version="1.1" viewBox="0 0 512 512" xml:space="preserve" xmlns="http://www.w3.org/2000/svg">

	<path d="m200 295.5v-32c0-8.837-7.163-16-16-16h-16v40l-16 16h-32v88h24l32 32h104v-112c0-8.837-7.163-16-16-16h-64z" style="fill:#fff"/>
	<polygon points="408 303.5 360 351.5 336 327.5 312 351.5 360 399.5 432 327.5" style="fill:#51CCB3"/>
	<polyline points="0 287.5 120 287.5 120 423.5 0 423.5" style="fill:#7be4ff"/>
	<polyline points="0 399.5 120 399.5 120 423.5 0 423.5" style="fill:#00c7fb"/>
	
		<rect x="80" y="384" width="16" height="15"/>
	
	<path d="m280 423.5h-24v-128h8c8.837 0 16 7.163 16 16v112z" style="fill:#00c7fb"/>
	
		<path d="m312 215.5v32c0 8.837 7.163 16 16 16h16v-40l16-16h32v-88h-24l-32-32h-88c-8.837 0-16 7.163-16 16v112h80z" style="fill:#fff"/>
		<polyline points="512 223.5 392 223.5 392 87.5 512 87.5" style="fill:#7be4ff"/>
		<polyline points="512 223.5 392 223.5 392 199.5 512 199.5" style="fill:#00c7fb"/>
		
			<rect x="416" y="184" width="16" height="15"/>
		
		<path d="m248 87.5h8v128h-24v-112c0-8.837 7.163-16 16-16z" style="fill:#00c7fb"/>
	
	<polygon points="176 167.5 200 191.5 176 215.5 152 191.5 128 215.5 104 191.5 128 167.5 104 143.5 128 119.5 152 143.5 176 119.5 200 143.5" style="fill:#FF809B"/>
	
		<path d="m360 340.9-24-24-34.61 34.61 58.61 58.61 82.61-82.61-34.61-34.61-48 48zm0 48-37.39-37.39 13.39-13.39 24 24 48-48 13.39 13.39-61.39 61.39z"/>
		<path d="m264 288.5h-57v-25c0-12.96-10.04-23-23-23h-24v43.89l-11.11 12.11h-21.89v-16h-127v15h112v121h-112v15h127v-32h13.89l32 32h114.1v-120c0-12.96-10.04-23-23-23zm8 128h-92.89l-32-32h-20.11v-73h28.11l19.89-20.89v-35.11h9c4.686 0 8 3.314 8 8v40h72c4.686 0 8 3.314 8 8v105z"/>
		<path d="m512 95.5v-15h-128v32h-12.89l-32-32h-91.11c-12.96 0-24 10.04-24 23v120h80v24c0 12.96 11.04 24 24 24h23v-44.89l12.11-11.11h20.89v16h128v-15h-113v-121h113zm-155.1 105-20.89 19.89v36.11h-8c-4.686 0-9-4.314-9-9v-39h-80v-105c0-4.687 4.314-8 9-8h84.89l32 32h19.11v73h-27.11z"/>
		<path d="m128 226.1 24-24 24 24 34.61-34.61-24-24 24-24-34.61-34.61-24 24-24-24-34.61 34.61 24 24-24 24 34.61 34.61zm-13.39-82.61 13.39-13.39 24 24 24-24 13.39 13.39-24 24 24 24-13.39 13.39-24-24-24 24-13.39-13.39 24-24-24-24z"/>
	
















</svg>
