<svg style="enable-background:new 0 0 464 464" version="1.1" viewBox="0 0 464 464" xml:space="preserve" xmlns="http://www.w3.org/2000/svg">
<g style="fill:#7be4ff">
	<g style="fill:#7be4ff">
		<path d="m230.7-7.967c-25.96 0.6376-47.12 18.41-64.92 35.52-16.25 17.47-37.88 29.08-61.09 34.51-22.74 6.957-47.7 16.52-60.1 38.3-12.3 22.35-7.526 49.11-1.723 72.65 5.05 21.12 7.023 43.53 0.995 64.73-5.149 23.99-12.09 50.53-1.135 73.99 7.105 14.61 20.2 25.57 34.73 32.38-14.36 18.56-29.21 36.78-42.99 55.75-5.782 7.892-1.31 19.48 7.479 22.87 8.194 3.804 16.92-1.208 25.36-1.017 11.04-1.379 22.08-2.758 33.12-4.137 5.563 16.67 7.435 35.06 16.59 50.27 8.049 7.766 22.81 3.518 26.98-6.434 14.32-17.95 28.22-37.23 42.79-54.35 19.86 15.84 48.66 22.13 72.12 10.61 6.612-2.803 12.86-6.472 18.51-10.9 17.05 20.99 32.12 43.78 50.77 63.35 10.02 5.955 24.08-2.773 24.37-14.12 3.755-12.76 7.211-25.97 11.15-38.46 19.19 1.783 38.31 6.724 57.63 5.652 11.21-3.571 14.08-20.41 5.066-27.78-13.21-17.15-26.75-34.05-39.8-51.32 22.52-10.04 40.89-32.54 40.29-58.03 0.9599-33.39-16.99-65.6-8.696-98.73 4.706-25.8 14.1-53.2 4.757-79.11-8.657-23.02-31.98-36.29-54.43-42.98-22.84-7.3-47.76-13.99-64.43-32.17-18.84-17.52-39.09-37.75-66.01-40.74-2.46-0.2598-4.937-0.3631-7.41-0.3145zm1.943 32.03c21.53 1.994 35.65 20.55 50.82 33.8 19.72 18.86 45.44 29.75 71.53 36.52 14.11 4.549 30.74 10.13 37.49 24.54 6.666 18.63-1.834 37.96-4.799 56.46-5.024 24.17-4.783 49.42 1.768 73.28 3.655 16.53 9.157 34.77 1.799 51.11-10.05 15.78-29.86 19.25-46.3 24.84-24.08 7.188-47.44 18.57-65.04 36.88-13.78 12.66-27.77 28.79-47.65 30.43-20.37-0.7772-34.28-17.89-48.33-30.45-17.56-16.71-38.77-29.81-62.36-35.9-17.24-5.5-37.42-9.588-48.73-25.16-8.751-16.76-1.345-35.9 1.833-53.14 5.809-25.36 7.099-52.11 0.1804-77.4-3.701-17.2-9.916-36.15-2.59-53.22 9.484-15.67 29.12-19.49 45.22-24.86 24.49-7.2 48.33-18.59 66.25-37.17 14.12-12.83 28.29-29.72 48.9-30.56zm121.9 331.3c3.616 2.692 4.743 7.683 8.295 10.58 5.474 7.184 11.43 14.33 16.64 21.51-11.39-1.317-23.37-4.939-34.69-1.844-10.5 5.544-9.957 19.09-13.85 28.76-1.119 2.034-0.8634 9.502-3.303 4.98-8.596-11.44-18.56-22.82-26.19-34.4 14.63-14.34 33.11-24.96 53.1-29.59zm-244.3 0.2109c19.48 5.353 38.58 14.95 52.16 30.04-9.705 11.57-18.44 24-27.94 35.82-3.382-11.06-4.604-24.14-12.15-33.58-9.417-7.576-21.92-1.608-32.56-1.311-1.496-0.1177-7.504 2.084-4.797-0.1504 8.313-10.23 15.78-21.14 24.55-31.01z" style="fill:#7be4ff"/>
	</g>
</g>

	
		<path d="m230.1 62.01c-50.46 0.1175-99.42 28.89-124.4 72.67-27.24 45.82-26.1 106.6 2.882 151.4 26.49 42.59 76.12 69.42 126.3 67.91 50.71-0.4623 99.68-29.88 124.3-74.18 26.38-45.63 24.85-105.6-3.809-149.8-26.44-42.33-75.26-68.99-125.2-67.97zm1.873 19.99c43.58-0.5098 86.65 24.08 108.5 61.98 24.64 40.84 22.96 95.16-4.102 134.4-24.15 36.6-68.96 58.63-112.5 55.35-46.65-2.427-90.22-33.48-108-76.71-17.59-40.82-11.37-90.46 16.06-125.6 23.41-30.91 61.49-49.71 100-49.4z" style="fill:#fff"/>
	


	
		<path d="m324.3 174.6c-3.01-4.135-7.814-6.582-12.93-6.584h-48.98l-15.2-46.62c-2.759-8.395-11.8-12.96-20.2-10.2-4.829 1.587-8.617 5.375-10.2 10.2l-15.16 46.62h-49.02c-8.837-4e-3 -16 7.155-16.01 15.99-3e-3 5.12 2.445 9.931 6.584 12.94l39.65 28.8-15.14 46.62c-2.732 8.404 1.867 17.43 10.27 20.16 4.873 1.584 10.21 0.738 14.35-2.274l39.67-28.79 39.66 28.8c5.586 4.15 13.23 4.15 18.82 0 5.669-4.029 8.029-11.3 5.808-17.89l-15.14-46.62 39.65-28.8c7.145-5.2 8.721-15.21 3.52-22.35z" style="fill:#7be4ff"/>
	
















</svg>
