<svg width="1400px" height="1400px" enable-background="new 0 0 1400 1400" version="1.1" viewBox="0 0 1400 1400" xml:space="preserve" xmlns="http://www.w3.org/2000/svg">
<rect width="1400" height="1400" rx="166.1" ry="189.8" style="fill:#7be4ff"/>

	<ellipse cx="404.7" cy="1311" rx="264.8" ry="40.4" fill="#161616" opacity=".17"/>
	
		
			<polygon points="378.9 923.8 235.1 1013 235.1 899.6 300.6 875 370.4 848.9 378.7 845.8 378.8 845.7 378.8 847.8" fill="#A5301A"/>
			<polygon points="139.9 935.3 139.8 1013 235.1 1013 235.1 899.6" fill="#EE2A24"/>
			<polygon points="139.9 935.3 139.8 937.1 235.1 936.8 235.1 899.6" fill="#FBDBE9"/>
		
		<polygon points="282.2 845.6 139.8 935.2 235.1 935.2 378.9 845.6" fill="#D33F27"/>
		
			<polygon points="352.9 806.5 311.8 806.5 169 895.9 172.8 903 199.7 916.9 209.6 895.9" fill="#EF4123"/>
			<polygon points="209.6 895.9 199.7 916.9 225.8 930.4 235.1 915.8 378.7 826.4 352.9 806.5" fill="#B9392A"/>
			<polygon points="378.7 826.4 378.7 845.8 235.1 935.2 231.5 933.4 225.8 930.4 235.1 915.8 300.6 875" fill="#A5301A"/>
		
		<path d="m226.7 874.1c-1.8 0-3.2-1.8-3.2-3.9v-18.9c0-1.5 0.7-2.8 1.8-3.5l64.3-39.8c1-0.6 2.2-0.6 3.1 0.2 1 0.7 1.5 2 1.5 3.3v18.3c0 2.2-1.4 3.9-3.2 3.9s-3.2-1.7-3.2-3.9v-11.9l-57.9 35.8v16.5c0 2.2-1.4 3.9-3.2 3.9z" fill="#231F20"/>
		<polygon points="139.8 935.2 235.1 935.2 235.1 915.8 209.6 895.9 169 895.9 140 916.7" fill="#EE2A24"/>
		<polygon points="139.8 935.2 140.8 917.3 169.1 897.3 209 896.9 235.1 915.8 209.6 895.9 169 895.9 140 916.7" fill="#FBDBE9"/>
		<polygon points="378.8 845.7 378.8 847.8 235.4 937.1 139.8 937.1 139.8 933.4 234.7 933.4 235.1 933.2 370.4 848.9 378.7 843.7 378.7 845.8" fill="#600000"/>
		<path d="m211.4 894.6 140.1-87.1s-106.2 70.2-140.1 87.1z" fill="#FBDBE9"/>
		<path d="m373.6 173.9h18s3-10.6 1.9-11.4c-1.2-0.7-5.9-3.9-6.1-4.2s-6.2 5.1-6.2 5.1l-7.6 10.5z" fill="#1E1C1A"/>
		<path d="m530.2 312.2s-3.4 4-9.5 9.5c-7.3 6.5-18.6 15.2-32.8 21.8-12.5 5.8-27.2 10.1-43.6 10.1-20.8 0-37.8-6.6-50.6-14.5-8.5-5.2-15.1-10.9-19.8-15.6-5.6-5.6-8.5-9.6-8.5-9.6 5.8-5.6 25.1-16.6 34.9-26.3 1.4-1.4 2.6-2.8 3.6-4.1 1.2-1.7 2-3.3 2.2-4.8 0.3-2.1 0.4-5.2 0.4-9 0-2.1-0.1-4.4-0.1-6.8 0-0.9-0.1-1.7-0.1-2.6-0.6-14.9-2-32.3-2-32.3l75.1-22.6 8.2 18.5 1.3 15.7 1.7 20 0.4 5.3 0.2 3.1 1.1 13.4 0.8 9.5 0.1 0.7s14.8 10.5 34 19.1c1 0.6 2 1.1 3 1.5z" fill="#FFCEBB"/>
		<path d="m527.2 310.9c-19.2-8.6-34-19.1-34-19.1l-0.1-0.7-0.8-9.5-1.1-13.4-0.2-3.1-0.4-5.3-1.2-14.3-1.8-21.4-8.2-18.5-43.7 13.1-31.4 9.4s0.1 1 0.2 2.6c0.3 3.9 0.9 11.5 1.4 19.8 0.2 3.3 0.4 6.6 0.5 9.9 0 0.9 0.1 1.8 0.1 2.6 0.1 2.4 0.1 4.7 0.1 6.8 0 3.8-0.1 6.9-0.4 9-0.2 1.5-1 3.1-2.2 4.8-1 1.3-2.2 2.7-3.6 4.1-9.8 9.7-29.1 20.6-34.9 26.3 0 0 2.9 4.1 8.5 9.6 31.6-1.2 54.4 2.9 54.4 2.9l-26.9-15.9c-1.6-0.9-1.7-3.2-0.2-4.2l41.7-28.8c0.1-0.1 0.3-0.2 0.4-0.2l34.5-23.9s8.4 50.5 6.6 54.8-27.7 18.3-27.7 18.3 22.7-3.2 64-4.7c6.2-5.5 9.5-9.5 9.5-9.5-1.1-0.6-2.1-1.1-3.1-1.5z" fill="#D69687" opacity=".76"/>
		<path d="m393.3 191.5-4.6-1.7c-1.8-0.7-3.8 0.8-3.7 2.7l1.7 24.1c0.2 3.1 2.1 5.7 4.9 7l8 3.7c-0.1 0.1 1.4-24.1-6.3-35.8z" fill="#CC9181"/>
		<path d="m400.7 223.6-7.3-2.9c-0.3-0.1-0.6-0.3-0.9-0.4-2.1-1.1-3.4-3-3.6-5.1l-1.5-18.8c-0.1-1.5 1.7-2.7 3.4-2.1l4.3 1.3c1.5 1.9 2.6 4.3 3.4 6.8 3.1 9.5 2.2 21.2 2.2 21.2z" fill="#B27566"/>
		<path d="m404.9 222-7.4-2.3c-0.3-0.1-0.6-0.2-0.9-0.3-2.1-0.9-3.4-2.4-3.6-4.1l-1.5-15c-0.1-1.2 1.7-2.1 3.4-1.7l4.3 1.1c1.5 1.5 2.6 3.4 3.4 5.4 3.2 7.5 2.3 16.9 2.3 16.9z" fill="#93564A"/>
		<path d="m504.7 200.3c-1.9 4-5.5 11.9-7.9 17.9-3.4 8.5-11.7 7.6-11.7 7.6-1.8 1.6-14.6 20.8-22 31.9-0.9 1.3-1.9 2.5-3.1 3.5-3.2 2.8-7.3 4.4-11.7 4.4h-22.5c-4.8 0-9.3-1.9-12.6-5.3-0.7-0.7-1.3-1.4-1.8-2.2-3.9-5.5-8.9-12.4-12-16.7-1.9-2.6-2.9-5.7-3-8.9-0.1-15.3-1.6-29.5-3.7-41.8-3.6-21.1-5.2-36.7-7.8-43.7-0.1-0.2 0.1-0.6 0-0.8-0.7-2.4-4-4.9-2.4-6.9l9.2-11.1 0.9-11.4c0.2-2.8 1.7-5.3 3.9-6.9 4.6-3.3 12.5-8.7 17-10.3 6.6-2.3 42.6-10.8 60.4-1.6 10.9 5.6 19.6 17.5 24.8 26 1.5 2.5 2.8 4.7 3.7 6.4 1 1.8 1.3 3.8 1 5.8-1.6 12-3.6 51.5-3.6 51.5l1.7 2.9 2.7 4.6c1.2 1.5 1.3 3.5 0.5 5.1z" fill="#FFCEBB"/>
		<path d="m444.2 206.7-7.8-0.9-7.8 0.9s-4.9-1.5-3 2.8 6.3 9.6 11.1 9.6 9.2-5.3 11.1-9.6c1.9-4.4-3.6-2.8-3.6-2.8z" fill="#EDB2A2"/>
		<path d="m454.7 164.6s-9.6 0.9-12.2 6.7c-2.6 5.9 10.1-3 15.7-2.6 5.7 0.6-3.5-4.1-3.5-4.1z" fill="#D69383" opacity=".44"/>
		<path d="m504.5 195.1-2.7-4.6-1.7-2.9s2-39.5 3.6-51.5c0.3-2-0.1-4-1-5.8-0.9-1.6-2.1-3.9-3.7-6.4-1.8-1.6-3.2-2.8-3.6-3.1-1.9-1.4-18.6 0-18.6 0l-11.5 8.4-3.2 9.4s13.8 3.7 15.4 12.3v7.3c0 2.4-1.8 4.3-4.2 4.5l-12.2 0.9-3.9 5.3 7.1 0.4c2.5 0.1 4.6 1.6 5.8 3.7l1.8 3.5-16.6 0.7v1l-7.1 3.5s11.2 10 21.8 1.4c0.8-0.7 2.8-1.5 2.8-1.5 1.8-0.1 3.4-1.4 5.5-1.6 2.4-0.3 4.5 1.8 4.2 4.2l-1.3 12.5c-0.3 2.5-2 4.7-4.4 5.5l-3.8 1.3c-2.3 0.8-3.7 2.9-3.7 5.3 0.4 11 0.4 41.7-9.4 52.5 1.2-1 2.2-2.2 3.1-3.5 7.4-11.1 20.2-30.3 22-31.9 0 0 8.3 0.9 11.7-7.6 2.4-6 6-13.9 7.9-17.9 0.9-1.7 0.8-3.7-0.1-5.3z" fill="#EDB2A2"/>
		<path d="m458.9 186.5s-10.3-1-14.7-6.3c-4.3-5.3 7.2-7.1 7.2-7.1l7.5 13.4z" fill="#EDB2A2"/>
		<path d="m503.7 136.2c0 0.2-0.1 0.4-0.1 0.6-0.2 1.5-0.4 3.3-0.6 5.3-0.3 2.8-0.5 6-0.8 9.4-1.2 15.9-2.2 36.2-2.2 36.2l1.7 2.9-7.4 2.4-4.2-7.4-6.4-15.4c-1.2-2.9-1.8-6-1.8-9.1 0-1.1 0-2.6-0.1-4.3-2.2 0.5-4.3 0.9-6.3 1.2-44.8 7.2-68-19.2-68-19.2-1.1 1.4-1.8 3.2-1.9 5l-0.6 9c-0.2 2.9-1.1 5.7-2.7 8.2l-5.3 8.3c-2.1 3.3-3.3 7.1-3.6 11l-0.7 10.3c-3.6-21.1-6.5-36.8-9.2-43.9-1-2.6-2.8-5.4-1.1-7.5l9.2-11.1 0.2-2.2 0.1-0.9 0.7-8.2c0.2-2.8 1.7-5.3 3.9-6.9 4.6-3.3 12.5-8.7 17-10.3 6.6-2.3 42.6-10.8 60.4-1.6 10.2 5.3 18.7 16.2 23.9 24.5 2 3.1 3.5 5.9 4.6 7.9 1.2 1.8 1.5 3.8 1.3 5.8z" fill="#33302B"/>
		<path d="m503.7 136.2c0 0.2-0.1 0.4-0.1 0.6-0.2 1.5-0.4 3.3-0.6 5.3-0.3 2.8-0.5 6-0.8 9.4-1.2 15.9-2.2 36.2-2.2 36.2l1.7 2.9-7.4 2.4-4.2-7.4-6.4-15.4c-1.2-2.9-1.8-6-1.8-9.1 0-1.1 0-2.6-0.1-4.3 0 0 28.7-5.2 16.3-34 0-0.1-0.1-0.2-0.1-0.2 2 3.1 3.5 5.9 4.6 7.9 1 1.7 1.3 3.7 1.1 5.7z" fill="#1E1C1A"/><g fill="#EDB2A2">
		<path d="m419.3 180.3-0.3-0.6-11.8 0.2 0.1-3c0.1-2.2 1.6-4.1 3.8-4.5l6.5-1.3 0.1-2.5-1.2-1.8-9-2.2c-2.4-0.6-4-2.9-3.6-5.4l0.4-2.6-7-7.4-6.2-2.9-7.5-1.4 1.8 0.5c0.1 0.2 0.1 0.4 0.2 0.5 2.6 7 3.6 23.7 7.2 44.9 2.1 12.3 3.6 26.5 3.7 41.8 0 3.2 1.1 6.3 3 8.9 3.1 4.3 8.1 11.2 12 16.7 0.6 0.8 1.2 1.5 1.8 2.2-8.9-11.8-7.5-42.1-6.8-52.2 0.1-2-1.1-3.8-3-4.3l-0.6-0.2c-2-0.6-3.5-2.3-3.9-4.3l-2.1-11.9c-0.3-1.9 1.2-3.6 3.1-3.6 2.4 0.1 4.6 0.1 6.5 0.1-0.5-0.4-1.1-0.8-1.7-1.3 0.1 0 8.7-2.2 14.5-2.4z"/>
		<path d="m420 180.3c-6.1 0.2-15.1 2.4-15.1 2.4 0.6 0.5 1.2 0.9 1.8 1.3 13.5 9.1 17-3.4 17-3.4-0.9-0.7-1.5-0.3-3.7-0.3z"/>
		<path d="m409.5 185.6s-5.1-1.7-7.6-1.7-2.5-2.1-2.5-2.1 5.1-1.7 5.4-1.7c0.2 0 3.3-0.1 3.4 0.1s2.9 0.8 3 1.2-1.7 4.2-1.7 4.2z"/>
		</g><path d="m445.6 169.5c2-2.1 4.7-3.4 7.3-4.3 2.7-0.9 5.5-1.4 8.3-1.6s5.6 0 8.4 0.5c1.4 0.2 2.7 0.6 4.1 1 1.3 0.5 2.7 1 3.9 1.7-1.4 0.4-2.8 0.6-4.1 0.8-1.4 0.2-2.7 0.4-4 0.5-2.7 0.3-5.3 0.4-7.9 0.6l-16 0.8z" fill="#33302B"/>
		<path d="m418 167.1c2.3 0.8 8.9 1.5 8.6 4.8s-2.9-0.1-9.1-0.8c-6.3-0.8 0.5-4 0.5-4z" fill="#D69383" opacity=".44"/>
		<path d="m424.1 170.8c-1.2-0.1-2.3 0-3.4 0.1s-2.2 0.1-3.3 0.2c-2.2 0.1-4.3 0.1-6.5 0s-4.4-0.3-6.6-0.7-4.4-0.9-6.7-2c2.2-1.1 4.4-1.7 6.7-2 2.3-0.4 4.5-0.5 6.8-0.4s4.5 0.5 6.8 1.1c1.1 0.3 2.2 0.8 3.3 1.3 0.5 0.3 1.1 0.6 1.6 1s1.1 0.8 1.3 1.4z" fill="#33302B"/><g fill="#D69383">
		<path d="m449.8 210.6c1.8 0.4 3.3 1.1 4.7 2 1.4 0.8 2.7 1.9 3.9 3 1.1 1.2 2.2 2.4 3 3.8s1.5 2.9 1.6 4.6l-0.2 0.1c-1.7-2.6-3.8-4.9-6.1-7.1-2.2-2.2-4.6-4.3-7.2-6.2l0.3-0.2z"/>
		<path d="m424.6 210.7c-2 2.8-4.3 5-6.6 7.3-2.3 2.2-4.6 4.3-7 6.7 0.2-1.7 0.9-3.3 1.8-4.8s2-2.7 3.2-3.9 2.5-2.2 4-3.1c1.4-0.9 2.9-1.7 4.6-2.2z"/>
		<path d="m428.1 227.4c1.7 0.1 3.2 0.3 4.6 0.4 1.4 0.2 2.8 0.3 4.1 0.3 1.3 0.1 2.6 0 4-0.1s2.8-0.3 4.5-0.6c-0.7 1.6-2.1 2.7-3.6 3.5s-3.3 1.2-5 1.1-3.4-0.6-4.9-1.3c-1.4-0.8-2.8-1.8-3.7-3.3z"/>
		</g><path d="m437.5 265.7h-2.4c-0.2-1.2-0.3-2.3-0.4-3.4-0.2-1.9-0.3-3.7-0.3-5.6-0.1-3.7 0-7.4 0.3-11.1 0.2 3.7 0.5 7.3 1 11 0.2 1.8 0.5 3.6 0.9 5.4 0.2 1.2 0.5 2.5 0.9 3.7z" fill="#E2A491"/>
		<path d="m416.9 218.5c1.7 0.7 3.4 1.1 5.1 1.4 1.7 0.4 3.4 0.6 5.2 0.7 1.7 0.1 3.5 0.3 5.2 0.3l2.6 0.1h2.6c3.5 0 7-0.1 10.4-0.4 1.7-0.2 3.5-0.4 5.2-0.7s3.4-0.7 5.1-1.4l0.1 0.2c-1.5 1.2-3.2 1.9-4.9 2.5s-3.5 1.1-5.2 1.4c-3.5 0.7-7.1 1-10.7 1s-7.2-0.3-10.7-1c-1.8-0.3-3.5-0.8-5.2-1.4s-3.4-1.4-4.9-2.5l0.1-0.2z" fill="#353334"/>
		<path d="m504.7 200.3c-1.9 4-5.5 11.9-7.9 17.9-3.4 8.5-11.7 7.6-11.7 7.6 0.8-3.6 1.3-24.6 1.5-32.9 0-2.2 0.8-4.3 2.2-6l1.2-1.4c6.3-4.9 10 2.1 10 2.1l4.4 7.4c1 1.7 1.1 3.7 0.3 5.3z" fill="#DB9A8A"/>
		<path d="m452 171.7c1.2-0.9 2.6-1.5 4-2s2.9-0.7 4.3-0.8h2.2c0.7 0.1 1.5 0.1 2.2 0.3 1.5 0.2 2.9 0.7 4.2 1.5v0.1c-1.4-0.3-2.8-0.5-4.2-0.6s-2.8-0.1-4.2 0c-2.8 0.2-5.6 0.7-8.3 1.6l-0.2-0.1z" fill="#D69383"/>
		<path d="m422.6 173.5c-1.3-0.4-2.6-0.6-3.8-0.7-1.3-0.1-2.6-0.2-3.8-0.3-1.3-0.1-2.6 0-3.9 0l-2 0.1c-0.7 0-1.3 0.1-2 0.1 1.2-0.5 2.5-0.9 3.8-1.1s2.7-0.4 4-0.3c1.3 0 2.7 0.2 4 0.6 1.4 0.3 2.7 0.8 3.7 1.6z" fill="#D69383"/>
		<path d="m407.5 138.8c-1.1 1.4-1.8 3.2-1.9 5l-0.6 9c-0.2 2.9-1.1 5.7-2.7 8.2l-5.3 8.3c-0.1 0.2-0.3 0.5-0.4 0.7-1.9 3.2-2.9 6.7-3.2 10.3l-0.7 10.3c-0.7-4.3-1.5-8.4-2.4-12.2-1.2-5.6-2.5-10.7-3.8-15.1-2.1-7.4-0.7-12-2-15.5-1-2.6-0.5-5.5 1.3-7.6l5.9-12.1 0.2-2.2c0.4 1.4 2.6 4.4 13 10.1 1.1 0.6 2 1.6 2.6 2.8z" fill="#1E1C1A"/>
		<path d="m491.6 220.9s0.9-3.8-1.2-6.7c-0.4-0.6-1-1.2-1.7-1.7 0 0-1.1-13.8 0.6-20.5 0.5-2 1.3-3.3 2.5-3.5 5-0.7 9.7 3.3 10.4 8.9 0.7 5.5-5.6 18.3-10.6 23.5z" fill="#C67D6F"/>
		<path d="m496.2 203.4c-1.2 4.8-3.6 8.3-5.8 10.7-0.4-0.6-1-1.2-1.7-1.7 0 0-1.1-13.8 0.6-20.5s9.5 0.9 6.9 11.5z" fill="#A05A50"/>
		<path d="m449.1 181.5c0.6 0.5 1.4 0.8 2.2 0.9 4.5 0.4 19.3 1.3 20.8-2.9 0 0-1.3-1.9-2.6-3.7-0.6-0.9-1.3-1.6-2.2-2.1-1-0.6-2.2-0.9-3.4-0.9l-12.5 0.2s-1.5 0.9-2.9 2.6c-1.5 1.9-1.2 4.5 0.6 5.9z" fill="#fff"/>
		<path d="m453.4 175.1c0.1 3.9 3.3 7 7.1 6.9s7-3.3 6.9-7.1c0-0.4-0.1-0.8-0.1-1.1-1-0.6-2.2-0.9-3.4-0.9l-10.3 0.2c-0.1 0.6-0.2 1.3-0.2 2z" fill="#23201D"/>
		<path d="m472.1 179.5c-0.6-2-1.7-4-3.3-5.6-0.8-0.7-1.9-1.4-3-1.7-0.6-0.2-1.2-0.2-1.8-0.3h-1.6c-4.2 0-8.4 0.2-12.7 0.6h-0.1c-0.7 0.4-1.4 0.9-2 1.4s-1.1 1.2-1.3 2c0.8-1.3 2.3-1.9 3.7-2.4h-0.2c4.2 0.3 8.5 0.3 12.7 0.2l1.6-0.1c0.5 0 0.9 0 1.4 0.1 0.9 0.2 1.8 0.6 2.6 1.2 1.5 1.2 2.8 2.9 4 4.6z" fill="#3A2725"/>
		
			<ellipse transform="matrix(.9998 -.01763 .01763 .9998 -3.038 8.197)" cx="463.4" cy="176.4" rx="1.9" ry="1.9" fill="#fff"/>
		<path d="m403.2 182.3c0.6 0.5 1.3 0.7 2 0.8 4 0.3 17.1 1.1 18.4-2.5 0 0-1.2-1.7-2.3-3.3-0.5-0.8-1.2-1.4-2-1.8-0.9-0.5-1.9-0.8-3-0.8l-11.1 0.2s-1.3 0.8-2.6 2.3c-1.2 1.5-1 3.9 0.6 5.1z" fill="#fff"/>
		<path d="m407.1 176.6c0.1 3.4 2.9 6.2 6.3 6.1s6.2-2.9 6.1-6.3c0-0.3 0-0.7-0.1-1-0.9-0.5-1.9-0.8-3-0.8l-9.1 0.2c-0.2 0.6-0.3 1.2-0.2 1.8z" fill="#23201D"/>
		<path d="m423.6 180.6c-0.5-1.8-1.5-3.6-3-4.9-0.7-0.7-1.6-1.2-2.7-1.5-0.5-0.2-1-0.2-1.6-0.2h-1.4c-3.7 0-7.5 0.2-11.2 0.5h-0.1c-0.7 0.3-1.2 0.8-1.7 1.2-0.5 0.5-1 1.1-1.1 1.8 0.7-1.2 2.1-1.7 3.2-2.1h-0.2c3.7 0.2 7.5 0.3 11.2 0.1h1.4c0.4 0 0.8 0 1.2 0.1 0.8 0.2 1.6 0.5 2.3 1 1.5 1 2.7 2.4 3.7 4z" fill="#3A2725"/>
		
			<ellipse transform="matrix(.9998 -.01764 .01764 .9998 -3.072 7.365)" cx="415.9" cy="177.8" rx="1.7" ry="1.7" fill="#fff"/>
		<path d="m487.2 178.7c-0.6 7.4-3.3 13.5-5.9 17.8-2.9 4.7-5.8 7.4-5.8 7.4-1.7 1.3-3.5 2.6-5.5 4.1-6 4.4-7.4 14.9-7.4 14.9s-12.8-14.8-17.5-14.4-5.5 3.3-8.5 3.4-3.8-2.8-8.3-2.8c-4.5-0.1-16.3 14.8-16.3 14.8s-1.3-9.9-6.6-13.7c-5.3-3.7-9.8-7-10.4-9-0.3-0.9-0.7-2.4-1.2-3.4-0.2 2.3-0.8 13.2 0.4 25.9 0.6 6.1 0.7 9.8 1.2 13.2 0.8 4.7 2.4 9 7.2 18.1 0.8 1.5 1.7 2.9 2.5 4.1 4.1 6.3 11.9 10.2 15.9 13.1 5.4 3.9 11.3 4.8 16.5 5 5.3 0.3 11.4 0 17.1-3.6 4.3-2.7 13-6.1 17.7-12.5 4.8-6.5 10.1-16.5 12.2-24.8 2.1-8.4 3.2-22.5 3.5-24.6 1.8-10.4 2.1-26.2 2.1-26.2l-2.9-6.8zm-50.6 41.9c15.2-0.3 19.8 10.5 19.8 10.5-3.5 5.3-11.6 8-12 4.5s-4.4-5.1-7.8-5.1-7.3 1.7-7.7 5.2-8 0.9-11.3-4.2c0 0.1 4.3-10.5 19-10.9z" fill="#33302B"/>
		<path d="m447.6 251.5c-4-1.2-7.4-2.9-10-2.9-6.3 0-13.1 7-22.7 7-7.7 0-16.5-8.6-19.5-18.8 0.8 4.7 2.4 9 7.2 18.1 0.8 1.5 1.7 2.9 2.5 4.1 4.1 6.3 11.9 10.2 15.9 13.1 5.4 3.9 11.3 4.8 16.5 5 5.3 0.3 11.4 0 17.1-3.6 4.3-2.7 13-6.1 17.7-12.5 4.8-6.5 10.1-16.5 12.2-24.8 0.1-0.3 0.1-0.5 0.2-0.8-11.3 28.7-37.1 16.1-37.1 16.1z" fill="#1E1C1A"/>
		<path d="m448.1 208.7s1.1-4.1-1.4-4.1l-5.2 1.6 1.8 1.4 4.8 1.1z" fill="#EDB2A2"/>
		<path d="m425.2 208.3s-1.2-2.1 0.9-4.3 4.4 2.6 4.4 2.6l-5.3 1.7z" fill="#EDB2A2"/>
		<path d="m428.1 175.8s7.1 5.8 5.1 15c-1.1 5-2.3 8.7-3.1 11-0.5 1.5 0.6 3.1 2.2 3l14.5-0.2-8.8 5.4c-0.8 0.5-1.7 0.5-2.5 0.1l-8-3.6c-1.2-0.5-1.7-2-1.1-3.1 2.8-5.5 9.5-20.4 1.8-27" fill="#9B5B4E"/>
		<path d="m481.9 156.8s-33.3 4-50.7-13.4l50.7 13.4z" fill="#FFCEBB"/>
		<path d="m277.8 821.5c-0.6 7.8-2.9 10.7-2.9 10.7l0.3 8.3c0.2 6-4.5 11-10.5 11.2-3.8 0.1-7.7-0.1-10.2-0.7-5-1.3-16.9-33.6-21.1-45.4-1-2.8-1.2-5.8-0.6-8.7 2.1-9.9 7-34.4 8.4-48.8 0.3-3.1 0.4-5.7 0.3-7.6 0-0.7-0.1-1.5-0.1-2.4 16.7-0.6 39.5-8.3 39.5-8.3-0.1 2.5-0.2 5-0.3 7.3-1.6 44.6 2 58 2 58-2.9 2.7-4.2 18.6-4.8 26.4z" fill="#FFB5A4"/>
		<path d="m341.5 564c0 0.9-0.1 1.8-0.1 2.7-0.7 1.6-1.6 3.3-2.4 5-2.2 4.5-4.8 9.3-6.9 13.3-2.9 5.3-5.1 9.1-5.1 9.1s1.3 20.7 1.7 23.6-7.6 0-7.6 0c0.4 2.5 0.4 5.4-0.1 8.4v0.1c-0.1 0.3-0.1 0.6-0.2 0.9s-0.1 0.6-0.2 1c-0.3 1.4-0.7 3-1.1 4.5-7.2 24.6-33 57.9-34.9 60.8 0 0-29.1 7.8-45.5 3.4-0.5-10.1-0.8-18.9-0.4-22.5 1-9.4 10-37.2 18.1-60.4 8.1-23.1 10-66.8 14.5-83s15.2-160.1 15.2-170.9 8.7-28.1 11.3-31.4c2.4-3.2 28.9-15.7 32-17.1 0.2-0.1 0.3-0.1 0.3-0.1 0.4 8.6 0.7 25.2 0.8 43.9 0.2 35.2-0.4 78.1-1.7 89.8-2.1 18.6 3 58.7 9.9 88.9 2 8.9 2.6 19.4 2.4 30z" fill="#DBDBD9"/>
		<path d="m332.1 585c-2.9 5.3-5.1 9.1-5.1 9.1s-18.1-48.6-34.6-64.7c-0.1 0 31.1 18.5 39.7 55.6z" fill="#282828" opacity=".22"/>
		<path d="m321 617.7s-15.4-16.8-28.7-23.6c0 0 26-5.6 28.7 23.6z" fill="#282828" opacity=".22"/>
		<path d="m668 579.2c-4.4 10.6-13.3 23.4-22.7 34.7-0.2 0.2-0.4 0.5-0.6 0.8-2.3 2.7-4.6 5.3-6.9 7.8-7.8 8.4-15.4 15.1-20.6 17.9-13.6 7.4-29.5 24.6-39.8 34.8 0.3-10.5 3.3-23 3.9-26.7 0.5-3.2-13.1 1.1-19.8-9-5-7.6-6.9-14.3-6.9-14.3s3-23 3.1-29.3c0.1-5.3 0.4-10.1 1.6-9.8 1.5 0.4 7.4-0.2 12-2.9 1.2-0.7 2.4-1.6 3.4-2.7 0.2-0.2 0.4-0.5 0.6-0.7 0.6-0.8 1.1-1.7 1.4-2.7 0.4-1 0.6-2 0.7-3.2 0.5-7.7-10.7-16.7-17.3-24.3-2.8-3.2-4.8-6.2-4.8-8.7 0-0.8 0.1-1.5 0.3-2.3 1-4.7 4.2-9.8 7-14 2-3 3.7-5.5 4.2-7 0.4-1.1-0.4-6.2-1.7-12.9-3.1-16.2-9.3-41.6-9.3-41.6 18.3-37.7 46.3-92.9 48.2-96.3 1-1.8 2.3-2.5 3.7-2.8 0.5-0.1 0.9-0.3 1.3-0.5 1-0.6 1.5-1.8 1.5-3v-0.3c9.5 16 35.6 128.2 36.6 138.9 0.8 8.6 15.7 50.6 21.4 66.4 1.5 4.4 1.4 9.3-0.5 13.7z" fill="#DBDBD9"/><g fill="#282828">
		<path d="m598.4 556.2c-3.6 4.9-17.2 15-21.7 20.7 0.4-1 0.6-2 0.7-3.2 0.6-11-22.3-24.6-22.1-33 0-0.8 0.1-1.5 0.3-2.3 0 0 0.8 11.4 19.6 9.7 18.7-1.6 27.4 2.3 23.2 8.1z" opacity=".22"/>
		<path d="m559.2 586s46.3 0.3 54.3-9.1c0.1 0-32.9 35.6-54.3 9.1z" opacity=".22"/>
		<path d="m565 504.5c-3.1-16.2-9.3-41.6-9.3-41.6 18.3-37.7 46.3-92.9 48.2-96.3 1-1.8 2.3-2.5 3.7-2.8 0.5-0.1 0.9-0.3 1.3-0.5-6.5 18.8-21 61.4-31.1 92.7-5 15.7-9 28.5-10.2 34-1 4.1-1.8 9.1-2.6 14.5z" opacity=".22"/>
		</g><path d="m607.6 363.9c-1.3 0.3-2.7 1-3.7 2.8-1.9 3.4-29.9 58.6-48.2 96.3-7.2 14.9-12.8 27-14.8 32.2-1 2.7-2.1 5.9-3.1 9.3-5.6 18.3-11.6 44.2-12.7 49-0.1 0.5-0.1 1 0 1.5 1.2 5.6 8.6 40.8 11.2 58.9-12.6 14.8-24.2 19.3-39.8 23.8-6.8 2-25.6 2.6-47.5 2.6-18 0-38.1-0.5-55.4-1-23.3-0.7-41.5-1.5-42.7-1.5-3.2 0-13.4-19.5-13.7-20.1 0.5-14.4 8.1-56.2 1.8-83.6-3.8-16.5-7-36-8.9-53.3-1.5-14.3-2-27.1-1.1-35.5 2.1-18 2.2-108.8 1-133.7 0-1.4 0.7-2.6 1.8-3.3 1.2-0.7 3.6-1.7 7-3.1 6.4-2.6 16.2-6.3 26.5-10.1 9.2-3.5 18.9-7.1 26.9-10.4 5.6-2.2 10.4-4.3 13.8-5.9l35.4 28 21.6-14.7 28.9-19.7c2.3 2.8 5.1 5.3 8.3 7.2 0.8 0.5 1.6 0.9 2.4 1.4 0.4 0.2 0.7 0.4 1.1 0.6 4 2.4 8.6 5.1 13.6 8 8 4.7 17 10 25.6 15 2.3 1.3 4.6 2.7 6.8 4 13.1 7.6 24.7 14.2 30.4 17.3 14.2 7.6 25.4 23.6 29.9 33.2 1 1.8-0.2 4.3-2.4 4.8z" fill="#DBDBD9"/><g fill="#282828">
		<path d="m439.4 1269c-0.3 0.6-0.7 1.2-1.1 1.7-0.3 0.4-0.8 0.7-1.2 1-7.7 3.6-74.3 35.1-87.3 35.9-9.4 0.6-25.4-1.9-34.5-3.5-4-0.7-6.9-4.2-6.9-8.2 0-3.3 2-6.3 5-7.7 10.9-4.8 36.5-16.7 42.1-26.1 0.5-0.9 0.6-1.9 0.3-2.9 0 0 17.2 5.6 31.9 14.7 11.1 6.8 38.7-0.7 51.7-4.9z"/>
		<path d="m591.4 1303c-1.5 1.8-11.8 8.4-17.9 12.3-2.9 1.8-6.3 2.8-9.7 2.8h-19.8c-6 0-11.5-2.9-15-7.8l-5.4-7.8c-0.7-1.1-0.9-2.4-0.3-3.6l4.9-10.8c0.4-0.8 0.4-1.7 0.2-2.4 0 0 5.6 3.5 10.4 0s16-10.4 28.9-5.2c6.7 2.7 15 4.4 21.6 5.4 0 0.2 0.1 0.4 0.1 0.5 1 3.8 3.8 14.5 2 16.6z"/>
		<path d="m555.2 695.8c-27.1-11.2-33-69-33-69s0 0 0 0c4.7-3.2 9.3-7.3 14.1-12.8 0.4 2.5 0.6 4.6 0.8 6.3 1.1 13.4 12.6 57.2 18.1 75.5z" opacity=".22"/>
		</g><path d="m281 729.6 6.2-3.2s-4.8-29.5-2.6-33c0 0-29.1 7.8-45.5 3.4 0.7 14.5 1.9 31.9 2.4 41.1 16.7-0.6 39.5-8.3 39.5-8.3z" fill="#383838"/><g fill="#282828">
		<path d="m274.9 832.2c0 0.1-0.3 0.6-0.9 1.2-1.4 1.5-4.6 3.7-10.9 3.3-1.2-0.1-2.2-0.7-3.1-1.6l-0.1-0.1c-1.3-1.6-2.2-4.1-2.6-7-0.2-1.1-0.3-2.2-0.3-3.4-0.4-8.4 1.5-18.8 3.9-22.9 3.8-6.5 0.6-22.8 0.1-25.5 0.6 2 3.4 12.1 5.1 16.5 1.8 4.4-2 16.4-2.9 27.8-0.1 1.2-0.1 2.4-0.2 3.6v0.4c0 3.7 1.2 5.9 2.8 7 2 1.5 4.7 1.5 6.6 1.2 1.4-0.2 2.4-0.5 2.5-0.5z" opacity=".22"/>
		<path d="m341.5 564c-0.3-29.6-37.9-78.4-25.3-101.1 12.4-22.4 14.5-100.8 14.7-107.6 0.2 35.2-0.4 78.1-1.7 89.8-2.1 18.6 3 58.7 9.9 88.9 2 8.9 2.6 19.4 2.4 30z" opacity=".22"/>
		<path d="m285.1 680.3c6.2-18.1 29.9-34.6 34.9-50.1-0.1 0.7-0.3 1.5-0.5 2.4-7.2 24.6-33 57.9-34.9 60.8 0 0-29.1 7.8-45.5 3.4-0.1 0 39.5 2.5 46-16.5z" opacity=".22"/>
		</g><path d="m320.8 627.1c-0.1 0.3-0.1 0.6-0.2 1-0.2 0.7-0.3 1.4-0.6 2.1 0.5-1.9 0.8-3.4 1-4v-0.1c0.1-0.6 0-0.4-0.2 1z" fill="#EAEAEA"/>
		<path d="m281 729.6c-0.1 2.5-0.2 5-0.3 7.3-12.2 7.6-28.8 10.2-39.4 11 0.3-3.1 0.4-5.7 0.3-7.6 0-0.7-0.1-1.5-0.1-2.4 16.7-0.6 39.5-8.3 39.5-8.3z" fill="#282828" opacity=".22"/>
		<path d="m332.5 1284s16.5 5.4 49.5 0.1c0 0-36.1 16.5-67.4 5.2l17.9-5.3z" fill="#fff" opacity=".19"/>
		<path d="m529.7 1294-3.2 4.8s4.6 9.1 24.3 9 36.8-5.3 35.2-12.1c0 0-2.3 8.1-16.5 6.8-14.3-1.3-32.4 2.7-39.8-8.5z" fill="#fff" opacity=".19"/><g fill="#383838">
		<path d="m597.2 655.6c-2.9 4.7-8.4 8.7-11.8 12.7-8.3 9.8-17.8 16.3-17.8 16.3-0.8 0.5-1.5 1-2.3 1.5 1-5.6 0-11-0.3-14.3-0.5-6.3-18.3-39.7-18.3-39.7s0 0 0-0.1l2.8-2.4 5.2-4.5c21.9 3.1 36.9 19.5 42.5 30.5z"/>
		<path d="m441.5 306.7-8.6-1.1c-5.7-0.7-11.3 1.9-14.4 6.7l-11.5 17.8-14.8-45.5c5.6-2.2 10.4-4.3 13.8-5.9l35.5 28z"/>
		<path d="m503.8 281.4-26.2 48.6-12.6-18.2c-3.2-4.6-8.6-7-14.1-6.3l-9.4 1.1 21.6-14.7 28.9-19.7c2.3 2.8 5.1 5.3 8.3 7.2 1.1 0.7 2.2 1.3 3.5 2z"/>
		</g><path d="m599.6 1248c-4.1-25.7-10.2-108.4-11.8-129.1-1.9-23.9-21.4-354.4-21.4-376.4s-5.2-29.8-9.1-40.5c-3.3-9.3-15.1-52.2-19-73.7-0.1-0.4-0.1-0.7-0.2-1-0.5-2.9-0.9-5.4-1-7.3-0.1-1.7-0.4-3.9-0.7-6.3-0.7-4.6-1.6-10.3-2.7-16.3-1.2-6.8-2.6-14.1-4-20.7-2.1-10.5-3.9-19.3-4.5-21.9-0.1-0.5-0.1-1 0-1.5 1.1-4.8 7-30.7 12.7-49-1.2-8.1-2.3-17.1-3.4-26.2-4.6-39.3-8-82.8-8-82.8s-1.6-81.4 16.5-91.1c-8.6-5-17.5-10.2-25.6-15 0 0-16.9-2.5-24.8 109.7-20 1.8-45.8 3.7-68.5 3.7-6.7 0-13.2-0.2-19.1-0.5-15.8-1-29-2.2-39.5-3.2-3.3-29.5 0-104.1 0-104.1-10.3 3.9-20 7.5-26.5 10.1-5.4 34-3.3 90.4-3.3 90.4-2.9 19.3-5.4 84.2-5.4 85.2 1.8 17.3 5.1 36.8 8.9 53.3 2.4 10.6 2.8 23.4 2.2 35.9-0.4 10.5-1.5 20.9-2.4 29.6-0.8 7.7-1.5 14-1.7 18.2 0 1.4 0 2.6 0.1 3.4 0.4 3.1-0.8 8.6-2.8 14.9-4.1 13.2-11.4 29.7-13.2 33.5-2.6 5.6 9.9 104.4 15.1 138s28.9 381.7 27.6 400.3c-0.4 6-0.9 9.7-1.3 12.3-0.1 0.6-0.2 1.1-0.3 1.6-0.6 3.9-0.8 4.7 0.2 9.9 0.8 4.1 0.1 5.9-1.4 6.9-1.6 1.1-4.1 1.3-6.4 2.6-3.6 2.1-0.3 14.1 0.9 18.1 0 0 4.5 1.5 10.9 4.1 6.1 2.5 13.8 6.1 21 10.6 11 6.8 38.6-0.7 51.6-4.9 8.6-16.7-0.7-77.9 0.1-86.9 0.7-8-3.7-177-5.2-265.7v-0.1c-0.3-16.8-0.4-30.6-0.4-40 0-47.3 4.4-109.8 6.2-132.8 0.3-3.4 4.4-4.4 6.4-2 0.2 0.3 0.3 0.5 0.3 0.5 13.5 22.8 23.7 79.6 26.3 94.7 3 17.3 6.5 68.1 15.1 117.3s25.9 289.9 27.2 296.3c0.2 1 0.5 1.7 1 2.4 2.6 3.8 8.9 3.6 9.3 8.4 0.3 3.7-3.1 7.5-5.4 10.3-1.2 1.5-2.1 2.8-2 3.5 0.3 1.6 5.8 6.7 8.8 9.5 0.5 0.5 0.9 1.1 1.1 1.8 0 0 5.6 3.5 10.4 0 3.3-2.4 9.6-6.4 17.5-7 2.2-0.2 4.5-0.1 6.9 0.4 1.5 0.3 3 0.7 4.5 1.3 6.7 2.7 15 4.4 21.6 5.4-0.1-0.6 0-1.2 0.3-1.8l8.1-19.8c2.4-5.4 3-11 2.2-16.5z" fill="#144681"/><g fill="#282828">
		<path d="m538.3 628.5c-16.1 6.9-43.9 15.7-83.6 18.2-18.8 1.2-40.3 1-64.5-1.6-17.2-1.8-35.7-4.8-55.6-9.2 1.9-6.3 3.2-11.8 2.8-14.9-0.1-0.8-0.1-2-0.1-3.4 0.1-4.1 0.9-10.5 1.7-18.2 1.4 0.5 24.4 8.5 51.7 12.3 9.3 1.3 19 2.2 28.6 2.1 9.3 0 20.6-1 32.5-2.4 38.1-4.5 81.8-13.9 81.8-13.9 1.1 6 2.1 11.7 2.7 16.3 0.4 2.5 0.6 4.6 0.7 6.3 0.2 1.9 0.5 4.4 1 7.3 0.1 0.5 0.2 0.8 0.3 1.1z"/>
		<path d="m599.6 1248c0.9 5.5 0.2 11.1-1.9 16.2l-8.1 19.8c-0.2 0.6-0.3 1.2-0.3 1.8-6.6-1-14.9-2.7-21.6-5.4-1.5-0.6-3-1.1-4.5-1.3l4.7-25.6c2-11.1 2.7-22.4 2-33.6-5.6-91.1-31.8-518.4-34.5-518.7-3.1-0.3-13.1-13-13.1-13-30.5 0.7-23.7-14.2-37.1-23.5-13.3-9.3 28.8-39 28.8-39l-15.6-0.8c29.1-6.8 31.2-48.2 31.2-48.2 2.5 12.4 5.3 27.2 6.7 37 0.4 2.5 0.6 4.6 0.7 6.3 0.2 1.9 0.5 4.4 1 7.3 3.7 21.1 15.8 65.2 19.2 74.7 3.9 10.8 9.1 18.5 9.1 40.5s19.4 352.4 21.4 376.4c1.7 20.8 7.8 103.4 11.9 129.1z" opacity=".4"/>
		<path d="m446.6 741.2c-2-2.5-6.2-1.4-6.4 2-1.8 23.1-6.2 85.6-6.2 132.8 0 9.4 0.2 23.3 0.4 40-0.3-3.2-8.2-102.7-7.3-137.9 0.9-35.8-9.1-62.6-9.1-62.6 14.4 5.6 26.4 22.5 28.6 25.7z" opacity=".6"/>
		<path d="m393.8 1252c-1.1 1.8-19.8-8.7-32.5-13.8 1.5-1 2.2-2.7 1.4-6.9-1-5.2-0.8-6-0.2-9.9 0.1 2.1 1.4 6.3 9.3 11.6 11.7 7.7 23.3 16.8 22 19z" opacity=".53"/>
		<path d="m534 1266c-5.6 0.6-10 2.4-13.6 4.7 2.3-2.8 5.6-6.6 5.4-10.3-0.4-4.8-6.7-4.6-9.3-8.4 0.8 0.4 15.7 8.3 28.7 4.5 13.4-3.9 9.1 7.3-11.2 9.5z" opacity=".53"/>
		</g><path d="m564.9 671.8c0.3 3.3 1.3 8.8 0.3 14.3-23.2 13.7-45.8-2.7-45.8-2.7-16.7 3-20.9-9.2-20.9-9.2-13.3 1.3-13.2-9.1-13.2-9.1-17.1-11.6 51.9-39.1 51.9-39.1 6.8-0.7 9.4 5.9 9.5 6.2-0.1-0.1 17.6 33.2 18.2 39.6z" fill="#FFB5A4"/><g fill="#686868">
		<path d="m485.2 664.9c3.8-3.3 7.9-5.9 12.1-8.4s8.5-4.6 12.9-6.6c4.4-1.9 8.9-3.7 13.5-5.2s9.3-2.8 14.3-3.4l0.2 0.4-26.4 12-26.5 11.6-0.1-0.4z"/>
		<path d="m498.4 674c3.1-2.7 6.4-4.8 9.8-6.6 3.4-1.9 6.9-3.3 10.5-4.8 3.6-1.3 7.2-2.5 11-3.3 3.8-0.9 7.6-1.5 11.7-1.5l0.1 0.4-21.4 8.3-21.6 7.9-0.1-0.4z"/>
		<path d="m519.3 683.2c2.1-2.4 4.5-4.1 7-5.5 2.5-1.5 5.1-2.7 7.7-3.7 2.7-0.9 5.4-1.8 8.2-2.3s5.8-0.8 8.9-0.5l0.1 0.4-15.9 6.2-16 5.8v-0.4z"/>
		</g><path d="m120.5 960.9c0 0.2-0.1 0.1-0.1-0.1 0-0.3 0-0.3 0.1 0.1z" fill="none" stroke="#09151E" stroke-miterlimit="10"/>
		<path d="m365.4 399.1-29.8-3.6s-2.1-56.3 3.3-90.4c6.4-2.6 16.2-6.3 26.5-10.1 0 0-3.4 74.6 0 104.1z" fill="#282828"/>
		<path d="m526.4 395.5-33.9 3.6c7.9-112.2 24.8-109.7 24.8-109.7 8 4.7 17 10 25.6 15-18.1 9.7-16.5 91.1-16.5 91.1z" fill="#282828"/>
		<circle cx="347.4" cy="399.1" r="12.2" fill="#D8A31E"/>
		<circle cx="502.2" cy="399.1" r="12.2" fill="#D8A31E"/>
		<path d="m525.1 553.5c-0.1 0.5-0.1 1 0 1.5l-95 75.3c-7 5.6-17 5.2-23.6-0.8l-65.2-59.6c0.5-12.5 0.2-25.3-2.2-35.9-3.8-16.5-7-36-8.9-53.3 0 0 15.1 38.9 23.4 40.9 6.6 1.6 48-18.3 64.4-26.4 4.2-2.1 9.1-1.9 13.2 0.4l39.6 22.2c4.2 2.3 9.4 2 13.2-0.9l50.4-38.6c1.1 9.2 2.2 18.1 3.4 26.2-5.6 18.2-11.6 44.2-12.7 49z" fill="#282828" opacity=".4"/>
		<path d="m391.1 605.9c-0.1-0.1-0.1-0.1 0-0.2v0.2z" fill="#282828"/>
		<path d="m454.7 646.8c-14.4 0.9-30.3 1-47.8-0.2-5.4-0.4-11-0.8-16.8-1.4-0.9-9.4-0.1-24.8 0.5-33.4 9.3 1.3 19 2.2 28.6 2.1 9.3 0 20.6-1 32.5-2.4 0.7 8.9 1.8 25.6 3 35.3z" fill="#DBDBDB"/>
		<path d="m454.7 646.8c-14.4 0.9-30.3 1-47.8-0.2 43.2-0.8 42.3-9.2 41.4-16.4-1-7.2-1.7-11.5-23.4-10.8s-34.3-7.6-34.3-7.6c9.3 1.3 19 2.2 28.6 2.1 9.3 0 20.6-1 32.5-2.4 0.7 8.9 1.8 25.6 3 35.3z" fill="#B7B7B7"/>
		<path d="m385 155.7s-11.5-32.6-4.2-50.4c3.3-8 14.9-13.6 26.6-17.2 18.8-5.9 39-7 58.3-2.8 12.3 2.7 24.8 7.5 29.5 16.4 10.5 19.6-7 53.1-7 53.1s-51.6-34.6-103.2 0.9z" fill="#DBDBD9"/>
		<path d="m507.7 117.5c-4.1-16.3-21.4-24.7-21.4-24.7s0 0 0 0c3.9 2.4 7.1 5.3 9 8.8 10.5 19.6-7 53.1-7 53.1s-1.7-1.1-4.8-2.8c1.4 3.3 2.8 6.4 2.8 6.4l14.3 11.3c0-0.1 11.2-35.8 7.1-52.1z" fill="#0D3760"/>
		<path d="m373.6 173.9s27.9-31.1 54.6-33.5 51.7 29.1 60.1 29.1c8.4 0.1 12.3 0 12.3 0s-13-33.5-72.5-33.5c0 0-39.9-0.2-54.5 37.9z" fill="#144681"/>
		<g fill="#383838">
			<path d="m411.5 110.4c0.1-0.6 0.7-1 1.3-1 1.8 0 3.5-1.1 4.2-2.8s0.3-3.7-1.1-5c-0.5-0.4-0.5-1.1-0.2-1.5 1-1.2 2-2.3 3.2-3.3 0.5-0.4 1.1-0.3 1.6 0.2 1.2 1.3 3.4 1.8 5.1 1.1s2.9-2.5 2.7-4.4c0-0.6 0.4-1.1 1-1.2 1.5-0.2 3.1-0.2 4.6 0 0.6 0.1 1 0.6 1 1.2 0 0.9 0.2 1.8 0.7 2.5-0.2 0.2-0.5 0.4-0.7 0.7l-0.5 0.5c-0.9 1.1-1.6 2.4-1.9 3.7-0.1 0.5-0.2 1-0.2 1.5h-0.6c-5.6 0-10.1 4.5-10.1 10.1v0.5c-1 0.1-1.9 0.3-2.9 0.7-1.1 0.5-2 1.1-2.9 1.9-0.2 0.2-0.5 0.5-0.7 0.8-0.7-0.4-1.4-0.6-2.2-0.6h-0.2c-0.6 0-1.1-0.4-1.2-1-0.1-1.5-0.1-3.1 0-4.6zm36.9-1.7c0.7 0.4 1.5 0.6 2.4 0.6 0.7 0 1.1 0.4 1.2 1 0.2 1.5 0.2 3.1 0 4.6-0.1 0.6-0.8 1-1.4 1-1.7 0-3.5 1.1-4.2 2.8s-0.3 3.7 1.1 5c0.5 0.4 0.5 1.1 0.1 1.5-0.9 1.2-2 2.3-3.2 3.3-0.5 0.4-1.1 0.3-1.6-0.1-1.2-1.3-3.4-1.8-5.1-1.1s-2.9 2.5-2.7 4.4c0 0.6-0.4 1.1-1 1.2-0.8 0.1-1.6 0.2-2.4 0.2s-1.5 0-2.2-0.1c-0.6-0.1-1-0.6-1-1.2 0-0.9-0.2-1.8-0.7-2.6 0.2-0.2 0.5-0.4 0.7-0.6 1.2-1.2 2-2.6 2.4-4.2 0.1-0.5 0.2-1 0.2-1.5h0.6c5.6 0 10.1-4.5 10.1-10.1v-0.5c1-0.1 2-0.3 2.9-0.7 1.1-0.5 2.1-1.1 2.9-2l0.9-0.9z"/>
			<path d="m422.2 114.7c0.4 0 0.8 0 1.1 0.1 0.4 0.1 0.8 0.2 1.1 0.3l0.3 0.1 0.2-0.2 9.2-9.1 0.2-0.2-0.1-0.3c-0.4-1.3-0.5-2.7-0.2-4s1-2.5 2-3.5c0.7-0.7 1.5-1.2 2.4-1.6s1.8-0.5 2.8-0.5c0.5 0 1.1 0.1 1.6 0.2s1.1 0.3 1.6 0.5v0.1l-4.9 4.9c-0.2 0.2-0.4 0.5-0.5 0.8s-0.2 0.6-0.2 0.9 0.1 0.6 0.2 0.9 0.3 0.5 0.5 0.8c0.5 0.5 1.1 0.7 1.7 0.7s1.2-0.2 1.7-0.7l4.9-4.9v0.1c0.7 1.4 0.9 3 0.6 4.4-0.3 1.5-1 2.9-2.1 4-0.7 0.7-1.5 1.2-2.4 1.6s-1.9 0.6-2.8 0.6c-0.4 0-0.8 0-1.2-0.1s-0.8-0.2-1.1-0.3l-0.3-0.1-0.2 0.2-9.2 9.1-0.2 0.2 0.1 0.3c0.4 1.3 0.5 2.7 0.2 4s-1 2.5-2 3.5c-0.7 0.7-1.5 1.3-2.4 1.6-0.9 0.4-1.8 0.5-2.8 0.5-0.5 0-1.1-0.1-1.6-0.2s-1.1-0.3-1.6-0.5v-0.1l4.9-4.9c0.2-0.2 0.4-0.5 0.5-0.8s0.2-0.6 0.2-0.9-0.1-0.6-0.2-0.9-0.3-0.5-0.5-0.8c-0.5-0.5-1.1-0.7-1.7-0.7s-1.2 0.2-1.7 0.7l-4.9 4.9c-0.7-1.4-0.9-3-0.6-4.4 0.3-1.5 1-2.9 2.1-4 0.7-0.7 1.5-1.2 2.4-1.6 1-0.5 2-0.7 2.9-0.7z" clip-rule="evenodd" fill-rule="evenodd"/>
		</g>
		<path d="m265.9 831.5-5.9 3.6-30.1 18.6v16.5c0 2.2-1.4 3.9-3.2 3.9s-3.2-1.8-3.2-3.9v-18.9c0-1.5 0.7-2.8 1.8-3.5l32.1-19.9 5.7-3.5c0 3.7 1.2 5.9 2.8 7.1z" fill="#231F20"/>
	


	<ellipse cx="939.4" cy="1311" rx="245.6" ry="40.4" fill="#161616" opacity=".17"/>
	
		<path d="m733.8 287.8s45.7-11.8 45.7 3.4-47.2 40.4-47.2 40.4l-8.1-27.3 9.6-16.5z" fill="#282828"/>
		<path d="m775.7 225.1c1.3 3.4 1.2 7.1 1 10.7-0.9 13.8-3.9 27.4-8.8 40.2-11.4-7-26.9-4.8-37.4-13.1-2.3-1.9-4.4-4.4-4.8-7.4-0.3-2 0.2-4.1 0.7-6.2 1.4-5.6 3-11.1 5-16.6 1.6-4.5 3.4-9 6-13s6.1-7.5 10.3-9.5c4-1.9 10-2.7 13.9-0.1 0.9 0.6 1.7 1.6 2.5 2.3s1.7 1.4 2.5 2.1c1.7 1.4 3.5 2.8 5.1 4.4 1.5 1.9 3.1 3.9 4 6.2z" fill="#995D53"/>
		<path d="m789.5 246.9c0 1.1-0.1 2.6-0.1 3.7-0.5 8.9-5.4 16.9-9 25-2.4 5.4-4.2 11.1-5.3 17-1.3 6.2-1.8 12.6-1.6 18.9 0.1 4.8-1.1 9.9-0.8 14.7-13.7-1.1-27.4-2.7-41-4.7 1.5-9.1 2.6-18.3 3.1-27.6 0-0.4 0-0.7 0.1-1.1 0.2-4.3 0.3-8.7-0.5-12.9-0.9-4.6-3.3-9.1-5.9-13.1-2.6-4.1-6.7-10.2-7.1-12.7 5.6 2.5 9.8 7.8 15.6 9.8 4.1 1.4 7.5 1.7 11.8 1.2s8.9-0.8 12.7 1.2c2.4-7.4 5.4-15.3 7.6-22.8l20.4 3.4z" fill="#FFB5A4"/>
		<path d="m773.4 311.5c0.1 4.8-1.1 9.9-0.8 14.7-13.7-1.1-27.4-2.7-41-4.7 1.5-9.1 2.6-18.3 3.1-27.6 0-0.4 0-0.7 0.1-1.1 7.6 5.1 20.1 7.9 40.4-0.2-1.4 6.2-2 12.6-1.8 18.9z" fill="#995D53" opacity=".54"/>
		<path d="m726.1 278.4c2.8 1.3 5 3.2 6.7 5.5l45.6-96.9c-2.8 0.1-5.8-0.4-8.5-1.7-2.8-1.3-5-3.2-6.7-5.5l-45.6 96.9c2.9-0.1 5.8 0.4 8.5 1.7z" fill="#666"/>
		<path d="m728.8 273.2-0.2-0.1c-2-1-2.9-3.4-2-5.4l35.3-75.1c1-2 3.4-2.9 5.4-2l0.2 0.1c2 1 2.9 3.4 2 5.4l-35.3 75.1c-1 2-3.4 2.9-5.4 2z" fill="#919191"/>
		<path d="m792.9 158.9-6.1 12.9-7.9 5.5-8.7-4.1-0.8-9.5 6.1-12.9c-6 0.7-11.6 4.4-14.3 10.3-4.3 9.1-0.4 19.9 8.7 24.2s19.9 0.4 24.2-8.7c2.8-5.9 2.1-12.6-1.2-17.7z" fill="#919191"/><g fill="#FFB5A4">
		<path d="m760.9 224.5 0.3-0.4c2.1-2.6 1.6-6.5-1-8.6l-16.2-12.7c-2.6-2.1-6.5-1.6-8.6 1l-0.3 0.4c-2.1 2.6-1.6 6.5 1 8.6l16.2 12.7c2.7 2.1 6.6 1.7 8.6-1z"/>
		<path d="m758.5 237.9c1.9-3 1.1-7-1.9-8.9l-20.4-13.3c-3-1.9-7-1.1-8.9 1.9s-1.1 7 1.9 8.9l20.4 13.3c2.9 1.9 6.9 1.1 8.9-1.9z"/>
		<path d="m753.8 250.2 0.3-0.6c1.5-3 0.2-6.7-2.8-8.1l-21.8-10.7c-3-1.5-6.7-0.2-8.1 2.8l-0.3 0.6c-1.5 3-0.2 6.7 2.8 8.1l21.8 10.7c3 1.5 6.7 0.2 8.1-2.8z"/>
		<path d="m745.2 260.7 0.4-0.7c1.2-2.4 0.2-5.4-2.2-6.6l-16.8-8.3c-2.4-1.2-5.4-0.2-6.6 2.2l-0.4 0.7c-1.2 2.4-0.2 5.4 2.2 6.6l16.8 8.3c2.4 1.3 5.4 0.3 6.6-2.2z"/>
		<path d="m770 239.5c0.7-2.7 1.3-5.3 1.5-8.1 0.2-2.7-0.2-5.5-1.4-8-0.9-1.9-2.4-3.4-3.5-5.2-3.9-6.2-3.3-15 1.4-20.6 0.6-0.7 1.4-1.4 2.2-1.2 0.7 0.1 1.2 0.8 1.6 1.4 2.6 4.1 4.1 8.8 7 12.6 2 2.7 4.6 4.9 6.3 7.7 1.9 3.2 2.7 6.9 3.3 10.5 1 6.1 1.2 12.5 1 18.7l-20.7-3.6c0.6-1.4 0.9-2.8 1.3-4.2z"/>
		</g><path d="m845.7 443.4c-0.3 2.8-0.4 6-0.5 9.6-6-3-3.8-9.2-5.2-10.1-1.1-0.7-8.4 1.1-14.1 3.8-2.1 1-3.9 2.1-5.2 3.3-0.6 0.5-1.6 1.3-3.1 2.1-10.5 6.3-41.1 19.8-41.1 19.8s-9.5 7.1-21 11.2c-11.5 4.2-43.2 5.1-55-6.8-11.7-12-5.1-59.4-4.4-66 0.3-2.8 0.9-5.1 1.4-7.2 0.7-3 1.3-5.6 0.8-8.5-0.4-1.9 0.5-4.9 1.7-7.8 1.8-4.5 4.4-8.7 4.4-8.7s0.2-2.4 0.4-5.5c0.4-4.6 0.8-10.7 0.8-12.5 0-3.2 4.6-9.8 4.6-9.8s0-19.1 0-23.6 11-16 11-16 1.3-0.8 2.3-3.7c0.2-0.7 0.4-1.6 0.6-2.6v-0.1c0.2-1.4 0.4-3.1 0.3-5.1-0.3-9.1 8.9-11.4 9.2-11.5-0.3 0.3-7.2 7.9 0 22.7 7.3 15.1 45.7-19.3 45.7-19.3l0.5 9.8 2.5 2.9c3.4 12.5-9.1 51.8-8.3 55 0.7 3.2-1 21.3 0 21.3s13.2-13.9 14.7-16.1 7.8-1 7.8-1 1.3-2.4 3.8-6.7c3.5-6.3 9.5-16.5 17.5-29.6 13.4-22.1 28.8-17.2 28.8-17.2 0.4 8.4 0.7 24.2 0.8 42.1 0.2 35.7-0.3 79.8-1.7 91.8z" fill="#DBDBD9"/><g fill="#282828">
		<path d="m821.3 395.5c-2.9-21.7-24.7-32.5-24.7-32.5s1.3-2.4 3.8-6.7c24.1 15.8 20.9 39.2 20.9 39.2z" opacity=".22"/>
		<path d="m845.7 443.4c-0.3 2.8-0.4 6-0.5 9.6-6-3-3.8-9.2-5.2-10.1-1.1-0.7-8.4 1.1-14.1 3.8 3.6-4.1 7.4-11.4 8.8-24 1.7-15.8 8.9-44.2 12.8-71.1 0.1 35.7-0.4 79.8-1.8 91.8z" opacity=".22"/>
		<path d="m845.7 443.4c-0.3 2.8-0.4 6-0.5 9.6-6-3-3.8-9.2-5.2-10.1l7.4-91.3c0.2 35.7-0.3 79.8-1.7 91.8z" opacity=".22"/>
		<path d="m754.3 370.9c-1.7 1.7-33.8 34.5-41 20.5-3.4-6.7-6.3-13-8.4-18.7 0.4-4.6 0.8-10.7 0.8-12.5 0-3.2 4.6-9.8 4.6-9.8s2 32.4 8.1 36.6c6 4 34.3-15 35.9-16.1z" opacity=".22"/>
		<path d="m734.1 399.7c-0.9 1.1-22.4 29.7-31 13.7-2.1-3.8-3.9-7.2-5.4-10.1 0.7-3 1.3-5.6 0.8-8.4-0.4-1.9 0.5-4.9 1.7-7.9 0 0 7.8 18.4 11.5 21.5 3.5 3 21.4-8.2 22.4-8.8z" opacity=".22"/>
		<path d="m772.4 315.1s-13.9 36.8-36.1 36.5c-22.2-0.4-25.9-24.9-25.9-24.9 0-4.5 11-16 11-16s1.3-0.9 2.3-3.7c0 0-2.6 21.5 10.4 25.2 12.9 3.7 38.3-17.1 38.3-17.1z" opacity=".22"/>
		<path d="m774.1 380.1-6.1 43.2s-5.4 44.5-35.7 45.9c0 0 26.4 2.9 36.6-32 0 0 6.8 9-0.2 28.8 0 0 8.3-12.7 3.7-38.6s23.2 25.7 26.9 25.5c3.7-0.1-5.4-20.2-12.5-27s-14.4-14.2-9.3-13.9c5.1 0.2 14.4-0.7 24.9 14.4 0 0-0.7-15.1-27.6-20.8l-0.7-25.5z" opacity=".22"/>
		</g><path d="m889.1 173.9h18s3-10.6 1.9-11.4c-1.2-0.7-5.9-3.9-6.1-4.2-0.2-0.2-6.2 5.1-6.2 5.1l-7.6 10.5z" fill="#1E1C1A"/>
		<path d="m1046 312.2s-3.4 4-9.5 9.5c-7.3 6.5-18.6 15.2-32.8 21.8-12.5 5.8-27.2 10.1-43.6 10.1-20.8 0-37.8-6.6-50.6-14.5-8.5-5.2-15.1-10.9-19.8-15.6-5.6-5.6-8.5-9.6-8.5-9.6 5.8-5.6 25.1-16.6 34.9-26.3 1.4-1.4 2.6-2.8 3.6-4.1 1.2-1.7 2-3.3 2.2-4.8 0.3-2.1 0.4-5.2 0.4-9 0-2.1-0.1-4.4-0.1-6.8 0-0.9-0.1-1.7-0.1-2.6-0.6-14.9-2-32.3-2-32.3l75.1-22.6 8.2 18.5 1.3 15.7 1.7 20 0.4 5.3 0.2 3.1 1.1 13.4 0.8 9.5 0.1 0.7s14.8 10.5 34 19.1c1 0.6 2 1.1 3 1.5z" fill="#FFCEBB"/>
		<path d="m1043 310.9c-19.2-8.6-34-19.1-34-19.1l-0.1-0.7-0.8-9.5-1.1-13.4-0.2-3.1-0.4-5.3-1.2-14.3-1.9-21.5-8.2-18.5-43.7 13.1-31.4 9.4s0.1 1 0.2 2.6c0.3 3.9 0.9 11.5 1.4 19.8 0.2 3.3 0.4 6.6 0.5 9.9 0 0.9 0.1 1.8 0.1 2.6 0.1 2.4 0.1 4.7 0.1 6.8 0 3.8-0.1 6.9-0.4 9-0.2 1.5-1 3.1-2.2 4.8-1 1.3-2.2 2.7-3.6 4.1-9.8 9.7-29.1 20.6-34.9 26.3 0 0 2.9 4.1 8.5 9.6 31.6-1.2 54.4 2.9 54.4 2.9l-26.9-15.9c-1.6-0.9-1.7-3.2-0.2-4.2l41.7-28.8c0.1-0.1 0.3-0.2 0.4-0.2l34.5-23.9s8.4 50.5 6.6 54.8-27.7 18.3-27.7 18.3 22.7-3.2 64-4.7c6.2-5.5 9.5-9.5 9.5-9.5-1-0.5-2-1-3-1.4z" fill="#D69687" opacity=".76"/>
		<path d="m908.8 191.5-4.6-1.7c-1.8-0.7-3.8 0.8-3.7 2.7l1.7 24.1c0.2 3.1 2.1 5.7 4.9 7l8 3.7c-0.1 0.1 1.4-24.1-6.3-35.8z" fill="#CC9181"/>
		<path d="m916.2 223.6-7.3-2.9c-0.3-0.1-0.6-0.3-0.9-0.4-2.1-1.1-3.4-3-3.6-5.1l-1.5-18.8c-0.1-1.5 1.7-2.7 3.4-2.1l4.3 1.3c1.5 1.9 2.6 4.3 3.4 6.8 3.1 9.5 2.2 21.2 2.2 21.2z" fill="#B27566"/>
		<path d="m920.5 222-7.4-2.3c-0.3-0.1-0.6-0.2-0.9-0.3-2.1-0.9-3.4-2.4-3.6-4.1l-1.5-15c-0.1-1.2 1.7-2.1 3.4-1.7l4.3 1.1c1.5 1.5 2.6 3.4 3.4 5.4 3.1 7.5 2.3 16.9 2.3 16.9z" fill="#93564A"/>
		<path d="m1020 200.3c-1.9 4-5.5 11.9-7.9 17.9-3.4 8.5-11.7 7.6-11.7 7.6-1.8 1.6-14.6 20.8-22 31.9-0.9 1.3-1.9 2.5-3.1 3.5-3.2 2.8-7.3 4.4-11.7 4.4h-22.5c-4.8 0-9.3-1.9-12.6-5.3-0.7-0.7-1.3-1.4-1.8-2.2-3.9-5.5-8.9-12.4-12-16.7-1.9-2.6-2.9-5.7-3-8.9-0.1-15.3-1.6-29.5-3.7-41.8-3.6-21.1-5.2-36.7-7.8-43.7-0.1-0.2 0.1-0.6 0-0.8-0.7-2.4-4-4.9-2.4-6.9l9.2-11.1 0.9-11.4c0.2-2.8 1.7-5.3 3.9-6.9 4.6-3.3 12.5-8.7 17-10.3 6.6-2.3 42.6-10.8 60.4-1.6 10.9 5.6 19.6 17.5 24.8 26 1.5 2.5 2.8 4.7 3.7 6.4 1 1.8 1.3 3.8 1 5.8-1.6 12-3.6 51.5-3.6 51.5l1.7 2.9 2.7 4.6c1.2 1.5 1.3 3.5 0.5 5.1z" fill="#FFCEBB"/>
		<path d="m959.7 206.7-7.8-0.9-7.8 0.9s-4.9-1.5-3 2.8 6.3 9.6 11.1 9.6 9.2-5.3 11.1-9.6c1.9-4.4-3.6-2.8-3.6-2.8z" fill="#EDB2A2"/>
		<path d="m970.2 164.6s-9.6 0.9-12.2 6.7c-2.6 5.9 10.1-3 15.7-2.6 5.7 0.6-3.5-4.1-3.5-4.1z" fill="#D69383" opacity=".44"/>
		<path d="m1020 195.1-2.7-4.6-1.7-2.9s2-39.5 3.6-51.5c0.3-2-0.1-4-1-5.8-0.9-1.6-2.1-3.9-3.7-6.4-1.8-1.6-3.2-2.8-3.6-3.1-1.9-1.4-18.6 0-18.6 0l-11.5 8.4-3.2 9.4s13.8 3.7 15.4 12.3v7.3c0 2.4-1.8 4.3-4.2 4.5l-12.2 0.9-3.9 5.3 7.1 0.4c2.5 0.1 4.6 1.6 5.8 3.7l1.8 3.5-16.6 0.7v1l-7.1 3.5s11.2 10 21.8 1.4c0.8-0.7 2.8-1.5 2.8-1.5 1.8-0.1 3.4-1.4 5.5-1.6 2.4-0.3 4.5 1.8 4.2 4.2l-1.3 12.5c-0.3 2.5-2 4.7-4.4 5.5l-3.8 1.3c-2.3 0.8-3.7 2.9-3.7 5.3 0.4 11 0.4 41.7-9.4 52.5 1.2-1 2.2-2.2 3.1-3.5 7.4-11.1 20.2-30.3 22-31.9 0 0 8.3 0.9 11.7-7.6 2.4-6 6-13.9 7.9-17.9 0.9-1.7 0.8-3.7-0.1-5.3z" fill="#EDB2A2"/>
		<path d="m974.4 186.5s-10.3-1-14.7-6.3c-4.3-5.3 7.2-7.1 7.2-7.1l7.5 13.4z" fill="#EDB2A2"/>
		<path d="m1019 136.2c0 0.2-0.1 0.4-0.1 0.6-0.2 1.5-0.4 3.3-0.6 5.3-0.3 2.8-0.5 6-0.8 9.4-1.2 15.9-2.2 36.2-2.2 36.2l1.7 2.9-7.4 2.4-4.2-7.4-6.4-15.4c-1.2-2.9-1.8-6-1.8-9.1 0-1.1 0-2.6-0.1-4.3-2.2 0.5-4.3 0.9-6.3 1.2-44.8 7.2-68-19.2-68-19.2-1.1 1.4-1.8 3.2-1.9 5l-0.6 9c-0.2 2.9-1.1 5.7-2.7 8.2l-5.3 8.3c-2.1 3.3-3.3 7.1-3.6 11l-0.7 10.3c-3.6-21.1-6.5-36.8-9.2-43.9-1-2.6-2.8-5.4-1.1-7.5l9.2-11.1 0.2-2.2 0.1-0.9 0.7-8.2c0.2-2.8 1.7-5.3 3.9-6.9 4.6-3.3 12.5-8.7 17-10.3 6.6-2.3 42.6-10.8 60.4-1.6 10.2 5.3 18.7 16.2 23.9 24.5 2 3.1 3.5 5.9 4.6 7.9 1.2 1.8 1.5 3.8 1.3 5.8z" fill="#33302B"/>
		<path d="m1019 136.2c0 0.2-0.1 0.4-0.1 0.6-0.2 1.5-0.4 3.3-0.6 5.3-0.3 2.8-0.5 6-0.8 9.4-1.2 15.9-2.2 36.2-2.2 36.2l1.7 2.9-7.4 2.4-4.2-7.4-6.4-15.4c-1.2-2.9-1.8-6-1.8-9.1 0-1.1 0-2.6-0.1-4.3 0 0 28.7-5.2 16.3-34 0-0.1-0.1-0.2-0.1-0.2 2 3.1 3.5 5.9 4.6 7.9 1 1.7 1.3 3.7 1.1 5.7z" fill="#1E1C1A"/><g fill="#EDB2A2">
		<path d="m934.8 180.3-0.3-0.6-11.8 0.2 0.1-3c0.1-2.2 1.6-4.1 3.8-4.5l6.5-1.3 0.1-2.5-1.2-1.8-9-2.2c-2.4-0.6-4-2.9-3.6-5.4l0.4-2.6-7-7.4-6.2-2.9-7.5-1.4 1.8 0.5c0.1 0.2 0.1 0.4 0.2 0.5 2.6 7 3.6 23.7 7.2 44.9 2.1 12.3 3.6 26.5 3.7 41.8 0 3.2 1.1 6.3 3 8.9 3.1 4.3 8.1 11.2 12 16.7 0.6 0.8 1.2 1.5 1.8 2.2-8.9-11.8-7.5-42.1-6.8-52.2 0.1-2-1.1-3.8-3-4.3l-0.6-0.2c-2-0.6-3.5-2.3-3.9-4.3l-2.1-11.9c-0.3-1.9 1.2-3.6 3.1-3.6 2.4 0.1 4.6 0.1 6.5 0.1-0.5-0.4-1.1-0.8-1.7-1.3 0.1 0 8.7-2.2 14.5-2.4z"/>
		<path d="m935.5 180.3c-6.1 0.2-15.1 2.4-15.1 2.4 0.6 0.5 1.2 0.9 1.8 1.3 13.5 9.1 17-3.4 17-3.4-0.9-0.7-1.5-0.3-3.7-0.3z"/>
		<path d="m925 185.6s-5.1-1.7-7.6-1.7-2.5-2.1-2.5-2.1 5.1-1.7 5.4-1.7c0.2 0 3.3-0.1 3.4 0.1s2.9 0.8 3 1.2-1.7 4.2-1.7 4.2z"/>
		</g><path d="m961.1 169.5c2-2.1 4.7-3.4 7.3-4.3 2.7-0.9 5.5-1.4 8.3-1.6s5.6 0 8.4 0.5c1.4 0.2 2.7 0.6 4.1 1 1.3 0.5 2.7 1 3.9 1.7-1.4 0.4-2.8 0.6-4.1 0.8-1.4 0.2-2.7 0.4-4 0.5-2.7 0.3-5.3 0.4-7.9 0.6l-16 0.8z" fill="#33302B"/>
		<path d="m933.5 167.1c2.3 0.8 8.9 1.5 8.6 4.8s-2.9-0.1-9.1-0.8c-6.2-0.8 0.5-4 0.5-4z" fill="#D69383" opacity=".44"/>
		<path d="m939.6 170.8c-1.2-0.1-2.3 0-3.4 0.1s-2.2 0.1-3.3 0.2c-2.2 0.1-4.3 0.1-6.5 0s-4.4-0.3-6.6-0.7-4.4-0.9-6.7-2c2.2-1.1 4.4-1.7 6.7-2 2.3-0.4 4.5-0.5 6.8-0.4s4.5 0.5 6.8 1.1c1.1 0.3 2.2 0.8 3.3 1.3 0.5 0.3 1.1 0.6 1.6 1s1.1 0.8 1.3 1.4z" fill="#33302B"/><g fill="#D69383">
		<path d="m965.3 210.6c1.8 0.4 3.3 1.1 4.7 2 1.4 0.8 2.7 1.9 3.9 3 1.1 1.2 2.2 2.4 3 3.8s1.5 2.9 1.6 4.6l-0.2 0.1c-1.7-2.6-3.8-4.9-6.1-7.1-2.2-2.2-4.6-4.3-7.2-6.2l0.3-0.2z"/>
		<path d="m940.1 210.7c-2 2.8-4.3 5-6.6 7.3-2.3 2.2-4.6 4.3-7 6.7 0.2-1.7 0.9-3.3 1.8-4.8s2-2.7 3.2-3.9 2.5-2.2 4-3.1c1.4-0.9 2.9-1.7 4.6-2.2z"/>
		<path d="m943.6 227.4c1.7 0.1 3.2 0.3 4.6 0.4 1.4 0.2 2.8 0.3 4.1 0.3 1.3 0.1 2.6 0 4-0.1s2.8-0.3 4.5-0.6c-0.7 1.6-2.1 2.7-3.6 3.5s-3.3 1.2-5 1.1-3.4-0.6-4.9-1.3c-1.4-0.8-2.8-1.8-3.7-3.3z"/>
		</g><path d="m953 265.7h-2.4c-0.2-1.2-0.3-2.3-0.4-3.4-0.2-1.9-0.3-3.7-0.3-5.6-0.1-3.7 0-7.4 0.3-11.1 0.2 3.7 0.5 7.3 1 11 0.2 1.8 0.5 3.6 0.9 5.4 0.2 1.2 0.5 2.5 0.9 3.7z" fill="#E2A491"/>
		<path d="m932.4 218.5c1.7 0.7 3.4 1.1 5.1 1.4 1.7 0.4 3.4 0.6 5.2 0.7 1.7 0.1 3.5 0.3 5.2 0.3l2.6 0.1h2.6c3.5 0 7-0.1 10.4-0.4 1.7-0.2 3.5-0.4 5.2-0.7s3.4-0.7 5.1-1.4l0.1 0.2c-1.5 1.2-3.2 1.9-4.9 2.5s-3.5 1.1-5.2 1.4c-3.5 0.7-7.1 1-10.7 1s-7.2-0.3-10.7-1c-1.8-0.3-3.5-0.8-5.2-1.4s-3.4-1.4-4.9-2.5l0.1-0.2z" fill="#353334"/>
		<path d="m1020 200.3c-1.9 4-5.5 11.9-7.9 17.9-3.4 8.5-11.7 7.6-11.7 7.6 0.8-3.6 1.3-24.6 1.5-32.9 0-2.2 0.8-4.3 2.3-6l1.2-1.4c6.3-4.9 10 2.1 10 2.1l4.4 7.4c0.9 1.7 1 3.7 0.2 5.3z" fill="#DB9A8A"/>
		<path d="m967.5 171.7c1.2-0.9 2.6-1.5 4-2s2.9-0.7 4.3-0.8h2.2c0.7 0.1 1.5 0.1 2.2 0.3 1.5 0.2 2.9 0.7 4.2 1.5v0.1c-1.4-0.3-2.8-0.5-4.2-0.6s-2.8-0.1-4.2 0c-2.8 0.2-5.6 0.7-8.3 1.6l-0.2-0.1z" fill="#D69383"/>
		<path d="m938.1 173.5c-1.3-0.4-2.6-0.6-3.8-0.7-1.3-0.1-2.6-0.2-3.8-0.3-1.3-0.1-2.6 0-3.9 0l-2 0.1c-0.7 0-1.3 0.1-2 0.1 1.2-0.5 2.5-0.9 3.8-1.1s2.7-0.4 4-0.3c1.3 0 2.7 0.2 4 0.6 1.4 0.3 2.7 0.8 3.7 1.6z" fill="#D69383"/>
		<path d="m923 138.8c-1.1 1.4-1.8 3.2-1.9 5l-0.6 9c-0.2 2.9-1.1 5.7-2.7 8.2l-5.3 8.3c-0.1 0.2-0.3 0.5-0.4 0.7-1.9 3.2-2.9 6.7-3.2 10.3l-0.7 10.3c-0.7-4.3-1.5-8.4-2.4-12.2-1.2-5.6-2.5-10.7-3.8-15.1-2.1-7.4-0.7-12-2-15.5-1-2.6-0.5-5.5 1.3-7.6l5.9-12.1 0.2-2.2c0.4 1.4 2.6 4.4 13 10.1 1.1 0.6 2 1.6 2.6 2.8z" fill="#1E1C1A"/>
		<path d="m1007 220.9s0.9-3.8-1.2-6.7c-0.4-0.6-1-1.2-1.7-1.7 0 0-1.1-13.8 0.6-20.5 0.5-2 1.3-3.3 2.5-3.5 5-0.7 9.7 3.3 10.4 8.9 0.7 5.5-5.6 18.3-10.6 23.5z" fill="#C67D6F"/>
		<path d="m1012 203.4c-1.2 4.8-3.6 8.3-5.8 10.7-0.4-0.6-1-1.2-1.7-1.7 0 0-1.1-13.8 0.6-20.5s9.5 0.9 6.9 11.5z" fill="#A05A50"/>
		<path d="m964.6 181.5c0.6 0.5 1.4 0.8 2.2 0.9 4.5 0.4 19.3 1.3 20.8-2.9 0 0-1.3-1.9-2.6-3.7-0.6-0.9-1.3-1.6-2.2-2.1-1-0.6-2.2-0.9-3.4-0.9l-12.5 0.2s-1.5 0.9-2.9 2.6c-1.5 1.9-1.2 4.5 0.6 5.9z" fill="#fff"/>
		<path d="m968.9 175.1c0.1 3.9 3.3 7 7.1 6.9 3.9-0.1 7-3.3 6.9-7.1 0-0.4-0.1-0.8-0.1-1.1-1-0.6-2.2-0.9-3.4-0.9l-10.3 0.2c-0.1 0.6-0.2 1.3-0.2 2z" fill="#23201D"/>
		<path d="m987.6 179.5c-0.6-2-1.7-4-3.3-5.6-0.8-0.7-1.9-1.4-3-1.7-0.6-0.2-1.2-0.2-1.8-0.3h-1.6c-4.2 0-8.4 0.2-12.7 0.6h-0.1c-0.7 0.4-1.4 0.9-2 1.4s-1.1 1.2-1.3 2c0.8-1.3 2.3-1.9 3.7-2.4h-0.2c4.2 0.3 8.5 0.3 12.7 0.2l1.6-0.1c0.5 0 0.9 0 1.4 0.1 0.9 0.2 1.8 0.6 2.6 1.2 1.5 1.2 2.9 2.9 4 4.6z" fill="#3A2725"/>
		
			<ellipse transform="matrix(.9998 -.01763 .01763 .9998 -2.958 17.28)" cx="978.9" cy="176.4" rx="1.9" ry="1.9" fill="#fff"/>
		<path d="m918.7 182.3c0.6 0.5 1.3 0.7 2 0.8 4 0.3 17.1 1.1 18.4-2.5 0 0-1.2-1.7-2.3-3.3-0.5-0.8-1.2-1.4-2-1.8-0.9-0.5-1.9-0.8-3-0.8l-11.1 0.2s-1.3 0.8-2.6 2.3c-1.2 1.5-0.9 3.9 0.6 5.1z" fill="#fff"/>
		<path d="m922.6 176.6c0.1 3.4 2.9 6.2 6.3 6.1s6.2-2.9 6.1-6.3c0-0.3 0-0.7-0.1-1-0.9-0.5-1.9-0.8-3-0.8l-9.1 0.2c-0.2 0.6-0.2 1.2-0.2 1.8z" fill="#23201D"/>
		<path d="m939.1 180.6c-0.5-1.8-1.5-3.6-3-4.9-0.7-0.7-1.6-1.2-2.7-1.5-0.5-0.2-1-0.2-1.6-0.2h-1.4c-3.7 0-7.5 0.2-11.2 0.5h-0.1c-0.7 0.3-1.2 0.8-1.7 1.2-0.5 0.5-1 1.1-1.1 1.8 0.7-1.2 2.1-1.7 3.2-2.1h-0.2c3.7 0.2 7.5 0.3 11.2 0.1h1.4c0.4 0 0.8 0 1.2 0.1 0.8 0.2 1.6 0.5 2.3 1 1.5 1 2.7 2.4 3.7 4z" fill="#3A2725"/>
		
			<ellipse transform="matrix(.9998 -.01764 .01764 .9998 -2.992 16.46)" cx="931.4" cy="177.8" rx="1.7" ry="1.7" fill="#fff"/>
		<path d="m1003 178.7c-0.6 7.4-3.3 13.5-5.9 17.8-2.9 4.7-5.8 7.4-5.8 7.4-1.7 1.3-3.5 2.6-5.5 4.1-6 4.4-7.4 14.9-7.4 14.9s-12.8-14.8-17.5-14.4-5.5 3.3-8.5 3.4-3.8-2.8-8.3-2.8c-4.5-0.1-16.3 14.8-16.3 14.8s-1.3-9.9-6.6-13.7c-5.3-3.7-9.8-7-10.4-9-0.3-0.9-0.7-2.4-1.2-3.4-0.2 2.3-0.8 13.2 0.4 25.9 0.6 6.1 0.7 9.8 1.2 13.2 0.8 4.7 2.4 9 7.2 18.1 0.8 1.5 1.7 2.9 2.5 4.1 4.1 6.3 11.9 10.2 15.9 13.1 5.4 3.9 11.3 4.8 16.5 5 5.3 0.3 11.4 0 17.1-3.6 4.3-2.7 13-6.1 17.7-12.5 4.8-6.5 10.1-16.5 12.2-24.8 2.1-8.4 3.2-22.5 3.5-24.6 1.8-10.4 2.1-26.2 2.1-26.2l-2.9-6.8zm-50.6 41.9c15.2-0.3 19.8 10.5 19.8 10.5-3.5 5.3-11.6 8-12 4.5s-4.4-5.1-7.8-5.1-7.3 1.7-7.7 5.2-8 0.9-11.3-4.2c0.1 0.1 4.3-10.5 19-10.9z" fill="#33302B"/>
		<path d="m963.1 251.5c-4-1.2-7.4-2.9-10-2.9-6.3 0-13.1 7-22.7 7-7.7 0-16.5-8.6-19.5-18.8 0.8 4.7 2.4 9 7.2 18.1 0.8 1.5 1.7 2.9 2.5 4.1 4.1 6.3 11.9 10.2 15.9 13.1 5.4 3.9 11.3 4.8 16.5 5 5.3 0.3 11.4 0 17.1-3.6 4.3-2.7 13-6.1 17.7-12.5 4.8-6.5 10.1-16.5 12.2-24.8 0.1-0.3 0.1-0.5 0.2-0.8-11.3 28.7-37.1 16.1-37.1 16.1z" fill="#1E1C1A"/>
		<path d="m963.6 208.7s1.1-4.1-1.4-4.1l-5.2 1.6 1.8 1.4 4.8 1.1z" fill="#EDB2A2"/>
		<path d="m940.7 208.3s-1.2-2.1 0.9-4.3 4.4 2.6 4.4 2.6l-5.3 1.7z" fill="#EDB2A2"/>
		<path d="m943.6 175.8s7.1 5.8 5.1 15c-1.1 5-2.3 8.7-3.1 11-0.5 1.5 0.6 3.1 2.2 3l14.5-0.2-8.8 5.4c-0.8 0.5-1.7 0.5-2.5 0.1l-8-3.6c-1.2-0.5-1.7-2-1.1-3.1 2.8-5.5 9.5-20.4 1.8-27" fill="#9B5B4E"/>
		<path d="m997.4 156.8s-33.3 4-50.7-13.4l50.7 13.4z" fill="#FFCEBB"/>
		<path d="m1184 579.2c-4.4 10.6-13.3 23.4-22.7 34.7-0.2 0.2-0.4 0.5-0.6 0.8-2.3 2.7-4.6 5.3-6.9 7.8-7.8 8.4-15.4 15.1-20.6 17.9-13.6 7.4-29.5 24.6-39.8 34.8 0.3-10.5 3.3-23 3.9-26.7 0.5-3.2-13.1 1.1-19.8-9-5-7.6-6.9-14.3-6.9-14.3s3-23 3.1-29.3c0.1-5.3 0.4-10.1 1.6-9.8 1.5 0.4 7.4-0.2 12-2.9 1.2-0.7 2.4-1.6 3.4-2.7 0.2-0.2 0.4-0.5 0.6-0.7 0.6-0.8 1.1-1.7 1.4-2.7 0.4-1 0.6-2 0.7-3.2 0.5-7.7-10.7-16.7-17.3-24.3-2.8-3.2-4.8-6.2-4.8-8.7 0-0.8 0.1-1.5 0.3-2.3 1-4.7 4.2-9.8 7-14 2-3 3.7-5.5 4.2-7 0.4-1.1-0.4-6.2-1.7-12.9-3.1-16.2-9.3-41.6-9.3-41.6 18.3-37.7 46.3-92.9 48.2-96.3 1-1.8 2.3-2.5 3.7-2.8 0.5-0.1 0.9-0.3 1.3-0.5 1-0.6 1.5-1.8 1.5-3v-0.3c9.5 16 35.6 128.2 36.6 138.9 0.8 8.6 15.7 50.6 21.4 66.4 1.4 4.4 1.3 9.3-0.5 13.7z" fill="#DBDBD9"/><g fill="#282828">
		<path d="m1114 556.2c-3.6 4.9-17.2 15-21.7 20.7 0.4-1 0.6-2 0.7-3.2 0.6-11-22.3-24.6-22.1-33 0-0.8 0.1-1.5 0.3-2.3 0 0 0.8 11.4 19.6 9.7 18.7-1.6 27.4 2.3 23.2 8.1z" opacity=".22"/>
		<path d="m1075 586s46.3 0.3 54.3-9.1c0 0-33 35.6-54.3 9.1z" opacity=".22"/>
		<path d="m1080 504.5c-3.1-16.2-9.3-41.6-9.3-41.6 18.3-37.7 46.3-92.9 48.2-96.3 1-1.8 2.3-2.5 3.7-2.8 0.5-0.1 0.9-0.3 1.3-0.5-6.5 18.8-21 61.4-31.1 92.7-5 15.7-9 28.5-10.2 34-1 4.1-1.8 9.1-2.6 14.5z" opacity=".22"/>
		</g><path d="m1123 363.9c-1.3 0.3-2.7 1-3.7 2.8-1.9 3.4-29.9 58.6-48.2 96.3-7.2 14.9-12.8 27-14.8 32.2-1 2.7-2.1 5.9-3.1 9.3-5.6 18.3-11.6 44.2-12.7 49-0.1 0.5-0.1 1 0 1.5 1.2 5.6 8.6 40.8 11.2 58.9-12.6 14.8-24.2 19.3-39.8 23.8-6.8 2-25.6 2.6-47.5 2.6-18 0-38.1-0.5-55.4-1-23.3-0.7-41.5-1.5-42.7-1.5-3.2 0-13.4-19.5-13.7-20.1 0.5-14.4 8.1-56.2 1.8-83.6-3.8-16.5-7-36-8.9-53.3-1.5-14.3-2-27.1-1.1-35.5 2.1-18 2.2-108.8 1-133.7 0-1.4 0.7-2.6 1.8-3.3 1.2-0.7 3.6-1.7 7-3.1 6.4-2.6 16.2-6.3 26.5-10.1 9.2-3.5 18.9-7.1 26.9-10.4 5.6-2.2 10.4-4.3 13.8-5.9l35.4 28 21.6-14.7 28.9-19.7c2.3 2.8 5.1 5.3 8.3 7.2 0.8 0.5 1.6 0.9 2.4 1.4 0.4 0.2 0.7 0.4 1.1 0.6 4 2.4 8.6 5.1 13.6 8 8 4.7 17 10 25.6 15 2.3 1.3 4.6 2.7 6.8 4 13.1 7.6 24.7 14.2 30.4 17.3 14.2 7.6 25.4 23.6 29.9 33.2 1 1.8-0.2 4.3-2.4 4.8z" fill="#DBDBD9"/><g fill="#282828">
		<path d="m954.9 1269c-0.3 0.6-0.7 1.2-1.1 1.7-0.3 0.4-0.8 0.7-1.2 1-7.7 3.6-74.3 35.1-87.3 35.9-9.4 0.6-25.4-1.9-34.5-3.5-4-0.7-6.9-4.2-6.9-8.2 0-3.3 2-6.3 5-7.7 10.9-4.8 36.5-16.7 42.1-26.1 0.5-0.9 0.6-1.9 0.3-2.9 0 0 17.2 5.6 31.9 14.7 11.1 6.8 38.7-0.7 51.7-4.9z"/>
		<path d="m1107 1303c-1.5 1.8-11.8 8.4-17.9 12.3-2.9 1.8-6.3 2.8-9.7 2.8h-19.8c-6 0-11.5-2.9-15-7.8l-5.4-7.8c-0.7-1.1-0.9-2.4-0.3-3.6l4.9-10.8c0.4-0.8 0.4-1.7 0.2-2.4 0 0 5.6 3.5 10.4 0s16-10.4 28.9-5.2c6.7 2.7 15 4.4 21.6 5.4 0 0.2 0.1 0.4 0.1 0.5 1 3.8 3.8 14.5 2 16.6z"/>
		<path d="m1071 695.8c-27.1-11.2-33-69-33-69s0 0 0 0c4.7-3.2 9.3-7.3 14.1-12.8 0.4 2.5 0.6 4.6 0.8 6.3 1.1 13.4 12.6 57.2 18.1 75.5z" opacity=".22"/>
		</g><path d="m836.3 627.1c-0.1 0.3-0.1 0.6-0.2 1-0.2 0.7-0.3 1.4-0.6 2.1 0.5-1.9 0.8-3.4 1-4v-0.1c0.1-0.6 0.1-0.4-0.2 1z" fill="#EAEAEA"/>
		<path d="m848 1284s16.5 5.4 49.5 0.1c0 0-36.1 16.5-67.4 5.2l17.9-5.3z" fill="#fff" opacity=".19"/>
		<path d="m1045 1294-3.2 4.8s4.6 9.1 24.3 9 36.8-5.3 35.2-12.1c0 0-2.3 8.1-16.5 6.8-14.3-1.3-32.4 2.7-39.8-8.5z" fill="#fff" opacity=".19"/><g fill="#383838">
		<path d="m1113 655.6c-2.9 4.7-8.4 8.7-11.8 12.7-8.3 9.8-17.8 16.3-17.8 16.3-0.8 0.5-1.5 1-2.3 1.5 1-5.6 0-11-0.3-14.3-0.5-6.3-18.3-39.7-18.3-39.7s0 0 0-0.1l2.8-2.4 5.2-4.5c21.9 3.1 36.9 19.5 42.5 30.5z"/>
		<path d="m957 306.7-8.6-1.1c-5.7-0.7-11.3 1.9-14.4 6.7l-11.5 17.8-14.8-45.5c5.6-2.2 10.4-4.3 13.8-5.9l35.5 28z"/>
		<path d="m1019 281.4-26.2 48.6-12.6-18.2c-3.2-4.6-8.6-7-14.1-6.3l-9.4 1.1 21.6-14.7 28.9-19.7c2.3 2.8 5.1 5.3 8.3 7.2 1.1 0.7 2.2 1.3 3.5 2z"/>
		</g><path d="m1115 1248c-4.1-25.7-10.2-108.4-11.8-129.1-1.9-23.9-21.4-354.4-21.4-376.4s-5.2-29.8-9.1-40.5c-3.3-9.3-15.1-52.2-19-73.7-0.1-0.4-0.1-0.7-0.2-1-0.5-2.9-0.9-5.4-1-7.3-0.1-1.7-0.4-3.9-0.7-6.3-0.7-4.6-1.6-10.3-2.7-16.3-1.2-6.8-2.6-14.1-4-20.7-2.1-10.5-3.9-19.3-4.5-21.9-0.1-0.5-0.1-1 0-1.5 1.1-4.8 7-30.7 12.7-49-1.2-8.1-2.3-17.1-3.4-26.2-4.6-39.3-8-82.8-8-82.8s-1.6-81.4 16.5-91.1c-8.6-5-17.5-10.2-25.6-15 0 0-16.9-2.5-24.8 109.7-20 1.8-45.8 3.7-68.5 3.7-6.7 0-13.2-0.2-19.1-0.5-15.8-1-29-2.2-39.5-3.2-3.3-29.5 0-104.1 0-104.1-10.3 3.9-20 7.5-26.5 10.1-5.4 34-3.3 90.4-3.3 90.4-2.9 19.3-5.4 84.2-5.4 85.2 1.8 17.3 5.1 36.8 8.9 53.3 2.4 10.6 2.8 23.4 2.2 35.9-0.4 10.5-1.5 20.9-2.4 29.6-0.8 7.7-1.5 14-1.7 18.2 0 1.4 0 2.6 0.1 3.4 0.4 3.1-0.8 8.6-2.8 14.9-4.1 13.2-11.4 29.7-13.2 33.5-2.6 5.6 9.9 104.4 15.1 138s28.9 381.7 27.6 400.3c-0.4 6-0.9 9.7-1.3 12.3-0.1 0.6-0.2 1.1-0.3 1.6-0.6 3.9-0.8 4.7 0.2 9.9 0.8 4.1 0.1 5.9-1.4 6.9-1.6 1.1-4.1 1.3-6.4 2.6-3.6 2.1-0.3 14.1 0.9 18.1 0 0 4.5 1.5 10.9 4.1 6.1 2.5 13.8 6.1 21 10.6 11 6.8 38.6-0.7 51.6-4.9 8.6-16.7-0.7-77.9 0.1-86.9 0.7-8-3.7-177-5.2-265.7v-0.1c-0.3-16.8-0.4-30.6-0.4-40 0-47.3 4.4-109.8 6.2-132.8 0.3-3.4 4.4-4.4 6.4-2 0.2 0.3 0.3 0.5 0.3 0.5 13.5 22.8 23.7 79.6 26.3 94.7 3 17.3 6.5 68.1 15.1 117.3s25.9 289.9 27.2 296.3c0.2 1 0.5 1.7 1 2.4 2.6 3.8 8.9 3.6 9.3 8.4 0.3 3.7-3.1 7.5-5.4 10.3-1.2 1.5-2.1 2.8-2 3.5 0.3 1.6 5.8 6.7 8.8 9.5 0.5 0.5 0.9 1.1 1.1 1.8 0 0 5.6 3.5 10.4 0 3.3-2.4 9.6-6.4 17.5-7 2.2-0.2 4.5-0.1 6.9 0.4 1.5 0.3 3 0.7 4.5 1.3 6.7 2.7 15 4.4 21.6 5.4-0.1-0.6 0-1.2 0.3-1.8l8.1-19.8c2.4-5.4 3.1-11 2.2-16.5z" fill="#144681"/><g fill="#282828">
		<path d="m1054 628.5c-16.1 6.9-43.9 15.7-83.6 18.2-18.8 1.2-40.3 1-64.5-1.6-17.2-1.8-35.7-4.8-55.6-9.2 1.9-6.3 3.2-11.8 2.8-14.9-0.1-0.8-0.1-2-0.1-3.4 0.1-4.1 0.9-10.5 1.7-18.2 1.4 0.5 24.4 8.5 51.7 12.3 9.3 1.3 19 2.2 28.6 2.1 9.3 0 20.6-1 32.5-2.4 38.1-4.5 81.8-13.9 81.8-13.9 1.1 6 2.1 11.7 2.7 16.3 0.4 2.5 0.6 4.6 0.7 6.3 0.2 1.9 0.5 4.4 1 7.3 0.1 0.5 0.2 0.8 0.3 1.1z"/>
		<path d="m1115 1248c0.9 5.5 0.2 11.1-1.9 16.2l-8.1 19.8c-0.2 0.6-0.3 1.2-0.3 1.8-6.6-1-14.9-2.7-21.6-5.4-1.5-0.6-3-1.1-4.5-1.3l4.7-25.6c2-11.1 2.7-22.4 2-33.6-5.6-91.1-31.8-518.4-34.5-518.7-3.1-0.3-13.1-13-13.1-13-30.5 0.7-23.7-14.2-37.1-23.5-13.3-9.3 28.8-39 28.8-39l-15.6-0.8c29.1-6.8 31.2-48.2 31.2-48.2 2.5 12.4 5.3 27.2 6.7 37 0.4 2.5 0.6 4.6 0.7 6.3 0.2 1.9 0.5 4.4 1 7.3 3.7 21.1 15.8 65.2 19.2 74.7 3.9 10.8 9.1 18.5 9.1 40.5s19.4 352.4 21.4 376.4c1.7 20.8 7.8 103.4 11.9 129.1z" opacity=".4"/>
		<path d="m962.1 741.2c-2-2.5-6.2-1.4-6.4 2-1.8 23.1-6.2 85.6-6.2 132.8 0 9.4 0.2 23.3 0.4 40-0.3-3.2-8.2-102.7-7.3-137.9 0.9-35.8-9.1-62.6-9.1-62.6 14.4 5.6 26.5 22.5 28.6 25.7z" opacity=".6"/>
		<path d="m909.3 1252c-1.1 1.8-19.8-8.7-32.5-13.8 1.5-1 2.2-2.7 1.4-6.9-1-5.2-0.8-6-0.2-9.9 0.1 2.1 1.4 6.3 9.3 11.6 11.7 7.7 23.3 16.8 22 19z" opacity=".53"/>
		<path d="m1050 1266c-5.6 0.6-10 2.4-13.6 4.7 2.3-2.8 5.6-6.6 5.4-10.3-0.4-4.8-6.7-4.6-9.3-8.4 0.8 0.4 15.7 8.3 28.7 4.5 13.4-3.9 9.1 7.3-11.2 9.5z" opacity=".53"/>
		</g><path d="m1080 671.8c0.3 3.3 1.3 8.8 0.3 14.3-23.2 13.7-45.8-2.7-45.8-2.7-16.7 3-20.9-9.2-20.9-9.2-13.3 1.3-13.2-9.1-13.2-9.1-17.1-11.6 51.9-39.1 51.9-39.1 6.8-0.7 9.4 5.9 9.5 6.2-0.1-0.1 17.6 33.2 18.2 39.6z" fill="#FFB5A4"/><g fill="#686868">
		<path d="m1001 664.9c3.8-3.3 7.9-5.9 12.1-8.4s8.5-4.6 12.9-6.6c4.4-1.9 8.9-3.7 13.5-5.2s9.3-2.8 14.3-3.4l0.2 0.4-26.4 12-26.5 11.6-0.1-0.4z"/>
		<path d="m1014 674c3.1-2.7 6.4-4.8 9.8-6.6 3.4-1.9 6.9-3.3 10.5-4.8 3.6-1.3 7.2-2.5 11-3.3 3.8-0.9 7.6-1.5 11.7-1.5l0.1 0.4-21.4 8.3-21.6 7.9-0.1-0.4z"/>
		<path d="m1035 683.2c2.1-2.4 4.5-4.1 7-5.5 2.5-1.5 5.1-2.7 7.7-3.7 2.7-0.9 5.4-1.8 8.2-2.3s5.8-0.8 8.9-0.5l0.1 0.4-15.9 6.2-16 5.8v-0.4z"/>
		</g><path d="m880.9 399.1-29.8-3.6s-2.1-56.3 3.3-90.4c6.4-2.6 16.2-6.3 26.5-10.1 0 0-3.4 74.6 0 104.1z" fill="#282828"/>
		<path d="m1042 395.5-33.9 3.6c7.9-112.2 24.8-109.7 24.8-109.7 8 4.7 17 10 25.6 15-18.1 9.7-16.5 91.1-16.5 91.1z" fill="#282828"/>
		<circle cx="862.9" cy="399.1" r="12.2" fill="#D8A31E"/>
		<circle cx="1018" cy="399.1" r="12.2" fill="#D8A31E"/>
		<path d="m1041 553.5c-0.1 0.5-0.1 1 0 1.5l-95 75.3c-7 5.6-17 5.2-23.6-0.8l-65.2-59.6c0.5-12.5 0.2-25.3-2.2-35.9-3.8-16.5-7-36-8.9-53.3 0 0 15.1 38.9 23.4 40.9 6.6 1.6 48-18.3 64.4-26.4 4.2-2.1 9.1-1.9 13.2 0.4l39.6 22.2c4.2 2.3 9.4 2 13.2-0.9l50.4-38.6c1.1 9.2 2.2 18.1 3.4 26.2-5.6 18.2-11.6 44.2-12.7 49z" fill="#282828" opacity=".4"/>
		<path d="m906.6 605.9c-0.1-0.1-0.1-0.1 0-0.2v0.2z" fill="#282828"/>
		<path d="m970.2 646.8c-14.4 0.9-30.3 1-47.8-0.2-5.4-0.4-11-0.8-16.8-1.4-0.9-9.4-0.1-24.8 0.5-33.4 9.3 1.3 19 2.2 28.6 2.1 9.3 0 20.6-1 32.5-2.4 0.7 8.9 1.8 25.6 3 35.3z" fill="#DBDBDB"/>
		<path d="m970.2 646.8c-14.4 0.9-30.3 1-47.8-0.2 43.2-0.8 42.3-9.2 41.4-16.4-1-7.2-1.7-11.5-23.4-10.8s-34.3-7.6-34.3-7.6c9.3 1.3 19 2.2 28.6 2.1 9.3 0 20.6-1 32.5-2.4 0.7 8.9 1.8 25.6 3 35.3z" fill="#B7B7B7"/>
		<path d="m900.5 155.7s-11.5-32.6-4.2-50.4c3.3-8 14.9-13.6 26.6-17.2 18.8-5.9 39-7 58.3-2.8 12.3 2.7 24.8 7.5 29.5 16.4 10.5 19.6-7 53.1-7 53.1s-51.6-34.6-103.2 0.9z" fill="#DBDBD9"/>
		<path d="m1023 117.5c-4.1-16.3-21.4-24.7-21.4-24.7s0 0 0 0c3.9 2.4 7.1 5.3 9 8.8 10.5 19.6-7 53.1-7 53.1s-1.7-1.1-4.8-2.8c1.4 3.3 2.8 6.4 2.8 6.4l14.3 11.3c0-0.1 11.2-35.8 7.1-52.1z" fill="#0D3760"/>
		<path d="m889.1 173.9s27.9-31.1 54.6-33.5 51.7 29.1 60.1 29.1c8.4 0.1 12.3 0 12.3 0s-13-33.5-72.5-33.5c0 0-39.9-0.2-54.5 37.9z" fill="#144681"/>
		<g fill="#383838">
			<path d="m927 110.4c0.1-0.6 0.7-1 1.3-1 1.8 0 3.5-1.1 4.2-2.8s0.3-3.7-1.1-5c-0.5-0.4-0.5-1.1-0.2-1.5 1-1.2 2-2.3 3.2-3.3 0.5-0.4 1.1-0.3 1.6 0.2 1.2 1.3 3.4 1.8 5.1 1.1s2.9-2.5 2.7-4.4c0-0.6 0.4-1.1 1-1.2 1.5-0.2 3.1-0.2 4.6 0 0.6 0.1 1 0.6 1 1.2 0 0.9 0.2 1.8 0.7 2.5-0.2 0.2-0.5 0.4-0.7 0.7l-0.5 0.5c-0.9 1.1-1.6 2.4-1.9 3.7-0.1 0.5-0.2 1-0.2 1.5h-0.6c-5.6 0-10.1 4.5-10.1 10.1v0.5c-1 0.1-1.9 0.3-2.9 0.7-1.1 0.5-2 1.1-2.9 1.9-0.2 0.2-0.5 0.5-0.7 0.8-0.7-0.4-1.4-0.6-2.2-0.6h-0.2c-0.6 0-1.1-0.4-1.2-1-0.1-1.5-0.1-3.1 0-4.6zm36.9-1.7c0.7 0.4 1.5 0.6 2.4 0.6 0.7 0 1.1 0.4 1.2 1 0.2 1.5 0.2 3.1 0 4.6-0.1 0.6-0.8 1-1.4 1-1.7 0-3.5 1.1-4.2 2.8s-0.3 3.7 1.1 5c0.5 0.4 0.5 1.1 0.1 1.5-0.9 1.2-2 2.3-3.2 3.3-0.5 0.4-1.1 0.3-1.6-0.1-1.2-1.3-3.4-1.8-5.1-1.1s-2.9 2.5-2.7 4.4c0 0.6-0.4 1.1-1 1.2-0.8 0.1-1.6 0.2-2.4 0.2s-1.5 0-2.2-0.1c-0.6-0.1-1-0.6-1-1.2 0-0.9-0.2-1.8-0.7-2.6 0.2-0.2 0.5-0.4 0.7-0.6 1.2-1.2 2-2.6 2.4-4.2 0.1-0.5 0.2-1 0.2-1.5h0.6c5.6 0 10.1-4.5 10.1-10.1v-0.5c1-0.1 2-0.3 2.9-0.7 1.1-0.5 2.1-1.1 2.9-2l0.9-0.9z"/>
			<path d="m937.7 114.7c0.4 0 0.8 0 1.1 0.1 0.4 0.1 0.8 0.2 1.1 0.3l0.3 0.1 0.2-0.2 9.2-9.1 0.2-0.2-0.1-0.3c-0.4-1.3-0.5-2.7-0.2-4s1-2.5 2-3.5c0.7-0.7 1.5-1.2 2.4-1.6s1.8-0.5 2.8-0.5c0.5 0 1.1 0.1 1.6 0.2s1.1 0.3 1.6 0.5v0.1l-4.9 4.9c-0.2 0.2-0.4 0.5-0.5 0.8s-0.2 0.6-0.2 0.9 0.1 0.6 0.2 0.9 0.3 0.5 0.5 0.8c0.5 0.5 1.1 0.7 1.7 0.7s1.2-0.2 1.7-0.7l4.9-4.9v0.1c0.7 1.4 0.9 3 0.6 4.4-0.3 1.5-1 2.9-2.1 4-0.7 0.7-1.5 1.2-2.4 1.6s-1.9 0.6-2.8 0.6c-0.4 0-0.8 0-1.2-0.1s-0.8-0.2-1.1-0.3l-0.3-0.1-0.2 0.2-9.2 9.1-0.2 0.2 0.1 0.3c0.4 1.3 0.5 2.7 0.2 4s-1 2.5-2 3.5c-0.7 0.7-1.5 1.3-2.4 1.6-0.9 0.4-1.8 0.5-2.8 0.5-0.5 0-1.1-0.1-1.6-0.2s-1.1-0.3-1.6-0.5v-0.1l4.9-4.9c0.2-0.2 0.4-0.5 0.5-0.8s0.2-0.6 0.2-0.9-0.1-0.6-0.2-0.9-0.3-0.5-0.5-0.8c-0.5-0.5-1.1-0.7-1.7-0.7s-1.2 0.2-1.7 0.7l-4.9 4.9c-0.7-1.4-0.9-3-0.6-4.4 0.3-1.5 1-2.9 2.1-4 0.7-0.7 1.5-1.2 2.4-1.6 1-0.5 2-0.7 2.9-0.7z" clip-rule="evenodd" fill-rule="evenodd"/>
		</g>
		<path d="m780 301s-28.6 24.9-42.9 22.9c-13.7-1.9-12.9-18.1-12.8-19.4v-0.1c0.2-1.4 0.4-3.1 0.3-5.1-0.3-9.1 8.9-11.4 9.2-11.5-0.3 0.3-7.2 7.9 0 22.7 7.3 15.1 45.7-19.3 45.7-19.3l0.5 9.8z" fill="#383838"/>
		<path d="m726.1 278.4c-9.1-4.3-19.9-0.4-24.2 8.7s-0.4 19.9 8.7 24.2 19.9 0.4 24.2-8.7 0.4-19.9-8.7-24.2zm-6.9 27.7-10-4.7-0.9-11 9.1-6.3 10 4.7 0.9 11-9.1 6.3z" fill="#919191"/>
	

</svg>
