<svg style="enable-background:new 0 0 512.001 512.001" version="1.1" viewBox="0 0 512 512" xml:space="preserve" xmlns="http://www.w3.org/2000/svg">
<circle cx="68.66" cy="68.42" r="60.9" style="fill:#7be4ff"/>
<path d="m68.66 7.516c-3.415 0-6.76 0.295-10.02 0.835 28.87 4.781 50.88 29.85 50.88 60.07s-22.02 55.29-50.88 60.07c3.262 0.54 6.606 0.835 10.02 0.835 33.64 0 60.9-27.27 60.9-60.9s-27.27-60.9-60.9-60.9z" style="fill:#00c7fb"/>
<circle cx="443.3" cy="68.42" r="60.9" style="fill:#7be4ff"/>
<path d="m443.3 7.516c-3.415 0-6.76 0.295-10.02 0.835 28.87 4.781 50.88 29.85 50.88 60.07 0 30.22-22.02 55.29-50.88 60.07 3.262 0.54 6.606 0.835 10.02 0.835 33.64 0 60.9-27.27 60.9-60.9s-27.27-60.9-60.9-60.9z" style="fill:#00c7fb"/>
<circle cx="68.66" cy="443.6" r="60.9" style="fill:#7be4ff"/>
<path d="m68.66 382.7c-3.415 0-6.76 0.295-10.02 0.835 28.87 4.781 50.88 29.85 50.88 60.07s-22.02 55.29-50.88 60.07c3.262 0.54 6.606 0.835 10.02 0.835 33.64 0 60.9-27.27 60.9-60.9s-27.27-60.9-60.9-60.9z" style="fill:#00c7fb"/>
<circle cx="443.3" cy="443.6" r="60.9" style="fill:#7be4ff"/>
<path d="m443.3 382.7c-3.415 0-6.76 0.295-10.02 0.835 28.87 4.781 50.88 29.85 50.88 60.07s-22.02 55.29-50.88 60.07c3.262 0.54 6.606 0.835 10.02 0.835 33.64 0 60.9-27.27 60.9-60.9s-27.27-60.9-60.9-60.9z" style="fill:#00c7fb"/>
<circle cx="256.3" cy="270.6" r="134.8" style="fill:#fff"/>
<path d="m256.3 135.8c-3.371 0-6.713 0.127-10.02 0.371 69.74 5.128 124.7 63.33 124.7 134.4s-54.99 129.3-124.7 134.4c3.309 0.244 6.651 0.371 10.02 0.371 74.43 0 134.8-60.34 134.8-134.8s-60.33-134.8-134.8-134.8z" style="fill:#00c7fb"/>
<path d="m256.3 405.4c33.53 0 64.2-12.25 87.78-32.52-11.42-36.66-47.87-63.77-87.78-64.32-39.91 0.546-76.36 27.66-87.78 64.32 23.58 20.27 54.25 32.52 87.78 32.52z" style="fill:#7be4ff"/>
<path d="m324 372.8c1.481 4.348 2.578 8.427 3.334 12.26 5.888-3.663 11.47-7.765 16.71-12.26-11.42-36.66-47.87-63.77-87.78-64.32-3.37 0.046-6.714 0.297-10.02 0.712 35.86 4.496 67.3 30.04 77.76 63.61z" style="fill:#00c7fb"/>
<path d="m256.3 308.6c24.04 0 43.71-19.67 43.71-43.72v-37.62c0-24.04-19.67-43.72-43.71-43.72-24.04 0-43.71 19.67-43.71 43.72v37.62c-1e-3 24.04 19.67 43.72 43.71 43.72z" style="fill:#FFC89F"/>
<path d="m256.3 183.5c-3.448 0-6.8 0.417-10.02 1.181 19.25 4.563 33.69 21.94 33.69 42.54v37.62c0 20.6-14.44 37.97-33.69 42.54 3.222 0.764 6.574 1.181 10.02 1.181 24.04 0 43.71-19.67 43.71-43.72v-37.62c1e-3 -24.05-19.67-43.72-43.71-43.72z" style="fill:#F7B081"/>
<path d="m266.8 334.4h-21l-11.74-22.81c7.191-1.908 14.65-2.974 22.24-3.078 7.589 0.104 15.05 1.17 22.24 3.078l-11.74 22.81z" style="fill:#D3333C"/>
<path d="m264.6 309-12.84 25.39h15.03l11.74-22.81c-4.548-1.205-9.205-2.073-13.93-2.576z" style="fill:#7F1B20"/>
<path d="m256.3 334.4h-10.5l-12.18 52.85 19.73 18.06c0.981 0.021 1.962 0.037 2.948 0.037s1.967-0.016 2.948-0.037l19.73-18.06-12.18-52.85h-10.5z" style="fill:#F2464F"/>
<path d="m266.8 334.4h-15.03l12.18 52.85-15.16 13.87 4.568 4.181c0.981 0.021 1.962 0.037 2.948 0.037s1.967-0.016 2.948-0.037l19.73-18.06-12.18-52.85z" style="fill:#D3333C"/>
<path d="m92.01 420-32.9 32.91-13.8-13.8c-2.935-2.934-7.695-2.934-10.63 0-2.935 2.936-2.935 7.695 0 10.63l19.11 19.11c1.409 1.409 3.321 2.201 5.315 2.201 1.993 0 3.906-0.792 5.315-2.201l38.22-38.22c2.935-2.936 2.935-7.695 0-10.63-2.935-2.933-7.694-2.933-10.63 0z"/>
<path d="m443.3 375.2c-17.56 0-33.59 6.654-45.72 17.56l-31.74-31.34c10.8-13.03 19.4-28.11 25.1-44.78 1.341-3.929-0.756-8.201-4.684-9.543-3.927-1.342-8.2 0.757-9.542 4.684-5.776 16.91-14.89 31.98-26.43 44.62-0.039 0.038-0.081 0.07-0.119 0.109-0.194 0.197-0.375 0.404-0.543 0.616-0.84 0.905-1.695 1.795-2.559 2.674-6.882-15-17.88-28.46-31.76-38.68-8.791-6.47-18.56-11.48-28.78-14.89 12.71-9.332 20.98-24.37 20.98-41.31v-37.62c0-28.25-22.98-51.23-51.23-51.23s-51.23 22.98-51.23 51.23v37.62c0 16.94 8.27 31.98 20.98 41.31-10.22 3.406-19.98 8.421-28.78 14.89-13.86 10.2-24.84 23.64-31.72 38.6-22.55-22.97-36.49-54.43-36.49-89.09 0-12.83 1.9-25.48 5.647-37.61 1.226-3.966-0.997-8.175-4.963-9.401-3.968-1.225-8.175 0.997-9.401 4.963-4.192 13.57-6.317 27.71-6.317 42.05 0 34.12 12.08 65.46 32.17 90l-32.26 31.75c-12.07-10.68-27.93-17.19-45.28-17.19-37.73 0-68.42 30.69-68.42 68.42 0 37.73 30.69 68.42 68.42 68.42s68.42-30.69 68.42-68.42c0-14.97-4.844-28.82-13.03-40.09l32.28-31.77c2.154 2.129 4.372 4.192 6.656 6.181 0.202 0.22 0.409 0.439 0.639 0.637 11.2 9.626 23.75 17.37 37.16 23.05 0.074 0.032 0.147 0.065 0.222 0.096 0.336 0.141 0.673 0.275 1.01 0.413 12.02 4.979 24.86 8.354 38.25 9.865 0.108 0.012 0.216 0.025 0.325 0.037 0.861 0.095 1.724 0.181 2.59 0.261 0.303 0.028 0.605 0.055 0.909 0.081 0.736 0.063 1.473 0.122 2.213 0.173 0.461 0.033 0.924 0.06 1.386 0.088 0.62 0.037 1.242 0.075 1.864 0.104 0.639 0.03 1.28 0.051 1.92 0.073 0.473 0.016 0.945 0.036 1.419 0.048 1.136 0.027 2.274 0.043 3.413 0.043 1.731 0 3.457-0.04 5.18-0.102 0.259-9e-3 0.517-0.015 0.776-0.026 1.58-0.066 3.157-0.163 4.73-0.282 0.408-0.03 0.816-0.062 1.224-0.096 1.471-0.123 2.94-0.269 4.405-0.437 0.51-0.059 1.018-0.124 1.526-0.188 1.28-0.162 2.558-0.337 3.831-0.533 0.681-0.104 1.36-0.219 2.039-0.335 0.949-0.16 1.895-0.33 2.839-0.51 0.961-0.182 1.918-0.375 2.873-0.576 0.861-0.182 1.72-0.37 2.576-0.567 0.787-0.181 1.572-0.366 2.355-0.56 1.077-0.268 2.152-0.549 3.222-0.842 0.851-0.232 1.698-0.476 2.543-0.725 0.542-0.159 1.08-0.326 1.621-0.491 1.362-0.418 2.716-0.854 4.061-1.311 0.471-0.16 0.941-0.323 1.41-0.488 1.412-0.497 2.814-1.016 4.208-1.556 0.432-0.167 0.865-0.334 1.295-0.505 2.699-1.076 5.36-2.233 7.98-3.469 0.418-0.197 0.834-0.401 1.25-0.601 1.353-0.654 2.694-1.328 4.024-2.023 0.422-0.221 0.844-0.444 1.265-0.669 1.354-0.726 2.694-1.474 4.023-2.243 0.364-0.21 0.729-0.418 1.09-0.632 2.561-1.511 5.07-3.103 7.528-4.77 0.218-0.148 0.436-0.299 0.653-0.449 1.547-1.061 3.073-2.153 4.577-3.275 0.076-0.057 0.152-0.113 0.228-0.169 4.927-3.69 9.629-7.681 14.05-11.99l31.92 31.51c-7.977 11.19-12.69 24.86-12.69 39.62 0 37.73 30.69 68.42 68.42 68.42s68.42-30.69 68.42-68.42c2e-3 -37.72-30.69-68.42-68.42-68.42zm-108.1-4.788c-2.092 1.657-4.231 3.244-6.415 4.759-0.036 0.025-0.073 0.05-0.109 0.075-1.342 0.929-2.701 1.83-4.074 2.705-0.218 0.139-0.437 0.277-0.656 0.415-1.208 0.759-2.427 1.496-3.658 2.213-0.285 0.166-0.57 0.333-0.856 0.496-1.19 0.68-2.39 1.339-3.599 1.98-0.309 0.163-0.615 0.329-0.925 0.49-1.343 0.698-2.699 1.369-4.065 2.018-0.172 0.082-0.344 0.167-0.517 0.249-0.757 0.355-1.516 0.702-2.28 1.042-0.321 0.142-0.643 0.28-0.965 0.42-1.235 0.538-2.475 1.059-3.726 1.557-0.384 0.153-0.771 0.302-1.157 0.451-1.191 0.461-2.386 0.906-3.59 1.331-0.428 0.151-0.857 0.299-1.287 0.445-1.151 0.393-2.306 0.768-3.468 1.127-0.491 0.152-0.983 0.302-1.476 0.448-1.056 0.313-2.118 0.61-3.182 0.896-0.613 0.164-1.227 0.327-1.843 0.482-0.768 0.193-1.535 0.382-2.307 0.561-0.927 0.215-1.857 0.42-2.79 0.614-0.353 0.074-0.708 0.143-1.061 0.214l2.788-2.552c1.998-1.828 2.858-4.592 2.25-7.232l-11.56-50.17 7.599-14.76c23.87 8.174 43.98 26.55 52.93 49.73zm-83.49-28.44h9.037l9.849 42.75-14.37 13.15-14.37-13.15 9.846-42.75zm-5.401-25.13c0.197-0.027 0.394-0.053 0.591-0.078 0.787-0.102 1.576-0.189 2.366-0.27 0.278-0.028 0.555-0.057 0.833-0.082 0.749-0.068 1.499-0.12 2.25-0.167 0.281-0.017 0.56-0.04 0.841-0.055 0.599-0.031 1.201-0.044 1.801-0.063 0.412 0.01 0.822 0.031 1.236 0.031s0.824-0.021 1.236-0.031c0.6 0.018 1.202 0.031 1.801 0.063 0.281 0.015 0.561 0.038 0.843 0.055 0.751 0.047 1.501 0.1 2.249 0.167 0.278 0.025 0.555 0.055 0.833 0.082 0.791 0.079 1.58 0.167 2.367 0.27 0.196 0.025 0.394 0.051 0.59 0.078 0.371 0.051 0.739 0.114 1.108 0.169l-5.111 9.931h-11.83l-5.111-9.931c0.37-0.055 0.738-0.118 1.108-0.169zm-26.28-71.08c32.53-3.072 44.61-25.44 44.61-25.44s7.807 20.56 27.79 24.96v19.65c0 19.49-15.48 35.42-34.78 36.16-0.438-0.012-0.876-0.032-1.314-0.038-0.068-2e-3 -0.137-2e-3 -0.205 0-0.438 6e-3 -0.876 0.026-1.314 0.038-19.3-0.748-34.78-16.68-34.78-36.16v-19.17h-1e-3zm10.16 74.93 7.6 14.76-11.56 50.17c-0.608 2.64 0.252 5.403 2.25 7.232l2.788 2.552c-7.667-1.534-15.17-3.767-22.4-6.669-0.682-0.275-1.365-0.549-2.041-0.836-0.123-0.052-0.245-0.106-0.368-0.159-10.52-4.491-20.32-10.36-29.17-17.38 8.95-23.15 29.05-41.51 52.9-49.67zm-161.6 176.3c-29.44 0-53.39-23.95-53.39-53.39 0-29.44 23.95-53.39 53.39-53.39s53.39 23.95 53.39 53.39c1e-3 29.44-23.95 53.39-53.39 53.39zm374.7 0c-29.44 0-53.39-23.95-53.39-53.39 0-29.44 23.95-53.39 53.39-53.39s53.39 23.95 53.39 53.39c0 29.44-23.95 53.39-53.39 53.39z"/>
<path d="m466.7 420-32.9 32.91-13.8-13.8c-2.935-2.934-7.695-2.934-10.63 0-2.935 2.936-2.935 7.695 0 10.63l19.11 19.11c1.409 1.409 3.321 2.201 5.315 2.201 1.993 0 3.906-0.792 5.315-2.201l38.22-38.22c2.935-2.936 2.935-7.695 0-10.63-2.935-2.933-7.694-2.933-10.63 0z"/>
<path d="m53.79 93.72c1.409 1.409 3.321 2.201 5.315 2.201 1.993 0 3.906-0.792 5.315-2.201l38.22-38.22c2.935-2.936 2.935-7.695 0-10.63-2.935-2.934-7.695-2.934-10.63 0l-32.9 32.9-13.8-13.8c-2.935-2.934-7.695-2.934-10.63 0-2.935 2.936-2.935 7.695 0 10.63l19.11 19.11z"/>
<path d="m68.66 136.8c13.7 0 26.46-4.063 37.18-11.03l47.35 46.74c-8.577 9.023-16.06 19.24-22.14 30.52-1.972 3.653-0.61 8.213 3.042 10.18 3.653 1.974 8.213 0.611 10.18-3.041 22.28-41.25 65.21-66.87 112-66.87 70.16 0 127.2 57.08 127.2 127.2 0 5.932-0.412 11.9-1.224 17.73-0.572 4.112 2.296 7.909 6.408 8.482 0.352 0.049 0.701 0.072 1.046 0.072 3.691 0 6.911-2.721 7.435-6.481 0.907-6.513 1.367-13.18 1.367-19.8 0-38.27-15.19-73.05-39.86-98.65l47.01-46.4c10.8 7.133 23.72 11.3 37.6 11.3 37.73 0 68.42-30.69 68.42-68.42s-30.69-68.42-68.42-68.42-68.42 30.69-68.42 68.42c0 18.42 7.329 35.15 19.21 47.46l-46.39 45.79c-24.74-20.8-56.64-33.36-91.42-33.36-34.38 0-66.88 12.35-92.2 33.89l-46.57-45.97c12.08-12.34 19.55-29.22 19.55-47.82-1e-3 -37.73-30.69-68.42-68.42-68.42s-68.42 30.69-68.42 68.42 30.69 68.42 68.42 68.42zm321.3-68.42c0-29.44 23.95-53.39 53.39-53.39s53.39 23.95 53.39 53.39-23.95 53.39-53.39 53.39c-29.44 2e-3 -53.39-23.95-53.39-53.39zm-321.3-53.39c29.44 0 53.39 23.95 53.39 53.39s-23.95 53.39-53.39 53.39-53.39-23.95-53.39-53.39 23.95-53.39 53.39-53.39z"/>
<path d="m428.5 93.72c1.409 1.409 3.321 2.201 5.315 2.201 1.993 0 3.906-0.792 5.315-2.201l38.22-38.22c2.935-2.936 2.935-7.695 0-10.63-2.935-2.934-7.695-2.934-10.63 0l-32.9 32.91-13.8-13.8c-2.935-2.934-7.695-2.934-10.63 0-2.935 2.936-2.935 7.695 0 10.63l19.11 19.11z"/>















</svg>
