<svg width="496pt" height="496pt" version="1.1" viewBox="-7 0 495 496" xmlns="http://www.w3.org/2000/svg" xmlns:xlink="http://www.w3.org/1999/xlink">
 <defs>
  <linearGradient id="a" x1="241.4" x2="241.4" y1="496" gradientUnits="userSpaceOnUse">
   <stop stop-color="#0bb1d3" style="stop-color:#0eaed4" offset="0"/>
   <stop stop-color="#9f2fff" style="stop-color:#fff" offset="1"/>
  </linearGradient>
  <radialGradient id="radialGradient833" cx="241.4" cy="248" r="240.9" gradientTransform="matrix(1 0 0 1.03 0 -7.335)" gradientUnits="userSpaceOnUse" xlink:href="#a"/>
 </defs>
 <path d="m217.4 227.1v41.89l24 12 24-12v-41.89l-24-12zm32 32-8 4-8-4v-22.11l8-4 8 4zm-8-259.1c-13.23 0-24 10.77-24 24v8.887l-23.7-20.31c-3.457-2.949-7.848-4.574-12.39-4.574h-0.875c-10.5 0-19.04 8.535-19.04 19.04 0 5.426 2.32 10.6 6.395 14.23l49.61 44.1v25.75l-23.69-20.3c-3.449-2.961-7.848-4.594-12.4-4.594h-0.875c-10.5 0-19.04 8.547-19.04 19.05 0 2.102 0.4492 4.141 1.113 6.094-1.359-1.551-2.898-2.961-4.73-4-4.391-2.543-9.504-3.215-14.45-1.91-4.914 1.312-9.023 4.473-11.57 8.871l-0.4297 0.75c-2.273 3.93-3.074 8.555-2.234 13.03l5.746 30.68-22.3-12.88-13.38-65.01c-1.098-5.316-4.426-9.934-9.137-12.66-9.098-5.246-20.76-2.109-26.01 6.977l-0.4336 0.7539c-2.27 3.926-3.07 8.551-2.23 13.02l5.742 30.68-7.703-4.457c-5.535-3.191-11.98-4.062-18.21-2.391-6.191 1.648-11.36 5.625-14.57 11.17-6.617 11.46-2.684 26.17 8.781 32.79l7.703 4.445-29.42 10.36c-4.281 1.504-7.895 4.496-10.18 8.438l-0.4414 0.7617c-5.246 9.102-2.129 20.77 6.969 26.02 4.719 2.719 10.38 3.289 15.52 1.574l62.99-20.91 22.3 12.87-29.43 10.36c-4.285 1.504-7.902 4.504-10.18 8.449l-0.4375 0.7617c-5.242 9.094-2.121 20.76 6.965 26.01 1.84 1.062 3.84 1.672 5.883 2.07-2.043 0.3984-4.043 1.039-5.883 2.098-9.086 5.246-12.21 16.91-6.965 26.01l0.4375 0.7578c2.273 3.938 5.891 6.938 10.17 8.449l29.43 10.36-22.3 12.87-62.98-20.9c-5.168-1.754-10.82-1.16-15.54 1.551-9.098 5.242-12.21 16.91-6.969 26.02l0.4492 0.7695c2.273 3.926 5.887 6.926 10.17 8.43l29.43 10.36-7.719 4.438c-11.46 6.625-15.39 21.34-8.773 32.79 3.199 5.551 8.375 9.527 14.57 11.18 6.191 1.664 12.66 0.8164 18.21-2.391l7.703-4.457-5.734 30.67c-0.8398 4.48-0.04688 9.105 2.215 13.02l0.4414 0.7617c3.52 6.102 9.938 9.52 16.52 9.52 3.223 0 6.496-0.8242 9.488-2.543 4.711-2.723 8.039-7.336 9.137-12.66l13.38-65.01 22.3-12.88-5.738 30.67c-0.8398 4.48-0.04688 9.105 2.219 13.03l0.4375 0.7578c2.547 4.41 6.656 7.559 11.57 8.871 4.934 1.328 10.05 0.6328 14.42-1.895 1.84-1.055 3.387-2.465 4.746-4.023-0.6562 1.961-1.105 3.992-1.105 6.102 0 10.5 8.535 19.05 19.04 19.05h0.875c4.543 0 8.949-1.633 12.39-4.586l23.7-20.32v25.75l-49.62 44.11c-4.055 3.625-6.375 8.801-6.375 14.23 0 10.5 8.535 19.04 19.04 19.04h0.875c4.535 0 8.934-1.625 12.39-4.586l23.7-20.3v8.887c0 13.23 10.77 24 24 24 13.23 0 24-10.77 24-24v-8.887l23.7 20.31c3.457 2.949 7.848 4.574 12.39 4.574h0.8711c10.5 0 19.04-8.535 19.04-19.04 0-5.426-2.32-10.6-6.391-14.23l-49.61-44.1v-25.75l23.69 20.3c3.449 2.961 7.848 4.594 12.4 4.594h0.8711c10.5 0 19.04-8.547 19.04-19.05 0-2.102-0.4492-4.141-1.109-6.094 1.359 1.551 2.895 2.961 4.727 4 4.391 2.551 9.52 3.238 14.45 1.91 4.91-1.312 9.023-4.473 11.57-8.871l0.4336-0.75c2.27-3.93 3.07-8.555 2.23-13.03l-5.746-30.68 22.3 12.88 13.39 65.01c1.094 5.316 4.422 9.934 9.133 12.66 2.992 1.727 6.258 2.543 9.488 2.543 6.586 0 13-3.426 16.52-9.52l0.4336-0.7539c2.273-3.926 3.07-8.551 2.23-13.02l-5.742-30.68 7.703 4.457c5.535 3.191 11.99 4.055 18.21 2.391 6.195-1.656 11.37-5.633 14.57-11.18 6.617-11.46 2.68-26.17-8.785-32.79l-7.703-4.445 29.42-10.36c4.281-1.504 7.898-4.496 10.18-8.438l0.4375-0.7617c5.25-9.102 2.129-20.78-6.969-26.02-4.727-2.719-10.38-3.281-15.52-1.574l-62.99 20.91-22.3-12.87 29.43-10.36c4.289-1.504 7.902-4.504 10.18-8.449l0.4414-0.7617c5.238-9.094 2.117-20.76-6.969-26.01-1.84-1.062-3.84-1.695-5.879-2.094 2.039-0.4023 4.039-1.016 5.879-2.074 9.086-5.246 12.21-16.91 6.969-26.01l-0.4414-0.7578c-2.273-3.938-5.887-6.938-10.17-8.449l-29.43-10.36 22.3-12.87 62.98 20.9c5.168 1.727 10.82 1.152 15.54-1.566 9.098-5.242 12.22-16.91 6.969-26.02l-0.4492-0.7695c-2.27-3.93-5.887-6.93-10.17-8.434l-29.43-10.36 7.711-4.445c11.46-6.625 15.39-21.34 8.777-32.79-3.199-5.551-8.375-9.527-14.57-11.18-6.184-1.664-12.66-0.8164-18.21 2.391l-7.703 4.457 5.734-30.67c0.8398-4.48 0.05078-9.105-2.215-13.02l-0.4414-0.7617c-5.246-9.086-16.91-12.22-26.01-6.977-4.711 2.723-8.039 7.336-9.133 12.66l-13.39 65.01-22.3 12.87 5.738-30.67c0.8398-4.477 0.04688-9.102-2.215-13.02l-0.4414-0.7578c-2.543-4.41-6.656-7.562-11.57-8.875-4.922-1.301-10.06-0.6289-14.43 1.898-1.84 1.055-3.383 2.465-4.742 4.023 0.6602-1.93 1.109-3.961 1.109-6.07 0-10.5-8.535-19.05-19.04-19.05h-0.8711c-4.547 0-8.953 1.633-12.39 4.586l-23.7 20.32v-25.75l49.62-44.11c4.055-3.625 6.375-8.801 6.375-14.23 0-10.5-8.535-19.04-19.04-19.04h-0.8711c-4.539 0-8.938 1.625-12.39 4.586l-23.7 20.3v-8.887c0-13.23-10.77-24-24-24zm-73.61 119.5 49.61 44.1v23.46l-17.98 8.992-19.12-11.04-13.39-64.99c-0.1602-0.793-0.4727-1.527-0.7266-2.289 0.5273 0.6016 1.008 1.234 1.609 1.77zm113.6 93.45v70.11l-40 20-40-20v-70.11l40-20zm16 30.44 29.11-16.8 63 20.91c0.7031 0.2305 1.43 0.375 2.152 0.5273-0.7227 0.1523-1.457 0.2344-2.16 0.4727l-62.99 20.91-29.11-16.79zm-112 9.234-29.1 16.8-63-20.91c-0.707-0.2305-1.434-0.3203-2.152-0.4727 0.7266-0.1523 1.445-0.2969 2.16-0.5273l62.99-20.91 29.1 16.8zm-100.7-24.71 0.4375-0.7578c0.3711-0.6328 0.9375-1.113 1.625-1.352l62.24-21.92-58.64-33.86-69.83 23.18c-0.8242 0.2812-1.723 0.1758-2.465-0.2539-0.9453-0.5469-1.289-1.395-1.414-1.84-0.1289-0.4492-0.2422-1.363 0.3008-2.312l0.4336-0.7539c0.3672-0.6328 0.9453-1.109 1.633-1.352l62.24-21.92-37.82-21.83c-3.824-2.203-5.145-7.113-2.926-10.94 1.07-1.84 2.789-3.168 4.848-3.719 2.086-0.5547 4.215-0.2734 6.07 0.7969l37.83 21.84-12.14-64.88c-0.1367-0.7109-0.007812-1.445 0.3594-2.07l0.4414-0.7617c0.8398-1.453 2.695-1.941 4.152-1.117 0.7617 0.4375 1.289 1.168 1.465 2.016l14.83 72.05 58.64 33.86-12.14-64.87c-0.1367-0.7109-0.007813-1.449 0.3594-2.074l0.4414-0.7578c0.543-0.9531 1.391-1.297 1.84-1.426 0.4609-0.1016 1.352-0.2305 2.32 0.3203 0.7422 0.4336 1.27 1.16 1.445 2.016l14.83 72.04 19.33 11.16v18.48l-27.32-15.77-69.82 23.18c-0.832 0.2734-1.734 0.1758-2.488-0.2578-1.438-0.8398-1.934-2.695-1.102-4.152zm66.57 144.9c-0.168 0.8398-0.7031 1.566-1.473 2.016-0.9414 0.5352-1.84 0.4141-2.293 0.3047-0.457-0.1289-1.297-0.4727-1.84-1.426l-0.4492-0.7695c-0.3594-0.6133-0.4883-1.352-0.3438-2.07l12.14-64.86-58.64 33.86-14.83 72.05c-0.168 0.8398-0.7031 1.578-1.465 2.016-1.465 0.8242-3.312 0.3359-4.152-1.117l-0.4492-0.7695c-0.3594-0.6172-0.4883-1.352-0.3438-2.07l12.14-64.87-37.83 21.84c-1.848 1.062-4.023 1.352-6.07 0.7969-2.059-0.543-3.77-1.871-4.84-3.719-2.211-3.824-0.8906-8.727 2.918-10.93l37.83-21.83-62.25-21.92c-0.6797-0.2422-1.258-0.7188-1.617-1.344l-0.4414-0.7617c-0.543-0.9492-0.4297-1.855-0.3008-2.312 0.125-0.4531 0.4688-1.293 1.414-1.84 0.7617-0.4375 1.656-0.5352 2.48-0.2461l69.82 23.18 58.64-33.86-62.25-21.92c-0.6797-0.2383-1.246-0.7188-1.613-1.352l-0.4414-0.7578c-0.832-1.457-0.3359-3.312 1.113-4.152 0.75-0.4414 1.664-0.5195 2.477-0.2578l69.82 23.18 27.3-15.77v18.48l-19.32 11.15zm14.95 5.473c0.2539-0.7461 0.5586-1.473 0.7188-2.258l13.39-65.01 19.12-11.04 17.98 8.992v23.46l-49.62 44.11c-0.5898 0.5273-1.07 1.152-1.59 1.746zm136.2 15.53h-0.8711c-0.7305 0-1.426-0.2578-1.984-0.7461l-50.11-42.93v67.71l54.97 48.86c0.6562 0.5859 1.031 1.426 1.031 2.289 0 1.68-1.359 3.039-3.039 3.039h-0.8711c-0.7305 0-1.434-0.2578-1.984-0.7266l-50.11-42.96v43.69c0 4.414-3.582 8-8 8-4.414 0-8-3.586-8-8v-43.69l-50.1 42.95c-0.5547 0.4766-1.258 0.7344-1.984 0.7344h-0.875c-1.68 0-3.039-1.359-3.039-3.039 0-0.8633 0.375-1.703 1.016-2.281l54.98-48.86v-67.71l-50.11 42.94c-0.5547 0.4805-1.25 0.7383-1.977 0.7383h-0.875c-1.68 0-3.039-1.371-3.039-3.051 0-0.8633 0.375-1.695 1.016-2.27l54.98-48.87v-22.65l8 4 8-4v22.65l54.98 48.86c0.6484 0.582 1.023 1.406 1.023 2.277 0 1.68-1.359 3.051-3.039 3.051zm12.65-17.28-49.61-44.1v-23.46l17.98-8.992 19.12 11.04 13.38 64.99c0.1602 0.793 0.4727 1.527 0.7266 2.289-0.5273-0.6016-1.008-1.234-1.605-1.77zm83.12-108.4-0.4414 0.7578c-0.3672 0.6328-0.9375 1.113-1.625 1.352l-62.24 21.92 58.64 33.86 69.83-23.18c0.8203-0.2656 1.719-0.168 2.461 0.2539 0.9453 0.5469 1.289 1.395 1.418 1.84 0.1289 0.4492 0.2383 1.363-0.3047 2.312l-0.4336 0.7539c-0.3672 0.6328-0.9414 1.109-1.629 1.352l-62.24 21.92 37.82 21.83c3.824 2.203 5.145 7.113 2.93 10.94-1.074 1.84-2.793 3.168-4.848 3.719-2.082 0.5625-4.211 0.2734-6.074-0.7969l-37.83-21.84 12.14 64.88c0.1367 0.7109 0.007812 1.445-0.3594 2.07l-0.4414 0.7617c-0.832 1.453-2.688 1.949-4.152 1.117-0.7578-0.4375-1.285-1.168-1.461-2.016l-14.83-72.05-58.64-33.86 12.14 64.87c0.1328 0.7109 0.007813 1.449-0.3633 2.074l-0.4375 0.7578c-0.543 0.9531-1.395 1.297-1.84 1.426-0.457 0.1172-1.344 0.2383-2.32-0.3203-0.7461-0.4336-1.273-1.16-1.449-2.016l-14.83-72.04-19.33-11.16v-18.48l27.32 15.77 69.82-23.18c0.832-0.2617 1.734-0.1758 2.488 0.2578 1.441 0.8398 1.938 2.695 1.105 4.152zm-66.57-144.9c0.168-0.8398 0.7031-1.566 1.473-2.016 0.9375-0.5508 1.832-0.4219 2.297-0.3047 0.4531 0.1289 1.297 0.4727 1.84 1.426l0.4453 0.7695c0.3633 0.6133 0.4883 1.352 0.3477 2.07l-12.14 64.86 58.64-33.86 14.83-72.05c0.168-0.8398 0.7031-1.578 1.461-2.016 1.449-0.8398 3.305-0.3438 4.152 1.117l0.4492 0.7695c0.3594 0.6172 0.4883 1.352 0.3438 2.07l-12.14 64.87 37.83-21.84c1.848-1.07 4.008-1.367 6.074-0.7969 2.062 0.543 3.781 1.871 4.848 3.727 2.207 3.824 0.8867 8.727-2.922 10.93l-37.83 21.83 62.25 21.92c0.6797 0.2422 1.254 0.7188 1.613 1.344l0.4414 0.7617c0.543 0.9492 0.4336 1.855 0.3047 2.312-0.1289 0.4531-0.4727 1.293-1.418 1.84-0.7578 0.4453-1.648 0.5352-2.48 0.2461l-69.82-23.18-58.64 33.86 62.25 21.92c0.6797 0.2383 1.25 0.7188 1.617 1.352l0.4375 0.7578c0.832 1.457 0.3398 3.312-1.109 4.152-0.7539 0.4414-1.664 0.5312-2.48 0.2578l-69.82-23.18-27.3 15.77v-18.48l19.32-11.15zm-14.95-5.473c-0.2539 0.7461-0.5586 1.473-0.7188 2.258l-13.38 65.01-19.12 11.04-17.98-8.992v-23.46l49.62-44.11c0.5898-0.5273 1.07-1.152 1.59-1.746zm-17.1-93.01c0.5508-0.4766 1.254-0.7344 1.984-0.7344h0.8711c1.68 0 3.039 1.359 3.039 3.039 0 0.8633-0.375 1.703-1.016 2.281l-54.98 48.86v67.71l50.11-42.94c0.5508-0.4805 1.246-0.7383 1.977-0.7383h0.8711c1.68 0 3.039 1.371 3.039 3.051 0 0.8633-0.375 1.695-1.016 2.27l-54.98 48.87v22.65l-8-4-8 4v-22.65l-54.98-48.86c-0.6484-0.582-1.023-1.406-1.023-2.277 0-1.68 1.359-3.051 3.039-3.051h0.875c0.7266 0 1.422 0.2578 1.984 0.7461l50.1 42.93v-67.71l-54.97-48.86c-0.6562-0.5859-1.031-1.426-1.031-2.289 0-1.68 1.359-3.039 3.039-3.039h0.875c0.7266 0 1.43 0.2578 1.984 0.7266l50.1 42.96v-43.69c0-4.414 3.586-8 8-8 4.418 0 8 3.586 8 8v43.69z" fill="url(#a)" style="fill:url(#radialGradient833);stroke:url(#radialGradient833)"/>
</svg>
