<svg style="enable-background:new 0 0 477.518 477.518" version="1.1" viewBox="0 0 477.5 477.5" xml:space="preserve" xmlns="http://www.w3.org/2000/svg">






<g transform="matrix(.879 0 0 .879 28.9 28.9)">
	<rect x="-27.24" y="-24.98" width="532" height="527.5" rx="47.36" ry="42.66" style="fill:#7be4fb;paint-order:markers stroke fill"/><path d="m276.9 57.47c-10.45-16.72-23.51-31.87-37.62-46.5-15.15 14.63-27.69 30.3-38.14 47.02 22.99 14.63 52.77 14.63 75.76-0.522z" style="fill:#00bbd3"/>
	<path d="m239.3 322.9c12.02 0 19.33-2.612 20.9-4.18 14.63-20.9 25.08-42.32 31.87-65.31-33.96 17.24-73.66 16.72-107.1-0.522 7.314 22.99 17.24 43.89 29.78 63.22 1.567 2.09 10.45 6.27 24.56 6.792z" style="fill:#00bbd3"/>
</g><path d="m168 233.7c0.4588 2.756 1.377 5.051 1.837 7.807 0.4588 2.296 0.9185 4.592 1.837 6.889 0 2.296 0.9185 4.133 1.377 5.51 1.377 4.592 2.756 8.726 4.592 13.32 0 0.4588 0.4588 0.4588 0.4588 0.9185 6.429 17.45 14.69 33.98 24.8 49.6 7.347 10.1 24.34 13.78 38.57 13.78h0.4588c8.726 0 24.8-1.837 31.69-11.48 11.48-16.53 20.21-33.98 26.63-51.89 0-0.4588 0-0.4588 0.4588-0.9185 1.837-4.592 3.214-9.184 4.592-13.78 0.4588-0.9185 0.4588-1.377 0.4588-2.296 0-0.4588 0.4588-0.9185 0.4588-1.377v-0.4588l0.4588-2.756c1.377-4.593 2.296-9.184 3.214-13.78 2.756-14.24 4.133-28.93 4.133-43.17v-7.347c-0.9185-37.66-11.94-73.93-33.52-107.5-9.184-14.24-20.66-28.93-34.9-43.17-3.674-3.674-9.184-3.674-12.86 0-13.78 13.32-24.8 27.09-34.9 43.17-20.66 33.52-32.14 69.34-33.52 107v0.4588 7.347c-0.4553 14.23 0.922 29.39 3.678 44.08z" style="fill:#008cb4;stroke-width:.879"/>















<g transform="matrix(.879 0 0 .879 28.9 28.9)">
	<path d="m426.3 457.7c0-31.87-26.12-57.99-57.99-57.99-24.56 0-45.98 15.15-54.34 37.62-16.2 2.09-31.35 10.97-40.75 24.56h153.1v-4.179z" style="fill:#00c7fb"/>
	<path d="m179.7 438.9h-2.612c-6.269-20.9-25.08-35.53-47.54-35.53-15.67 0-30.3 7.314-39.71 19.33-3.657-0.522-6.792-1.045-10.45-1.045-24.56 0-45.45 17.24-50.68 40.23h189.6c-7.314-13.58-22.46-22.99-38.66-22.99z" style="fill:#00c7fb"/>
</g><path d="m435.3 430.3h-393.1c-5.051 0-9.184 4.133-9.184 9.184 0 5.051 4.133 9.184 9.184 9.184h393.1c5.051 0 9.184-4.133 9.184-9.184 0-5.051-4.133-9.184-9.184-9.184z" style="fill:#3a2c51;stroke-width:.879"/><g transform="matrix(.879 0 0 .879 28.9 28.9)">
	<path d="m228.3 377.7v35c0 5.747 4.702 10.45 10.45 10.45s10.45-4.702 10.45-10.45v-35c0-5.747-4.702-10.45-10.45-10.45s-10.45 4.702-10.45 10.45z" style="fill:#fff"/>
	<path d="m271.2 367.8v30.3c0 5.747 4.702 10.45 10.45 10.45s10.45-4.702 10.45-10.45v-30.3c0-5.747-4.702-10.45-10.45-10.45s-10.45 4.702-10.45 10.45z" style="fill:#fff"/>
	<path d="m185.5 367.8v25.08c0 5.747 4.702 10.45 10.45 10.45s10.45-4.702 10.45-10.45v-25.08c0-5.747-4.702-10.45-10.45-10.45s-10.45 4.702-10.45 10.45z" style="fill:#fff"/>
</g><g transform="matrix(.879 0 0 .879 28.9 28.9)">
	<path d="m128 308.2c2.612 0 5.224-1.045 6.792-2.612l37.09-33.44c0-0.522-0.522-0.522-0.522-1.045-2.09-5.224-3.657-9.927-5.224-15.15-0.522-1.567-1.567-3.657-1.567-6.269-1.045-2.612-1.567-5.224-2.09-7.837-0.522-3.135-1.567-5.747-2.09-8.359v-0.522c-3.135-16.72-4.702-33.96-4.18-50.16v-8.359c-13.58 4.18-24.03 13.06-31.87 19.33-15.67 14.11-24.56 33.44-25.6 54.34s6.269 41.27 20.9 56.42c2.611 2.611 5.746 3.656 8.358 3.656z" style="fill:#00c7fb"/>
	<path d="m322.9 182.9c0 16.2-1.567 32.91-4.702 49.11-1.045 5.224-2.09 10.45-3.657 15.67l-0.522 3.135v0.522c0 0.522-0.522 1.045-0.522 1.567 0 1.045 0 1.567-0.522 2.612-1.567 5.224-3.135 10.45-5.224 15.67 0 0.522 0 0.522-0.522 1.045l36.05 32.91c2.09 2.09 4.702 2.612 7.314 2.612s5.747-1.045 7.837-3.135c14.11-15.67 21.42-35.53 20.9-56.42-1.045-20.9-9.927-40.23-25.6-54.34-7.314-6.792-17.76-15.15-31.35-19.33 0.52 2.615 0.52 5.75 0.52 8.362z" style="fill:#00c7fb"/>
</g><path d="m238.8 202c9.643 0 19.29-4.133 25.72-11.02 6.889-6.429 11.02-16.07 11.02-25.72v-3.674c-0.9185-8.266-4.592-16.07-10.56-21.58-6.429-6.889-16.07-11.48-26.18-11.48-9.184 0-18.83 4.133-25.72 11.02-6.889 6.888-11.02 16.53-11.02 25.72 0 20.21 16.53 36.74 36.74 36.74zm-12.4-50.05c3.674-3.674 8.266-5.51 12.86-5.51s9.643 1.837 12.86 5.51c3.674 3.674 5.51 8.266 5.51 12.86-0.4588 5.51-2.296 10.1-5.51 12.86l-0.4588 0.4588c-3.214 3.214-7.807 5.051-12.4 5.051-10.1 0-18.37-8.266-18.37-18.37-8.7e-4 -4.593 1.835-9.184 5.509-12.86z" style="fill:#fff;stroke-width:.879"/></svg>
