<svg style="enable-background:new 0 0 512 512" version="1.1" viewBox="0 0 512 512" xml:space="preserve" xmlns="http://www.w3.org/2000/svg"><defs><filter id="filter885" x="-.5198" y="-.3713" width="2.04" height="1.743" style="color-interpolation-filters:sRGB"><feGaussianBlur stdDeviation="73.93289"/></filter></defs>

	<g transform="translate(1 3)">
		<path d="m443.5 22.6h-307.2c-9.426 0-17.07 7.641-17.07 17.07v443.7c0 9.426 7.641 17.07 17.07 17.07h307.2c9.426 0 17.07-7.641 17.07-17.07v-443.7c0-9.426-7.641-17.07-17.07-17.07zm-273.1 68.27c-9.426 0-17.07-7.641-17.07-17.07s7.641-17.07 17.07-17.07 17.07 7.641 17.07 17.07-7.641 17.07-17.07 17.07zm119.5 0c-9.426 0-17.07-7.641-17.07-17.07s7.641-17.07 17.07-17.07 17.07 7.641 17.07 17.07-7.641 17.07-17.07 17.07zm119.5 0c-9.426 0-17.07-7.641-17.07-17.07s7.641-17.07 17.07-17.07 17.07 7.641 17.07 17.07-7.642 17.07-17.07 17.07z" style="fill:#7be4ff;filter:url(#filter885)"/>
		<path d="m460.6 39.67v443.7c-0.028 9.414-7.652 17.04-17.07 17.07h-25.6c9.414-0.028 17.04-7.653 17.07-17.07v-443.7c-0.027-9.414-7.652-17.04-17.07-17.07h25.6c9.414 0.028 17.04 7.652 17.07 17.07z" style="fill:#00c7fb"/>
		<path d="m170.5 335.6v2.731c-16.3 1e-3 -31.86-6.804-42.92-18.77l-60.5-65.54 25.6-25.6 62.29 67.5c9.975 10.81 15.52 24.97 15.53 39.68z" style="fill:#FFEB3A"/>
		<path d="m92.63 228.4-25.6 25.6-12.8-13.82c-6.786-7.352-6.328-18.81 1.024-25.6s18.81-6.328 25.6 1.024l11.78 12.8z" style="fill:#E91E63"/>
	</g>
	
		<path d="m444.5 17.07h-25.6v-8.534c0-4.713-3.821-8.533-8.533-8.533-4.713 0-8.533 3.821-8.533 8.533v8.533h-102.4v-8.533c0-4.713-3.82-8.533-8.533-8.533s-8.533 3.821-8.533 8.533v8.533h-102.4v-8.533c0-4.713-3.821-8.533-8.533-8.533-4.713 0-8.533 3.821-8.533 8.533v8.533h-25.6c-14.13 0.015-25.58 11.47-25.6 25.6v162.1c0 4.713 3.821 8.533 8.533 8.533s8.533-3.821 8.533-8.533v-162.1c6e-3 -4.71 3.823-8.527 8.533-8.533h25.6v18.64c-11.76 4.156-18.81 16.18-16.7 28.46s12.76 21.27 25.23 21.27 23.12-8.982 25.23-21.27-4.943-24.31-16.7-28.46v-18.64h102.4v18.64c-11.76 4.156-18.81 16.18-16.7 28.46s12.76 21.27 25.23 21.27 23.12-8.982 25.23-21.27-4.943-24.31-16.7-28.46v-18.64h102.4v18.64c-11.76 4.156-18.81 16.18-16.7 28.46s12.76 21.27 25.23 21.27 23.12-8.982 25.23-21.27-4.943-24.31-16.7-28.46v-18.64h25.6c4.71 6e-3 8.527 3.823 8.533 8.533v443.7c-6e-3 4.71-3.823 8.527-8.533 8.533h-307.2c-4.71-6e-3 -8.527-3.823-8.533-8.533v-119.5c0-4.713-3.821-8.533-8.533-8.533s-8.533 3.82-8.533 8.533v119.5c0.015 14.13 11.47 25.58 25.6 25.6h307.2c14.13-0.015 25.58-11.47 25.6-25.6v-443.7c-0.015-14.13-11.47-25.58-25.6-25.6zm-273.1 68.27c-4.713 0-8.533-3.82-8.533-8.533s3.821-8.533 8.533-8.533c4.713 0 8.533 3.821 8.533 8.533-5e-3 4.71-3.822 8.527-8.533 8.533zm119.5 0c-4.713 0-8.533-3.82-8.533-8.533s3.821-8.533 8.533-8.533 8.533 3.821 8.533 8.533c-6e-3 4.71-3.823 8.527-8.533 8.533zm119.5 0c-4.713 0-8.533-3.82-8.533-8.533s3.821-8.533 8.533-8.533c4.713 0 8.533 3.821 8.533 8.533-6e-3 4.71-3.823 8.527-8.533 8.533z"/>
		<path d="m165.4 176.7c1.599 1.602 3.77 2.501 6.033 2.5 0.2 0 0.404-9e-3 0.604-0.021 2.467-0.175 4.737-1.413 6.221-3.392l25.6-34.13c1.829-2.438 2.219-5.667 1.022-8.471s-3.799-4.756-6.825-5.121-6.018 0.912-7.847 3.35l-19.7 26.26-10.11-10.11c-3.341-3.281-8.701-3.256-12.01 0.054-3.311 3.311-3.335 8.671-0.054 12.01l17.07 17.07z"/>
		<path d="m148.4 253.5 17.07 17.07c1.599 1.602 3.77 2.501 6.033 2.5 0.2 0 0.404-9e-3 0.604-0.021 2.467-0.175 4.737-1.413 6.221-3.392l25.6-34.13c2.828-3.769 2.065-9.118-1.704-11.95s-9.118-2.065-11.95 1.704l-19.7 26.26-10.11-10.11c-3.341-3.281-8.701-3.256-12.01 0.054-3.311 3.311-3.335 8.671-0.054 12.01z"/>
		<path d="m231.2 170.7h196.3c4.713 0 8.533-3.821 8.533-8.533 0-4.713-3.82-8.533-8.533-8.533h-196.3c-4.713 0-8.533 3.821-8.533 8.533-1e-3 4.712 3.82 8.533 8.533 8.533z"/>
		<path d="m231.2 264.5h196.3c4.713 0 8.533-3.821 8.533-8.533 0-4.713-3.82-8.533-8.533-8.533h-196.3c-4.713 0-8.533 3.821-8.533 8.533-1e-3 4.713 3.82 8.533 8.533 8.533z"/>
		<path d="m231.2 358.4h196.3c4.713 0 8.533-3.821 8.533-8.533 0-4.713-3.82-8.533-8.533-8.533h-196.3c-4.713 0-8.533 3.821-8.533 8.533-1e-3 4.712 3.82 8.533 8.533 8.533z"/>
		<path d="m231.2 452.3h196.3c4.713 0 8.533-3.821 8.533-8.533 0-4.713-3.82-8.533-8.533-8.533h-196.3c-4.713 0-8.533 3.821-8.533 8.533-1e-3 4.712 3.82 8.533 8.533 8.533z"/>
		<path d="m122.2 328.3c11.83 12.74 28.14 20.39 45.5 21.35l6.229 6.229c2.15 2.18 5.304 3.041 8.264 2.255s5.271-3.097 6.057-6.057-0.075-6.113-2.255-8.264l-6.072-6.072c-0.173-16.55-6.488-32.45-17.72-44.6l-74.13-80.31c-4.565-4.933-10.84-7.933-17.55-8.384-0.498-0.038-0.975-0.168-1.479-0.178h-4e-3c-5.376-0.041-10.65 1.487-15.17 4.397-1.509 0.986-2.912 2.125-4.186 3.399-10.14 10.09-10.47 26.4-0.738 36.88l12.79 13.85 3e-3 2e-3 60.47 65.51zm-46.68-103.9 6.246 6.767-13.52 13.52-6.764-7.328c-2.574-2.788-3.254-6.834-1.734-10.31s4.953-5.724 8.747-5.727l0.2 4e-3c2.6 0.041 5.068 1.152 6.824 3.071zm86.94 107.6c-10.64-1.95-20.37-7.296-27.72-15.24l-54.91-59.49 13.52-13.52 56.3 61c6.98 7.542 11.45 17.06 12.8 27.25z"/>
	
















</svg>
