<svg width="512" height="512" version="1.1" viewBox="0 0 192 192" xmlns="http://www.w3.org/2000/svg" xmlns:xlink="http://www.w3.org/1999/xlink">
 <defs>
  <linearGradient id="New_Gradient_Swatch_1" x1="10.34" x2="106.5" y1="125.7" y2="29.5" gradientUnits="userSpaceOnUse">
   <stop stop-color="#34cdfa" offset="0"/>
   <stop stop-color="#e8d9f1" offset="1"/>
  </linearGradient>
 </defs>
 <linearGradient id="New_Gradient_Swatch_1-0" x1="10.34" x2="106.5" y1="125.7" y2="29.5" gradientUnits="userSpaceOnUse" spreadMethod="repeat" xlink:href="#New_Gradient_Swatch_1">
  <stop stop-color="#e8d9f1" style="stop-color:#00c7fb" offset="0"/>
  <stop stop-color="#34cdfa" style="stop-color:#7be4ff" offset="1"/>
 </linearGradient>
 <path d="m64 16c-35.29 0-64 25.12-64 56 0 15.27 6.992 29.65 19.36 40.16l-3.166 14.09a8 8 0 0 0 11.16 9.019l19.96-9.2a72.64 72.64 0 0 0 16.7 1.934c35.29 0 64-25.12 64-56s-28.71-56-64-56z" fill="url(#New_Gradient_Swatch_1)" style="fill:url(#New_Gradient_Swatch_1-0)"/>
 <path d="m85.66 61.66-11.31-11.31-10.34 10.34-10.34-10.34-11.31 11.31 10.34 10.34-10.34 10.34 11.31 11.31 10.34-10.34 10.34 10.34 11.31-11.31-10.34-10.34z" fill="#fff" style="fill:#000"/>
 <path d="m184 88h-88a8 8 0 0 0-8 8v72a8 8 0 0 0 8 8h61.58l21.98 14.66a8 8 0 0 0 12.44-6.656v-88a8 8 0 0 0-8-8z" fill="#99e6fd" style="fill:#7be4ff"/>
 <path d="m173.6 168h-61.58a8 8 0 0 1-8-8v-72h-8a8 8 0 0 0-8 8v72a8 8 0 0 0 8 8h61.58l21.98 14.66a8 8 0 0 0 12.44-6.656v-3.719z" fill="#67d9fb" style="fill:#00c7fb"/>
 <path d="m136 152a7.976 7.976 0 0 1-3.572-0.847l-16-8 7.156-14.31 8.844 4.422 12.42-24.84 14.31 7.156-16 32a8 8 0 0 1-7.161 4.424z" fill="#e6f9fe" style="fill:#000"/>
</svg>
