<svg style="enable-background:new 0 0 497.208 497.208" version="1.1" viewBox="0 0 497.2 497.2" xml:space="preserve" xmlns="http://www.w3.org/2000/svg">
<polygon points="376.6 456 120.6 456 8.604 344 8.604 8 376.6 8 376.6 168" style="fill:#ECECEC"/>
<path d="m240.6 376.3c0 32.23 16.3 61.99 42.88 79.71h85.12v-216h-128v136.3z" style="fill:#B6C1CE"/>
<polygon points="120.6 408 224.6 408 224.6 280 72.6 280 72.6 344 120.6 344" style="fill:#7be4ff"/>
<polygon points="120.6 456 120.6 344 8.604 344" style="fill:#c8c8c8"/>
<path d="m488.6 248v120.3c0 34.45-18.46 66.26-48.37 83.35l-63.63 36.36-63.63-36.36c-29.91-17.09-48.37-48.9-48.37-83.35v-120.3h22.31c36.04 0 69.7-18.02 89.69-48 19.99 29.98 53.65 48 89.69 48h22.31z" style="fill:#00c7fb"/>
<rect x="56.6" y="40" width="272" height="32" style="fill:#fc352f"/>
<path d="m466.3 240c-33.44 0-64.48-16.61-83.03-44.44l-6.656-9.984-6.656 9.984c-18.55 27.83-49.59 44.44-83.03 44.44h-30.31v128.3c0 31.01 13.96 60.15 37.29 79.71h-165.3v-32h104v-144h-168v64h-48v-320h352v144h16v-160h-384v347.3l116.7 116.7h201.2l58.12 33.21 67.6-38.62c32.32-18.46 52.4-53.07 52.4-90.3v-128.3h-30.31zm-353.7 196.7-84.69-84.69h84.69v84.69zm-32-148.7h136v112h-88v-64h-48v-48zm400 80.29c0 31.5-16.99 60.78-44.34 76.41l-59.66 34.1-59.66-34.1c-27.34-15.63-44.34-44.9-44.34-76.41v-112.3h14.31c35.04 0 67.81-15.72 89.69-42.54 21.88 26.82 54.65 42.54 89.69 42.54h14.31v112.3z"/>
<path d="m448.6 368.3c0 20.05-10.82 38.68-28.22 48.62l7.936 13.89c22.38-12.78 36.28-36.74 36.28-62.51v-48.29h-16v48.29z"/>
<path d="m336.6 32h-288v48h288v-48zm-16 32h-256v-16h256v16z"/>
<polygon points="442.9 274.3 336.6 380.7 310.3 354.3 298.9 365.7 336.6 403.3 454.3 285.7"/>
<rect x="96.6" y="304" width="104" height="16"/>
<rect x="144.6" y="336" width="56" height="16"/>
<rect x="144.6" y="368" width="56" height="16"/>
<rect x="48.6" y="112" width="256" height="16"/>
<rect x="48.6" y="144" width="256" height="16"/>
<rect x="48.6" y="176" width="256" height="16"/>
<rect x="48.6" y="208" width="152" height="16"/>
<rect x="48.6" y="240" width="152" height="16"/>
<rect x="320.6" y="112" width="16" height="16"/>
<rect x="320.6" y="144" width="16" height="16"/>
<rect x="320.6" y="176" width="16" height="16"/>
<rect x="216.6" y="208" width="16" height="16"/>
<rect x="216.6" y="240" width="16" height="16"/>















</svg>
